<svg
    id="v"
    xmlns="http://www.w3.org/2000/svg"
    xmlns:xlink="http://www.w3.org/1999/xlink"
    xmlns:inkscape="http://www.inkscape.org/namespaces/inkscape"
    width="6086"
    height="2098"
    viewBox="0 0 6086 2098"
>
    <defs>
        <style>
            .cls-2 {
               fill: #cf2e2e;
            }
        </style>
    </defs>
  
    <g
        id="group_text"
        inkscape:label="group_text"
        transform="scale(0.1 0.1) matrix(0.91884536,0,0,0.91884536,0.25724541,0.36391011) translate(185, 224) scale(7.062, 7.062)"
    >
        <path
            id="letter2"
            transform="translate(-133.44,-31.27)"
            d="m 324.26,117.94 c -4.91,7 -7.58,15.55 -9.8,24 a 312.23,312.23 0 0 0 -10.08,83.94 c 0.21,13.37 1.78,28 10.44,37.37 10.12,11 26.7,18.52 41.06,17.49 1.59,-0.11 15.68,-0.26 20.38,-8.24 4.84,-8.24 3.31,-18.47 3.52,-20.37 0,0 -4.39,-70.16 -5,-79.49 -0.48,-6.82 2.79,-22.5 2.17,-30.58 a 68.24,68.24 0 0 0 -4.8,-21.25 c -2,-4.73 -4,-11.07 -15.13,-15.85 -13.88,-5.96 -26.35,3.88 -32.76,12.98 z"
            inkscape:connector-curvature="0"
            inkscape:label="letter2" />
        <path
            id="letter2_2"
            transform="translate(-133.44,-31.27)"
            d="m 338.67,79.55 c 7,5.46 16.8,6.44 25.13,3.46 a 20.12,20.12 0 0 0 5.31,-2.74 c 4.44,-3.31 6.73,-8.76 8.82,-13.94 1.16,-2.87 2.35,-5.95 1.77,-9 -0.58,-3.05 -2.61,-5.28 -4.85,-7.17 A 33,33 0 0 0 341.44,45 c -14.61,6 -14.71,25.22 -2.77,34.55 z"
            inkscape:connector-curvature="0"
            inkscape:label="letter2_2" />
        <path
            id="letter3"
            transform="translate(-133.44,-31.27)"
            d="m 483.6,127.89 c 2.5,-4.37 6.95,-11.07 11,-14.24 7,-5.56 12.05,-7.35 21.17,-7.39 4.59,0 9.37,0.39 13.33,2.62 6.23,3.5 9.06,10.61 10.7,17.33 4.73,19.37 3.21,39.78 -1.8,59.08 -5.01,19.3 -7.17,37.88 -16.24,55.77 -4.46,8.8 -7.24,11.38 -12.38,19.83 -1.79,2.93 -8.82,10.08 -11.85,11.85 a 42.63,42.63 0 0 1 -12.28,4.16 c -8.75,1 -18.09,1.91 -25.95,-1.89 a 35,35 0 0 1 -10.07,-8 c -12,-12.86 -19.09,-29.18 -24.5,-45.61 -2.28,-6.92 -4.3,-13.91 -6.31,-20.91 q -1.72,-6 -3.85,-11.83 c -9.83,-27.24 -13.92,-45.05 -11.13,-56.79 a 25.63,25.63 0 0 1 6.13,-11.71 c 7.26,-8.35 16.75,-13.75 27.83,-11.37 11.08,2.38 20.11,10.44 25.91,19.79 4.73,7.63 7.06,23.95 10.54,27.74 a 0.27,0.27 0 0 0 0.44,-0.09 c 4.05,-10.12 4.09,-19.18 9.31,-28.34 z"
            inkscape:connector-curvature="0"
            inkscape:label="letter3" />
        <path
            d="m 452.29,76.3 c -11.07866,8.88026 -13.08767,24.0577 -15.01644,37.21382 -3.69174,32.27124 2.11468,64.48585 4.53655,96.61687 1.61832,11.78102 2.79645,25.0747 11.62512,33.93884 11.63475,9.7055 32.41419,6.56141 38.84717,-7.84916 5.82877,-13.37941 7.92459,-28.02863 10.81608,-42.24573 6.0527,-31.81998 6.29555,-64.35088 10.48207,-96.41797 1.0917,-7.6386 -0.42425,-15.69923 -5.68085,-21.60073 -6.66397,-8.35758 -17.81995,-12.840405 -28.41446,-10.960451 -12.46506,0.875108 -24.92773,6.905541 -32.41149,17.017011 -0.99781,1.56755 -1.887,3.20484 -2.65375,4.8975"
            id="letter4"
            inkscape:connector-curvature="0" />
        <path
            id="letter5"
            transform="translate(-133.44,-31.27)"
            d="m 675.33,65.85 c 2.09,6.46 6.21,12 9.46,18 11.69,21.44 11.77,47.66 5.72,71.33 -1.6,6.25 -3.59,12.4 -5.29,18.62 a 203,203 0 0 0 -6.67,39.68 c -1,15.05 -0.25,30.61 5.78,44.43 6.03,13.82 18.11,25.68 33,28.24 14.89,2.56 31.75,-6.32 35.37,-21 2.05,-8.28 -0.12,-17 -3.14,-25 -3.02,-8 -6.93,-15.71 -8.55,-24.09 a 75.09,75.09 0 0 1 -0.79,-17.92 c 0.92,-18.48 4.3,-36.75 6.4,-55.14 2.1,-18.39 2.9,-37.2 -1.27,-55.24 C 741.18,69.72 731.52,52.43 716.22,42 c -6.56,-4.46 -14.36,-7.62 -22.27,-7 -15.44,1.26 -23.14,16.92 -18.62,30.85 z"
            inkscape:connector-curvature="0"
            inkscape:label="letter5" />
        <path
            id="letter6"
            transform="translate(-133.44,-31.27)"
            d="m 820.67,52.79 c -4.88,0.36 -9.88,1.36 -13.94,4.16 -4.8,3.31 -7.72,8.73 -10.46,13.94 -3.37,6.39 -6.75,12.81 -9.16,19.63 -5.34,15.07 -5.77,31.42 -6.14,47.44 l -1.62,70.35 c -0.35,15 -0.63,30.43 4.49,44.49 5.12,14.06 17,26.64 31.61,27.79 9.8,0.76 19.6,-3.76 26.48,-10.93 6.88,-7.17 11,-16.75 12.93,-26.6 a 33.2,33.2 0 0 0 0.56,-11.32 c -0.61,-3.91 -2.27,-7.55 -3.81,-11.18 -14.6,-34.39 -19.55,-74.92 -4.6,-109.15 2.47,-5.64 5.46,-11.1 6.89,-17.09 5.02,-20.98 -11.97,-43.1 -33.23,-41.53 z"
            inkscape:connector-curvature="0"
            inkscape:label="letter6" />
        <path
            id="letter7"
            transform="translate(-133.44,-31.27)"
            d="m 944.12,206 a 20.71,20.71 0 0 1 3.89,-4.79 c 2.72,-2.65 9,-3.94 12.31,-5.23 5.7,-2.21 9.78,-4 15.34,-6.51 8.19,-3.75 16.69,-7.74 22.27,-14.82 a 34.84,34.84 0 0 0 5.82,-11.63 43.81,43.81 0 0 0 -29.75,-54.56 68.16,68.16 0 0 0 -19,-2.23 c -11.32,0 -22.74,1.28 -33.41,5.08 -10.67,3.8 -20.59,10.24 -27.42,19.28 -7.7,10.23 -11,23.15 -12.19,35.91 -1.19,12.76 -0.23,25.59 -0.33,38.4 0,3.33 1.3,18.82 2.64,24.25 1.79,7.27 2.18,10.83 4.63,17.91 2.24,6.44 5.14,10.18 8.15,16.29 2.51,5.11 10.68,18.17 23.5,21.16 6.12,1.43 18.18,-0.15 22.9,-1.3 a 63.94,63.94 0 0 0 9.24,-3.37 c 19.79,-7.9 35.66,-20.55 44.71,-39.85 1.61,-3.43 3,-7.5 1.3,-10.9 -1.17,-2.39 -3.61,-3.88 -6,-5 a 39.12,39.12 0 0 0 -29.1,-1.21 c -3,1.06 -5.8,2.48 -8.88,3 -3.08,0.52 -6.58,0.13 -8.79,-2.1 -2,-2 -2.53,-5.2 -2.9,-7.77 a 36.67,36.67 0 0 1 -0.09,-6.55 8.9,8.9 0 0 1 1.13,-3.44 z m -11.39,-45.16 a 13.27,13.27 0 0 1 -4.61,-9.35 c -0.74,-14.47 13.11,-12.2 22.27,-8.69 4.55,1.74 8.85,6 8.42,10.81 -0.41,4.61 -4.81,7.66 -9.11,9.12 -5.58,1.87 -12.33,1.98 -16.97,-1.91 z"
            inkscape:connector-curvature="0"
            inkscape:label="letter7" />
        <path
            id="letter7_2"
            transform="translate(-133.44,-31.27)"
            d="m 934.21,47.27 c 11.27,-4 20,-7.81 27.48,-13.87 a 10.73,10.73 0 0 1 1.72,-1.06 c 4.21,-2.25 8.32,-0.88 10,3.59 a 14.59,14.59 0 0 1 0.84,5.42 c -0.12,7.16 -3.16,13.36 -6.62,19.43 -3.11,5.46 -7.73,9.52 -12.47,13.36 -5.28,4.28 -10.86,8.31 -17.29,10.69 -7.79,2.89 -15.84,4.84 -24.28,3.63 -6.28,-0.91 -11.31,-3.72 -13.16,-10.22 A 18.75,18.75 0 0 1 903.07,62 26.94,26.94 0 0 1 920.63,50.43 C 926,49.28 931.25,48 934.21,47.27 Z"
            inkscape:connector-curvature="0"
            inkscape:label="letter7_2" />
        <path
            d="m 117.99219,24.408203 c -0.92407,0.05411 -1.85135,0.152011 -2.77735,0.277344 -0.0704,0.0062 -0.14261,0.0092 -0.21289,0.01563 -3.00328,0.159057 -5.64656,1.061946 -7.98437,2.453125 -0.85423,0.444719 -1.68522,0.935009 -2.4668,1.515625 l 0.10547,0.11914 C 100.01028,32.565763 96.838058,38.40979 94.830078,44.035161 87.866938,61.917012 83.695114,80.754689 79.427734,99.412109 76.973554,109.49278 76.19924,121.66603 67.25,128.43945 c -7.10306,-3.55608 -3.733098,-16.00316 -4.898438,-23.23047 -0.0259,-1.79654 -0.04571,-3.59331 -0.121093,-5.388668 C 62.158269,83.265753 47.43045,68.621207 30.875,68.841797 15.73827,70.838187 1.8358856,83.565808 0.57226562,99.179688 -1.0254544,114.84138 1.6844662,130.54851 2.6914062,146.16211 c 3.50033,17.7222 6.9153063,35.5896 13.9726558,52.32227 6.41726,15.48523 9.308797,34.90165 24.941407,44.1621 16.70602,9.28135 37.160973,0.35374 49.064453,-12.69531 36.088798,-40.48852 56.858218,-93.97311 61.236328,-147.867186 l 0.084,0.0957 c 1.01343,-15.7527 3.54556,-33.076476 -4.59765,-47.433594 -0.25628,-0.332726 -0.52466,-0.652367 -0.79688,-0.964844 -0.0773,-0.132744 -0.14138,-0.270306 -0.2207,-0.402344 -0.60718,-0.609139 -1.24844,-1.17162 -1.90625,-1.708984 -2.97971,-2.572792 -6.58598,-4.282586 -10.44336,-5.388672 -4.37065,-1.312473 -9.04453,-1.837862 -13.60547,-1.828125 -0.81306,-0.01886 -1.63476,-0.0486 -2.42773,-0.04492 z"
            id="letter1"
            inkscape:connector-curvature="0"
            inkscape:label="letter1" />
        <path
            id="letter4_2"
            transform="translate(-133.44,-31.27)"
            d="m 621.1,35.87 c -9,-3 -19.34,-0.53 -26.72,5.46 A 22,22 0 0 0 590,46 c -3.32,5 -3.7,11.29 -4,17.3 -0.15,3.32 -0.25,6.86 1.42,9.74 1.67,2.88 4.53,4.42 7.48,5.54 a 35.52,35.52 0 0 0 35.74,-6.64 c 12.65,-11.39 5.89,-30.87 -9.54,-36.07 z"
            inkscape:connector-curvature="0"
            inkscape:label="letter4_2" />
    </g>

    <g id="group_bulbs" transform="scale(0.1 0.1)">
        <circle id="bulb-0" class="cls-2" cx="367" cy="861" r="50"/>
        <circle id="bulb-1" class="cls-2" cx="367" cy="1112" r="50"/>
        <circle id="bulb-2" class="cls-2" cx="417" cy="1436" r="50"/>
        <circle id="bulb-3" class="cls-2" cx="565" cy="1642" r="50"/>
        <circle id="bulb-4" class="cls-2" cx="715" cy="1473" r="50"/>
        <circle id="bulb-5" class="cls-2" cx="815" cy="1246" r="50"/>
        <circle id="bulb-6" class="cls-2" cx="915" cy="1010" r="50"/>
        <circle id="bulb-7" class="cls-2" cx="965" cy="762" r="50"/>
        <circle id="bulb-8" class="cls-2" cx="965" cy="514" r="50"/>
        <circle id="bulb-9" class="cls-2" cx="565" cy="1214" r="50"/>

        <circle id="bulb-10" class="cls-2" cx="1544" cy="1573" r="50"/>
        <circle id="bulb-11" class="cls-2" cx="1494" cy="1336" r="50"/>
        <circle id="bulb-12" class="cls-2" cx="1494" cy="1086" r="50"/>
        <circle id="bulb-13" class="cls-2" cx="1544" cy="862" r="50"/>
        <circle id="bulb-14" class="cls-2" cx="1594" cy="414" r="50"/>
        
        <circle id="bulb-20" class="cls-2" cx="2113" cy="910" r="50"/>
        <circle id="bulb-21" class="cls-2" cx="2139" cy="1149" r="50"/>
        <circle id="bulb-22" class="cls-2" cx="2223" cy="1423" r="50"/>
        <circle id="bulb-23" class="cls-2" cx="2386" cy="1623" r="50"/>
        <circle id="bulb-24" class="cls-2" cx="2559" cy="1423" r="50"/>
        <circle id="bulb-25" class="cls-2" cx="2633" cy="1149" r="50"/>
        <circle id="bulb-26" class="cls-2" cx="2633" cy="910" r="50"/>
        <circle id="bulb-27" class="cls-2" cx="2386" cy="1214" r="50"/>

        <circle id="bulb-30" class="cls-2" cx="3227" cy="1542" r="50"/>
        <circle id="bulb-31" class="cls-2" cx="3227" cy="1296" r="50"/>
        <circle id="bulb-34" class="cls-2" cx="3277" cy="383" r="50"/>
        <circle id="bulb-32" class="cls-2" cx="3227" cy="1049" r="50"/>
        <circle id="bulb-33" class="cls-2" cx="3277" cy="812" r="50"/>

        <circle id="bulb-50" class="cls-2" cx="4615" cy="1623" r="50"/>
        <circle id="bulb-51" class="cls-2" cx="4565" cy="1373" r="50"/>
        <circle id="bulb-52" class="cls-2" cx="4565" cy="1086" r="50"/>
        <circle id="bulb-53" class="cls-2" cx="4565" cy="825" r="50"/>
        <circle id="bulb-54" class="cls-2" cx="4615" cy="564" r="50"/>

        <circle id="bulb-65" class="cls-2" cx="5209" cy="1486" r="50"/>
        <circle id="bulb-66" class="cls-2" cx="5359" cy="1673" r="50"/>
        <circle id="bulb-67" class="cls-2" cx="5594" cy="1573" r="50"/>
        <circle id="bulb-60" class="cls-2" cx="5459" cy="1186" r="50"/>
        <circle id="bulb-63" class="cls-2" cx="5209" cy="915" r="50"/>
        <circle id="bulb-61" class="cls-2" cx="5694" cy="999" r="50"/>
        <circle id="bulb-62" class="cls-2" cx="5509" cy="810" r="50"/>
        <circle id="bulb-64" class="cls-2" cx="5159" cy="1199" r="50"/>
        <circle id="bulb-69" class="cls-2" cx="5485" cy="364" r="50"/>
        <circle id="bulb-68" class="cls-2" cx="5309" cy="457" r="50"/>

        <circle id="bulb-40" class="cls-2" cx="3971" cy="1673" r="50"/>
        <circle id="bulb-41" class="cls-2" cx="3921" cy="1442" r="50"/>
        <circle id="bulb-42" class="cls-2" cx="3921" cy="1149" r="50"/>
        <circle id="bulb-43" class="cls-2" cx="3971" cy="865" r="50"/>
        <circle id="bulb-44" class="cls-2" cx="3971" cy="614" r="50"/>
        <circle id="bulb-45" class="cls-2" cx="3871" cy="407" r="50"/>
    </g>
</svg>
