<svg id="wip" xmlns="http://www.w3.org/2000/svg" viewBox="0 0 872.09 255.3"><title>UKEnavn_logo</title><path d="M195.67,131.09c-.63-14-9.34-26.73-25.52-30.37,0,0-11.08-4.53-26.94,10.22-14.86,13.82-8.54,39.28-7.88,58.39.38,10.88,3.91,21.41,5.86,32.12,2.35,12.89,9.22,28.23,13.4,40.62,5.62,16.7,12,31.35,28.93,35,10.28,2.21,21.17-1.06,30-6.94S229.24,256,235.55,247.4a262.66,262.66,0,0,0,49.88-133.95c1-12.32,1.87-40.61-6.36-49.71-5.94-6.56-29.54-12.43-41.08-3.8s-19.57,48.77-21.78,56.3c-2.75,9.36-3,14.13-5.32,23.61-1.8,7.36-3.17,13.54-9,19C195,165.33,196.09,140.58,195.67,131.09Z" transform="translate(-133.44 -31.27)"/><path d="M324.26,117.94c-4.91,7-7.58,15.55-9.8,24a312.23,312.23,0,0,0-10.08,83.94c.21,13.37,1.78,28,10.44,37.37,10.12,11,26.7,18.52,41.06,17.49,1.59-.11,15.68-.26,20.38-8.24,4.84-8.24,3.31-18.47,3.52-20.37,0,0-4.39-70.16-5-79.49-.48-6.82,2.79-22.5,2.17-30.58a68.24,68.24,0,0,0-4.8-21.25c-2-4.73-4-11.07-15.13-15.85C343.14,99,330.67,108.84,324.26,117.94Z" transform="translate(-133.44 -31.27)"/><path d="M338.67,79.55c7,5.46,16.8,6.44,25.13,3.46a20.12,20.12,0,0,0,5.31-2.74c4.44-3.31,6.73-8.76,8.82-13.94,1.16-2.87,2.35-5.95,1.77-9s-2.61-5.28-4.85-7.17A33,33,0,0,0,341.44,45C326.83,51,326.73,70.22,338.67,79.55Z" transform="translate(-133.44 -31.27)"/><path d="M483.6,127.89c2.5-4.37,6.95-11.07,11-14.24,7-5.56,12.05-7.35,21.17-7.39,4.59,0,9.37.39,13.33,2.62,6.23,3.5,9.06,10.61,10.7,17.33,4.73,19.37,3.21,39.78-1.8,59.08s-7.17,37.88-16.24,55.77c-4.46,8.8-7.24,11.38-12.38,19.83-1.79,2.93-8.82,10.08-11.85,11.85a42.63,42.63,0,0,1-12.28,4.16c-8.75,1-18.09,1.91-25.95-1.89a35,35,0,0,1-10.07-8c-12-12.86-19.09-29.18-24.5-45.61-2.28-6.92-4.3-13.91-6.31-20.91q-1.72-6-3.85-11.83c-9.83-27.24-13.92-45.05-11.13-56.79a25.63,25.63,0,0,1,6.13-11.71c7.26-8.35,16.75-13.75,27.83-11.37s20.11,10.44,25.91,19.79c4.73,7.63,7.06,23.95,10.54,27.74a.27.27,0,0,0,.44-.09C478.34,146.11,478.38,137.05,483.6,127.89Z" transform="translate(-133.44 -31.27)"/><path d="M585.73,107.57c-6.48,4.57-10.35,13.87-12.22,21.58-8,33.09-2.1,68,.79,102,.84,9.93,1.7,19.95,4.47,29.53,1.8,6.2,4.64,12.49,10,16.15a22.8,22.8,0,0,0,6.95,3.07c8.82,2.37,19,.57,25.44-5.94,5-5.08,7.17-12.24,9-19.15q1.29-5,2.42-9.95c3.17-13.88,5.52-27.93,7.45-42a491.7,491.7,0,0,0,4.64-51.26c.39-12.29,3.36-22.26,2.41-32.11-.46-4.82-4.73-12.77-10.93-17.34-4.75-3.51-11.19-6.16-15.58-6.17C603,95.87,594,100.39,584,109c-2.41,2.07-4.84,6.29-6.14,9.18" transform="translate(-133.44 -31.27)"/><path d="M675.33,65.85c2.09,6.46,6.21,12,9.46,18,11.69,21.44,11.77,47.66,5.72,71.33-1.6,6.25-3.59,12.4-5.29,18.62a203,203,0,0,0-6.67,39.68c-1,15.05-.25,30.61,5.78,44.43s18.11,25.68,33,28.24,31.75-6.32,35.37-21c2.05-8.28-.12-17-3.14-25s-6.93-15.71-8.55-24.09a75.09,75.09,0,0,1-.79-17.92c.92-18.48,4.3-36.75,6.4-55.14s2.9-37.2-1.27-55.24S731.52,52.43,716.22,42c-6.56-4.46-14.36-7.62-22.27-7C678.51,36.26,670.81,51.92,675.33,65.85Z" transform="translate(-133.44 -31.27)"/><path d="M820.67,52.79c-4.88.36-9.88,1.36-13.94,4.16-4.8,3.31-7.72,8.73-10.46,13.94-3.37,6.39-6.75,12.81-9.16,19.63-5.34,15.07-5.77,31.42-6.14,47.44l-1.62,70.35c-.35,15-.63,30.43,4.49,44.49s17,26.64,31.61,27.79c9.8.76,19.6-3.76,26.48-10.93s11-16.75,12.93-26.6a33.2,33.2,0,0,0,.56-11.32c-.61-3.91-2.27-7.55-3.81-11.18-14.6-34.39-19.55-74.92-4.6-109.15,2.47-5.64,5.46-11.1,6.89-17.09C858.92,73.34,841.93,51.22,820.67,52.79Z" transform="translate(-133.44 -31.27)"/><path d="M944.12,206a20.71,20.71,0,0,1,3.89-4.79c2.72-2.65,9-3.94,12.31-5.23,5.7-2.21,9.78-4,15.34-6.51,8.19-3.75,16.69-7.74,22.27-14.82a34.84,34.84,0,0,0,5.82-11.63A43.81,43.81,0,0,0,974,108.46a68.16,68.16,0,0,0-19-2.23c-11.32,0-22.74,1.28-33.41,5.08S901,121.55,894.17,130.59c-7.7,10.23-11,23.15-12.19,35.91s-.23,25.59-.33,38.4c0,3.33,1.3,18.82,2.64,24.25,1.79,7.27,2.18,10.83,4.63,17.91,2.24,6.44,5.14,10.18,8.15,16.29,2.51,5.11,10.68,18.17,23.5,21.16,6.12,1.43,18.18-.15,22.9-1.3a63.94,63.94,0,0,0,9.24-3.37c19.79-7.9,35.66-20.55,44.71-39.85,1.61-3.43,3-7.5,1.3-10.9-1.17-2.39-3.61-3.88-6-5a39.12,39.12,0,0,0-29.1-1.21c-3,1.06-5.8,2.48-8.88,3s-6.58.13-8.79-2.1c-2-2-2.53-5.2-2.9-7.77a36.67,36.67,0,0,1-.09-6.55,8.9,8.9,0,0,1,1.13-3.44Zm-11.39-45.16a13.27,13.27,0,0,1-4.61-9.35c-.74-14.47,13.11-12.2,22.27-8.69,4.55,1.74,8.85,6,8.42,10.81-.41,4.61-4.81,7.66-9.11,9.12C944.12,164.6,937.37,164.71,932.73,160.82Z" transform="translate(-133.44 -31.27)"/><path d="M934.21,47.27c11.27-4,20-7.81,27.48-13.87a10.73,10.73,0,0,1,1.72-1.06c4.21-2.25,8.32-.88,10,3.59a14.59,14.59,0,0,1,.84,5.42c-.12,7.16-3.16,13.36-6.62,19.43-3.11,5.46-7.73,9.52-12.47,13.36-5.28,4.28-10.86,8.31-17.29,10.69-7.79,2.89-15.84,4.84-24.28,3.63-6.28-.91-11.31-3.72-13.16-10.22A18.75,18.75,0,0,1,903.07,62a26.94,26.94,0,0,1,17.56-11.57C926,49.28,931.25,48,934.21,47.27Z" transform="translate(-133.44 -31.27)"/><path d="M285.43,113.45c1-12.32,3.83-38.47-6.36-49.71-5.95-6.55-29.54-12.43-41.08-3.8" transform="translate(-133.44 -31.27)"/><path d="M621.1,35.87c-9-3-19.34-.53-26.72,5.46A22,22,0,0,0,590,46c-3.32,5-3.7,11.29-4,17.3-.15,3.32-.25,6.86,1.42,9.74s4.53,4.42,7.48,5.54a35.52,35.52,0,0,0,35.74-6.64C643.29,60.55,636.53,41.07,621.1,35.87Z" transform="translate(-133.44 -31.27)"/></svg>