<svg id="Layer_1" data-name="Layer 1" xmlns="http://www.w3.org/2000/svg" viewBox="0 0 872.09 254.97"><defs><style>.cls-1{fill:#fff;}.cls-2{stroke:#000;stroke-miterlimit:10;}</style></defs><title>UKEnavnillustrator</title><path d="M195.66,200.73c-.62-14-9.33-26.73-25.51-30.37,0,0-11.08-4.53-27,10.22-14.85,13.82-8.53,39.29-7.87,58.39.38,10.88,3.9,21.42,5.86,32.12,2.34,12.89,9.22,28.23,13.39,40.62,5.63,16.7,12,31.35,28.93,35,10.29,2.22,21.18-1.06,30-6.94s15.76-14.17,22.07-22.74a262.75,262.75,0,0,0,49.88-134c1-12.32,1.87-40.61-6.36-49.7-5.94-6.57-29.55-12.44-41.08-3.81s-19.58,48.77-21.78,56.3c-2.75,9.36-3,14.13-5.32,23.61-1.8,7.36-3.17,13.54-9,19C195,235,196.09,210.22,195.66,200.73Z" transform="translate(-133.43 -101.24)"/><path d="M324.26,187.58c-4.92,7-7.58,15.55-9.8,24a312.52,312.52,0,0,0-10.09,83.93c.22,13.37,1.78,28,10.45,37.37,10.12,11,26.7,18.52,41.06,17.49,1.59-.11,15.68-.26,20.37-8.24,4.85-8.24,3.32-18.47,3.53-20.37,0,0-4.39-70.16-5-79.49-.48-6.82,3.14-23.83,2.17-30.58-.59-4.14-1.12-12.45-4.8-21.25-2-4.73-4-11.07-15.13-15.85C343.14,168.66,330.66,178.48,324.26,187.58Z" transform="translate(-133.43 -101.24)"/><path d="M338.66,149.19c7,5.46,16.81,6.44,25.14,3.46a20.39,20.39,0,0,0,5.31-2.73c4.44-3.32,6.73-8.77,8.82-13.95,1.16-2.87,2.34-5.95,1.77-9s-2.61-5.28-4.85-7.17a33,33,0,0,0-33.42-5.21C326.83,120.68,326.73,139.86,338.66,149.19Z" transform="translate(-133.43 -101.24)"/><path d="M483.6,197.53c2.5-4.37,6.95-11.07,11-14.24,7-5.56,12.05-7.35,21.16-7.39,4.6,0,9.38.39,13.34,2.62,6.23,3.5,9.06,10.61,10.7,17.33,4.73,19.37,3.21,39.78-1.8,59.08s-7.17,37.88-16.25,55.77c-4.46,8.8-7.23,11.38-12.37,19.83-1.79,2.93-8.82,10.08-11.85,11.85a42.8,42.8,0,0,1-12.29,4.16c-8.74,1-18.08,1.91-25.94-1.89a35,35,0,0,1-10.07-8c-12-12.86-19.1-29.18-24.51-45.61-2.3-7-4.33-14-6.36-21.1-1.57-5.45-3.52-10.79-5.4-16.15-8.66-24.72-8.16-29.59-9.09-32.58-1.32-4.29-3.06-8.62-.43-19.7a25.63,25.63,0,0,1,6.13-11.71c7.26-8.35,16.75-13.75,27.83-11.37s20.11,10.44,25.91,19.79c4.86,7.83,7.18,24.84,10.83,28C478.34,216,478.31,206.81,483.6,197.53Z" transform="translate(-133.43 -101.24)"/><path d="M605.54,173.67c-6.19.67-14.72,0-19.81,3.54-6.48,4.57-10.35,13.87-12.22,21.58-8,33.09-2.1,68,.78,102,.85,9.93,1.71,19.95,4.48,29.53,1.8,6.2,4.64,12.49,10,16.15a22.7,22.7,0,0,0,6.95,3.07c8.81,2.38,19,.57,25.44-5.94,5-5.08,7.17-12.24,9-19.15q1.27-4.95,2.42-9.95c3.17-13.88,5.51-27.93,7.45-42a491.7,491.7,0,0,0,4.64-51.26c.39-12.29,3.36-22.26,2.41-32.11-.46-4.82-3.17-9.32-7-14-1.36-1.63-1.5-2.82-8.07-6-5.33-2.55-7-3.57-11.39-3.58C603,165.51,594,170,584,178.63c-2.41,2.07-4.85,6.29-6.14,9.18s-3.88,12.86-2.24,15.57" transform="translate(-133.43 -101.24)"/><path d="M600.18,104.46c-4,1.58-8.25,3.33-10.6,6.56-1.65,2.27-2.16,5-2.64,7.67l-1.41,7.85a21.08,21.08,0,0,0-.43,7.7c1,5.22,5.9,9.38,11.46,11.56s11.75,2.72,17.82,3.24c3,.24,6,.48,8.81-.37,3.2-1,5.63-3.25,7.62-5.63,5.34-6.42,8.43-14.77,5.85-22.36a29.68,29.68,0,0,0-5.91-9.41A31.79,31.79,0,0,0,620.67,103C613.48,99.57,607,101.75,600.18,104.46Z" transform="translate(-133.43 -101.24)"/><path d="M675.33,135.49c2.09,6.46,6.21,12,9.46,18,11.69,21.44,11.76,47.67,5.72,71.33-1.6,6.25-3.59,12.4-5.29,18.62a202.28,202.28,0,0,0-6.68,39.68c-1,15.05-.24,30.61,5.79,44.43s18.11,25.68,33,28.24,31.75-6.32,35.37-21c2.05-8.28-.12-17-3.14-25s-6.94-15.71-8.55-24.09a75.09,75.09,0,0,1-.79-17.92c.92-18.48,4.3-36.75,6.4-55.14s2.9-37.2-1.27-55.23-13.8-35.37-29.1-45.78c-6.56-4.46-14.36-7.62-22.27-7C678.51,105.9,670.81,121.56,675.33,135.49Z" transform="translate(-133.43 -101.24)"/><path d="M820.67,122.43c-4.89.37-9.89,1.36-13.94,4.16-4.8,3.31-7.72,8.73-10.46,13.94a150.26,150.26,0,0,0-9.17,19.63c-5.33,15.07-5.76,31.42-6.13,47.44L779.35,278c-.35,15-.63,30.43,4.49,44.49s17,26.64,31.61,27.79c9.8.76,19.59-3.76,26.48-10.93s11-16.75,12.93-26.6a33.2,33.2,0,0,0,.56-11.32c-.61-3.91-2.27-7.55-3.81-11.18C837,255.81,832.05,215.29,847,181.05c2.46-5.63,5.45-11.1,6.89-17.09C858.91,143,841.93,120.86,820.67,122.43Z" transform="translate(-133.43 -101.24)"/><path d="M943.46,283.2c-2.11-5.43,1.82-9.72,4.54-12.37s7.52-2.5,11-4.08l16.69-7.65c8.19-3.75,16.69-7.75,22.26-14.83a34.5,34.5,0,0,0,5.83-11.63A43.83,43.83,0,0,0,974,178.1a68.15,68.15,0,0,0-19-2.22c-11.32,0-22.75,1.27-33.41,5.07S901,191.19,894.17,200.24c-7.71,10.23-11,23.15-12.19,35.9s-.23,25.6-.33,38.4a54.25,54.25,0,0,0,.46,10c.45,2.54,1.34,11.86,2.18,14.29,2.46,7.08,2.17,10.84,4.63,17.92,2.24,6.43,5.08,10.2,8.15,16.29,1.84,3.66,4.31,7.94,7.51,10.49,2.7,2.15,4.21,4.66,7.42,5.93,4.08,1.61.83,1.65,16.07,5,4.75,1,10.53-1.42,15.39-1.56,3.48-.1,6-2.08,9.24-3.37,19.8-7.89,35.66-20.55,44.72-39.84,1.61-3.44,3-7.51,1.3-10.91-1.18-2.39-3.61-3.88-6-5a39.19,39.19,0,0,0-29.09-1.21c-3,1.06-5.8,2.49-8.88,3.06s-6.58.12-8.79-2.11c-2-2-2.54-5-2.35-7.76.24-3.81-1.94-7.2.54-10.1" transform="translate(-133.43 -101.24)"/><path class="cls-1" d="M928.12,221.11a13.23,13.23,0,0,0,4.61,9.36c4.64,3.88,11.39,3.78,17,1.88,4.29-1.46,8.69-4.5,9.11-9.11.43-4.85-3.87-9.08-8.42-10.82C941.23,208.92,927.37,206.64,928.12,221.11Z" transform="translate(-133.43 -101.24)"/><path class="cls-2" d="M916.37,126.5c-4.75,2.89-9.52,5.93-12.92,9.92s-5.29,9.1-3.64,13.63c2.35,6.43,11.27,9.83,19.49,9.35s15.85-4,22.91-7.7a259.19,259.19,0,0,0,22.36-13.17c3.9-2.56,8-5.68,8.47-9.72.28-2.46-.89-4.84-2.41-6.92C958.42,105.13,931,117.63,916.37,126.5Z" transform="translate(-133.43 -101.24)"/></svg>