<?xml version="1.0" encoding="UTF-8" standalone="no"?>
<svg
   xmlns:dc="http://purl.org/dc/elements/1.1/"
   xmlns:cc="http://creativecommons.org/ns#"
   xmlns:rdf="http://www.w3.org/1999/02/22-rdf-syntax-ns#"
   xmlns:svg="http://www.w3.org/2000/svg"
   xmlns="http://www.w3.org/2000/svg"
   xmlns:sodipodi="http://sodipodi.sourceforge.net/DTD/sodipodi-0.dtd"
   xmlns:inkscape="http://www.inkscape.org/namespaces/inkscape"
   id="v"
   width="6086"
   height="2098"
   viewBox="0 0 6086 2098"
   version="1.1"
   sodipodi:docname="UKEnavn_logo_pæreplassering_laser_px.svg"
   inkscape:version="0.92.3 (2405546, 2018-03-11)">
  <metadata
     id="metadata68">
    <rdf:RDF>
      <cc:Work
         rdf:about="">
        <dc:format>image/svg+xml</dc:format>
        <dc:type
           rdf:resource="http://purl.org/dc/dcmitype/StillImage" />
        <dc:title></dc:title>
      </cc:Work>
    </rdf:RDF>
  </metadata>
  <sodipodi:namedview
     pagecolor="#ffffff"
     bordercolor="#666666"
     borderopacity="1"
     objecttolerance="10"
     gridtolerance="10"
     guidetolerance="10"
     inkscape:pageopacity="0"
     inkscape:pageshadow="2"
     inkscape:window-width="1920"
     inkscape:window-height="1017"
     id="namedview66"
     showgrid="false"
     inkscape:zoom="0.1767767"
     inkscape:cx="3351.5996"
     inkscape:cy="1116.689"
     inkscape:window-x="-8"
     inkscape:window-y="-8"
     inkscape:window-maximized="1"
     inkscape:current-layer="layer1"
     showguides="false" />
  <defs
     id="defs4">
    <style
       id="style2">
      .cls-1 {
        fill: #949494;
        stroke: #000;
        stroke-width: 1px;
      }

      .cls-2 {
        fill: #cf2e2e;
      }
    </style>
  </defs>
  <g
     inkscape:groupmode="layer"
     id="layer1"
     inkscape:label="Layer 1">
    <path
       style="fill:#0000ff;stroke-width:0.99999803"
       d="m 3963.4944,1861.9776 c -16.883,-2.6418 -24.2207,-4.3904 -39.1184,-9.3218 -43.7852,-14.4939 -84.3036,-41.4541 -118.5741,-78.8972 -62.1278,-67.8792 -95.6628,-160.3463 -101.0959,-278.7546 -1.0473,-22.8248 0.2747,-92.2916 2.2076,-115.9996 3.7043,-45.4356 9.9549,-95.659 15.6192,-125.4995 0.522,-2.75 1.8841,-10.175 3.0268,-16.4999 8.566,-47.4115 19.0244,-89.4586 40.4185,-162.4994 9.5229,-32.5117 11.7366,-40.2863 15.0909,-52.9998 9.6849,-36.70795 15.4268,-64.57954 20.3952,-98.99961 5.7569,-39.88284 7.7008,-67.09613 7.7146,-107.99957 0.02,-59.51547 -5.6714,-104.78539 -20.0527,-159.49937 -11.4819,-43.68333 -30.5944,-87.47056 -58.707,-134.49947 -25.9377,-43.39043 -33.5429,-57.78618 -41.2067,-77.9997 -8.4845,-22.37791 -11.6491,-39.18034 -11.7713,-62.49975 -0.2233,-42.60983 14.7813,-81.43698 41.9833,-108.63887 20.3048,-20.30472 41.841,-31.65598 72.0703,-37.98655 11.8916,-2.49029 42.4939,-2.48919 56.4999,0 56.4594,10.04246 111.1965,41.78463 162.5141,94.24222 90.3967,92.40494 141.2348,225.93532 147.6749,387.87978 1.2373,31.11358 0.4568,107.25078 -1.178,114.91035 -0.2452,1.14909 -0.9275,10.18916 -1.516,20.08912 -1.0481,17.62863 -2.4261,33.42117 -5.4536,62.49975 -2.7037,25.9683 -3.5269,33.38207 -4.5524,40.99984 -0.5554,4.12498 -2.5977,19.87492 -4.5385,34.99986 -1.9409,15.12507 -5.0655,38.52497 -6.9437,51.99987 -6.956,49.9048 -7.6256,54.7283 -9.0932,65.4998 -6.0756,44.5948 -11.2453,90.6292 -15.3851,136.9994 -5.9621,66.7823 -5.0221,126.3802 2.6022,164.9994 4.8619,24.6264 14.7485,54.9616 30.1467,92.4996 15.0697,36.7371 23.5578,57.7037 24.2904,59.9998 0.4387,1.375 2.2056,6.325 3.9265,10.9999 3.0914,8.3983 9.177,27.2119 10.9978,33.9999 8.5725,31.9581 10.394,44.7983 10.4263,73.4997 0.028,24.5058 -0.7705,31.9882 -5.0669,47.4998 -13.3954,48.3618 -46.6252,87.5309 -95.4426,112.5016 -40.0802,20.5014 -87.3893,28.8135 -127.9091,22.473 z m 1331.4979,-8.5747 c -39.6665,-4.0134 -78.1917,-24.197 -113.093,-59.2501 -22.899,-22.9985 -41.2486,-48.6615 -58.3816,-81.6497 -4.5704,-8.8 -13.5863,-25.452 -20.0353,-37.0046 -13.558,-24.2875 -20.0698,-37.0541 -25.9156,-50.8077 -8.1692,-19.2196 -17.076,-48.1701 -23.5933,-76.6871 -1.9483,-8.5249 -4.1775,-18.1999 -4.9538,-21.4999 -9.2122,-39.1612 -12.0735,-53.6381 -14.9222,-75.4997 -7.201,-55.2634 -10.5784,-101.9981 -10.564,-146.1791 0.01,-17.7761 -0.4809,-53.4701 -1.0817,-79.32 -2.766,-119.0219 5.9007,-199.3007 29.0061,-268.67924 9.6154,-28.87219 20.5084,-53.11519 34.324,-76.3897 46.085,-77.63779 128.5307,-136.32956 230.8989,-164.37305 60.0787,-16.45844 116.0103,-22.75871 193.3112,-21.77512 45.9654,0.5849 62.1257,2.23619 96.4998,9.86056 105.7074,23.44631 188.2161,105.14379 213.9617,211.85777 5.4238,22.48151 6.5303,33.67147 6.4767,65.49974 -0.044,26.08994 -0.3325,31.62904 -2.2145,42.49984 -5.7233,33.0582 -12.3807,54.529 -24.1999,78.0474 -10.8788,21.647 -21.39,36.313 -38.0141,53.0392 -32.149,32.3468 -73.0551,55.4457 -179.0098,101.0834 -2.475,1.0661 -5.4,2.343 -6.5,2.8377 -1.1,0.4947 -7.175,2.9737 -13.5,5.509 -6.325,2.5351 -12.85,5.2073 -14.5,5.9379 -5.6178,2.4877 -24.9656,9.3599 -37.9999,13.4971 -27.5485,8.7441 -43.7876,15.8095 -52.4681,22.828 -13.9589,11.2861 -29.2128,31.2616 -34.204,44.7912 -1.9324,5.2384 -2.2342,8.4148 -2.595,27.3134 -0.55,28.8128 2.2592,46.7283 9.8311,62.6987 4.7599,10.0391 11.274,17.4058 19.284,21.8079 11.2174,6.1648 15.4816,7.1045 32.152,7.0857 18.3226,-0.021 22.154,-0.9454 54.2973,-13.1045 25.0758,-9.4856 30.7011,-11.3487 43.2026,-14.3084 40.1558,-9.507 82.8528,-9.3198 121.4998,0.5328 43.2929,11.037 72.3361,28.0053 81.5179,47.6266 9.4511,20.1965 5.6393,42.4377 -14.0146,81.7747 -48.126,96.3231 -126.7718,171.754 -234.5031,224.9172 -18.0985,8.9312 -61.8163,27.8284 -79.4998,34.364 -26.9702,9.9679 -49.4691,14.7823 -89.9999,19.2581 -13.628,1.505 -61.5207,2.7685 -70.4999,1.86 z m 141.9998,-786.5088 c 22.2973,-3.0122 48.0126,-13.1414 62.0625,-24.4463 5.7905,-4.6591 14.2393,-13.6113 17.5131,-18.5564 1.5399,-2.326 4.0158,-7.9672 5.502,-12.5358 6.2881,-19.3303 0.1721,-39.2418 -17.5821,-57.24143 -12.811,-12.98805 -25.6712,-20.27012 -49.4955,-28.02679 -34.3565,-11.18576 -60.6537,-14.42024 -82.1532,-10.10466 -24.1281,4.84328 -38.5486,17.98753 -45.0068,41.02334 -1.4377,5.12798 -1.8215,10.08806 -1.8185,23.49991 0,15.87183 0.1918,17.59713 2.8352,25.99993 11.2894,35.8872 37.5843,56.6926 77.6433,61.4336 7.8369,0.9275 18.6361,0.5574 30.5,-1.0454 z M 1571.9982,1825.482 c -13.6314,-1.3337 -24.2768,-2.8485 -31,-4.4112 -2.2,-0.5114 -7.3749,-1.6618 -11.4999,-2.5565 -31.5352,-6.8397 -70.5193,-22.7505 -103.5854,-42.277 -33.3173,-19.6746 -67.2707,-48.1159 -87.6903,-73.4545 -23.3427,-28.9656 -41.3438,-72.1424 -49.521,-118.7792 -7.3433,-41.8804 -9.0814,-64.9389 -9.8751,-130.9995 -0.6901,-57.4503 1.2733,-115.8732 5.7469,-170.9993 3.3989,-41.8819 6.1465,-68.906 10.3707,-101.9996 3.0507,-23.8995 5.0042,-37.2447 10.9127,-74.5461 4.6155,-29.1387 17.8657,-96.0542 24.1484,-121.95315 0.8006,-3.29998 2.8351,-11.84995 4.5212,-18.99992 15.7357,-66.72754 31.4203,-116.26354 47.4943,-149.99941 34.7099,-72.84911 92.1028,-124.12011 154.4775,-137.99986 4.6461,-1.03389 14.1591,-1.86289 25,-2.17879 15.3148,-0.4462 18.8111,-0.2402 28,1.64929 22.0502,4.53419 46.3907,15.03604 67.6305,29.17939 13.1409,8.75056 31.6774,26.74089 39.2608,38.10405 10.0999,15.13404 20.9531,39.12815 30.6431,67.74593 18.3733,54.26139 25.9042,109.51677 21.9431,160.99937 -0.7466,9.70426 -5.1803,51.056 -8.9514,83.4864 -5.1574,44.3527 -5.3705,60.3492 -1.5192,114.0128 0.5132,7.15 1.415,20.65 2.0042,29.9999 0.5892,9.35 1.2702,19.4749 1.5133,22.4999 0.2431,3.025 0.9122,13.825 1.4867,23.9999 0.5746,10.175 1.2535,21.6499 1.5088,25.4999 0.6776,10.2193 2.3073,36.4889 3.4741,55.9998 1.5589,26.0671 1.9764,32.5354 2.4849,38.4999 0.258,3.0249 0.7153,10.4499 1.0165,16.4999 0.3011,6.05 0.7505,13.0249 0.9987,15.4999 0.2482,2.475 0.6969,9 0.9971,14.5 0.5368,9.8344 1.4922,25.3757 3.5041,56.9998 0.5598,8.7999 1.6911,27.0248 2.514,40.4998 0.8228,13.4749 1.9258,31.2499 2.4511,39.4998 0.5253,8.25 1.4329,23.0999 2.0169,32.9999 0.584,9.9 1.7412,27.6749 2.5716,39.4999 2.1504,30.6216 1.4859,74.1168 -1.3828,90.4996 -3.7239,21.2672 -8.6661,37.4106 -15.9196,51.9998 -13.0066,26.1605 -35.5472,42.4181 -72.7747,52.4894 -17.1868,4.6496 -29.4408,6.5279 -55.4719,8.5027 -22.7585,1.7265 -31.7434,1.7241 -49.4999,-0.013 z m 1620.9974,-0.076 c -39.3331,-5.3538 -71.1536,-21.0251 -92.1909,-45.403 -32.6348,-37.8168 -52.7953,-102.3329 -64.2661,-205.6587 -1.9467,-17.535 -3.0088,-28.9431 -9.0156,-96.8401 -1.6543,-18.6999 -3.477,-38.4998 -4.0502,-43.9998 -2.8338,-27.1866 -6.7462,-66.2159 -9.4728,-94.4996 -0.8748,-9.075 -2.0268,-21 -2.56,-26.4999 -0.9671,-9.9757 -3.1255,-34.7119 -4.9301,-56.4998 -1.2558,-15.1626 -2.7668,-36.0868 -3.5023,-48.4998 -0.3259,-5.5 -1.0138,-15.85 -1.5288,-22.9999 -2.1428,-29.7508 -3.1832,-99.3947 -2.0573,-137.7164 3.4226,-116.49514 21.0585,-213.79335 49.5342,-273.28202 16.5056,-34.48236 31.413,-53.05819 61.069,-76.0975 56.0277,-43.52713 99.0496,-61.04026 166.8179,-67.90733 23.3356,-2.36459 62.7667,-2.44349 73.1528,-0.1464 39.8272,8.80856 84.3899,34.71936 108.633,63.16405 24.2683,28.47419 39.6053,58.85837 43.4035,85.98716 2.9352,20.96482 1.0766,59.63857 -5.0461,104.99959 -6.9469,51.4664 -9.1847,74.11211 -10.4748,105.99958 -1.8844,46.57587 -3.7681,80.55677 -6.0147,108.49957 -0.5085,6.325 -1.1942,15.55 -1.5236,20.4999 -0.863,12.9659 -3.1238,37.7557 -6.475,70.9998 -2.77,27.4782 -4.0662,39.1174 -7.4617,66.9997 -2.9433,24.1689 -3.5748,29.1278 -4.5213,35.4999 -0.531,3.5749 -2.5725,18.1999 -4.5367,32.4998 -15.9666,116.243 -33.9137,212.9537 -57.0498,307.4208 -7.0235,28.6776 -8.5326,34.3949 -13.6145,51.5778 -9.9227,33.5506 -21.9537,60.5263 -35.6795,79.9997 -7.7684,11.0214 -25.8028,28.8323 -36.1697,35.7216 -27.8312,18.4951 -60.9734,27.9683 -96.7701,27.6602 -7.5343,-0.065 -18.1988,-0.7304 -23.6988,-1.4789 z m 1401.9978,-0.4207 c -45.4847,-3.0106 -91.1855,-24.9045 -130.3732,-62.458 -24.4106,-23.3927 -47.5663,-56.1096 -63.6084,-89.8732 -12.585,-26.4878 -20.7768,-51.8705 -29.417,-91.1503 -4.2659,-19.3932 -8.5067,-54.1704 -10.6699,-87.4996 -1.9571,-30.1524 -1.6023,-110.3672 0.9687,-218.9992 1.7623,-74.4639 3.3047,-143.2075 4.0834,-181.9993 0.2926,-14.5749 0.7655,-30.9998 1.0508,-36.4998 0.2854,-5.5 1.1714,-43.7499 1.969,-84.9997 0.7976,-41.24984 1.6827,-79.72468 1.9668,-85.49966 0.284,-5.77498 0.7597,-19.94992 1.057,-31.49988 2.3359,-90.74374 9.138,-152.8766 22.9898,-209.99917 5.7844,-23.85391 10.4616,-39.13645 20.0462,-65.49974 5.4397,-14.96265 23.6306,-54.72459 35.6844,-77.9997 39.4707,-76.2159 48.4492,-90.72394 68.7272,-111.05496 12.309,-12.34105 20.3856,-18.24593 34.6175,-25.3093 23.183,-11.50576 55.4473,-18.02383 88.9077,-17.96123 75.5948,0.1416 145.644,46.57542 183.0293,121.32562 9.954,19.90282 16.0255,38.69645 21.1603,65.49974 2.5106,13.10485 2.4707,53.95979 -0.066,67.99974 -4.7748,26.42289 -12.3416,48.32951 -29.8781,86.49966 -25.2593,54.97978 -34.3944,77.96539 -45.1076,113.49955 -31.0825,103.09689 -39.335,215.81323 -24.5632,335.49873 2.9768,24.1196 5.1441,37.9055 10.4543,66.4997 2.467,13.2836 10.0075,47.2461 13.5435,60.9998 1.6968,6.5999 3.5057,13.7041 4.0198,15.787 0.8439,3.4196 4.9729,18.0124 8.4072,29.7128 6.8454,23.3219 22.0613,68.228 28.4624,84.0005 1.2275,3.0245 2.8267,7.0741 3.5537,8.9991 2.563,6.7864 10.6438,26.5783 13.4733,32.9999 23.8789,54.1929 29.1811,80.4737 24.5125,121.4995 -4.7513,41.7528 -19.8666,90.5315 -40.1193,129.4696 -37.2038,71.528 -97.4905,120.1254 -166.8574,134.5045 -16.8577,3.4944 -34.3763,4.6754 -52.0243,3.5073 z m -4074.99346,-19.067 c -68.32239,-6.1452 -120.27161,-40.4342 -159.14765,-105.0451 -18.02707,-29.9602 -33.09215,-65.0871 -53.33902,-124.3694 -6.63469,-19.426 -17.13737,-48.5358 -23.99286,-66.4997 -39.45894,-103.3973 -53.78651,-148.8353 -64.956,-205.9992 -2.20299,-11.275 -4.71109,-23.6499 -5.57339,-27.4999 -0.8624,-3.85 -1.95259,-8.8 -2.42279,-10.9999 -0.4702,-2.2 -2.7569,-12.1 -5.0816,-22 -5.57259,-23.7311 -6.70019,-28.669 -8.44908,-36.9998 -0.8083,-3.8502 -2.3668,-11.2752 -3.4634,-16.5001 -6.52809,-31.1039 -10.36158,-61.0085 -11.60108,-90.4997 -0.8181,-19.4628 -2.2029,-38.9524 -4.93819,-69.4997 -1.3543,-15.125 -2.9269,-32.8999 -3.4946,-39.4999 -0.56759,-6.59995 -1.59629,-18.2999 -2.28599,-25.99987 -1.959,-21.87301 -1.6638,-83.74677 0.4795,-100.50561 8.02638,-62.76095 24.30616,-101.96839 55.55421,-133.79447 35.26044,-35.91266 81.43567,-63.91455 119.71221,-72.59651 16.59977,-3.76529 37.45254,-4.88698 49.25162,-2.64929 22.15127,4.20088 49.71002,13.63224 68.2482,23.3565 46.85382,24.57721 81.01707,64.91065 97.99184,115.69005 9.35309,27.97929 10.83218,40.19764 11.98428,98.99961 1.4159,72.26602 3.3669,99.66189 8.68839,121.99949 2.99599,12.576 6.36959,19.9449 10.98688,23.9989 6.49569,5.7033 13.25748,3.061 25.74375,-10.0599 20.33105,-21.3644 33.8815,-46.92284 43.6033,-82.243 7.08718,-25.7483 14.63114,-58.72507 21.54868,-94.19533 7.58524,-38.89405 13.22525,-63.63415 19.60535,-85.99966 4.20379,-14.73654 6.14785,-22.25141 16.42691,-63.49975 5.825,-23.37491 11.18199,-44.74983 11.9044,-47.49982 26.66174,-101.4925 53.77711,-175.7495 80.32297,-219.96923 12.00987,-20.00592 22.62094,-32.84087 34.6926,-41.96363 31.77896,-24.01601 82.24082,-33.21427 140.49978,-25.6105 53.99664,7.04737 102.20914,25.79609 124.52154,48.42341 38.6916,39.23794 55.506,122.34841 48.9843,242.11994 -1.7897,32.86807 -3.4648,54.91729 -8.0908,106.49958 -5.3836,60.02967 -19.6625,150.63831 -32.4632,205.99919 -1.081,4.67498 -2.6656,11.64996 -3.5214,15.49994 -4.0078,18.03036 -14.6033,59.30246 -20.9228,81.49966 -21.3183,74.8803 -46.2562,144.3422 -78.8032,219.4992 -25.63216,59.1894 -63.23652,132.1019 -97.21772,188.4992 -19.369,32.146 -20.68153,34.286 -27.29301,44.4999 -11.96222,18.48 -15.57723,23.919 -28.57958,42.9998 -72.35017,106.1731 -126.93095,164.6828 -187.88517,201.4098 -51.29842,30.9091 -107.24696,45.5003 -157.22818,41.0046 z m 1831.26256,0.052 c -51.4082,-4.3127 -89.2207,-23.0555 -127.206,-63.0528 -50.5249,-53.2009 -91.9206,-118.5523 -126.3154,-199.4135 -18.5534,-43.6184 -41.1653,-108.5394 -59.2104,-169.9994 -2.0993,-7.1499 -5.4754,-18.6249 -7.5024,-25.4999 -2.027,-6.8749 -6.5493,-22.3999 -10.0496,-34.4998 -10.5003,-36.2982 -15.1335,-50.7366 -26.4737,-82.4997 -17.6925,-49.5562 -36.0167,-104.282 -42.524,-126.9995 -0.709,-2.475 -3.7568,-13.05 -6.773,-23.4999 -11.6071,-40.2145 -19.9951,-77.8287 -24.6415,-110.49959 -3.5326,-24.8393 -4.2223,-34.19787 -4.1945,-56.91838 0.048,-39.01615 5.2238,-63.75745 19.1594,-91.58104 7.194,-14.36324 15.0762,-25.5908 28.4939,-40.58664 43.6158,-48.74611 92.3716,-73.89121 143.4177,-73.96561 15.5163,-0.023 25.1522,1.1112 40.0543,4.71298 58.6192,14.16825 114.019,55.32679 154.5748,114.83925 13.703,20.10792 20.6789,34.74487 30.7404,64.49975 4.0697,12.03535 7.4037,22.94531 20.3218,66.49974 4.5665,15.39634 8.7523,27.91139 12.4415,37.19834 5.9603,15.0042 12.7034,25.8677 14.7739,23.8014 3.3404,-3.3336 12.8775,-34.25525 23.2861,-75.49969 14.6049,-57.87187 19.5477,-72.86731 32.3881,-98.25591 17.7787,-35.15306 50.2757,-79.89659 71.4728,-98.40701 8.4421,-7.37207 22.6134,-17.82683 32.9172,-24.28431 34.5181,-21.63301 66.314,-29.05638 118.9122,-27.76249 39.9372,0.9824 62.7727,6.61608 84.0095,20.72572 8.3114,5.52208 22.4421,18.98553 28.8469,27.48479 12.5225,16.61744 24.8992,44.92043 32.1409,73.49971 14.2743,56.33238 20.1855,105.44939 20.1584,167.49934 -0.021,48.56265 -3.2125,86.21815 -11.5685,136.49945 -6.06,36.4659 -9.028,50.2903 -20.8455,97.096 -7.0395,27.8815 -10.5072,42.7695 -19.659,84.4033 -2.1761,9.9 -5.0956,22.9499 -6.4877,28.9999 -4.0058,17.4092 -5.1677,22.4937 -6.9698,30.4999 -26.4123,117.3409 -59.3397,201.0494 -106.0091,269.4989 -17.2792,25.3432 -33.8098,50.2641 -40.4098,60.9205 -4.0607,6.5564 -10.7643,16.0063 -14.8969,20.9999 -10.041,12.1331 -41.4261,43.4129 -52.6388,52.4623 -13.7558,11.1017 -36.5222,21.5639 -64.3622,29.5771 -19.4107,5.5869 -30.2246,7.2721 -70.1376,10.9303 -11.6857,1.071 -49.0104,1.4344 -59.2344,0.5766 z M 5245.4924,580.37404 c -1.375,-0.1986 -6.55,-0.8569 -11.5,-1.46269 -43.8353,-5.36538 -72.646,-24.97571 -85.5622,-58.23917 -5.7594,-14.83235 -7.3155,-24.30711 -7.2532,-44.16423 0.052,-16.71964 0.2727,-18.83253 3.0967,-29.70428 3.7161,-14.30605 11.443,-30.49818 20.8995,-43.79543 8.9527,-12.58895 31.2325,-34.78077 42.8193,-42.65023 23.364,-15.86844 41.6095,-23.15551 75.9998,-30.35378 14.7826,-3.09419 42.528,-9.50517 63.3076,-14.62825 25.0598,-6.17827 56.8314,-17.81153 98.1922,-35.95356 31.1764,-13.67484 62.0375,-31.58687 88.4998,-51.36609 15.442,-11.54206 19.4358,-13.93815 29.9772,-17.98493 6.4375,-2.47139 9.48,-3.06239 15.7636,-3.06239 4.2825,0 8.5677,0.3915 9.5228,0.8699 0.955,0.47849 3.9467,1.85799 6.648,3.06558 18.216,8.14277 28.4583,29.51819 28.5534,59.59047 0.1142,36.09106 -10.658,70.46072 -37.2886,118.97333 -20.8032,37.89665 -42.9949,61.93236 -95.6763,103.62669 -22.5676,17.86093 -37.2443,28.07699 -57.4999,40.02415 -20.6155,12.15935 -36.713,19.28712 -63.9999,28.33818 -31.2038,10.35036 -50.4994,14.76635 -78.4999,17.96543 -11.9363,1.3637 -39.1373,1.9026 -45.9999,0.9113 z M 1582.9982,553.04095 c -38.0971,-4.56398 -70.0333,-19.52863 -95.0078,-44.51843 -20.658,-20.67072 -33.1699,-43.76062 -39.7369,-73.33171 -2.9141,-13.12215 -3.1392,-40.67804 -0.4304,-52.68249 1.8825,-8.34257 4.2164,-16.58064 5.666,-19.99992 9.2364,-21.78582 21.3044,-37.79155 37.9534,-50.3369 17.6625,-13.30895 43.4124,-23.27401 74.5557,-28.85239 14.3223,-2.56539 52.8297,-2.54959 66.9999,0.028 46.2943,8.41937 83.807,26.88729 111.9998,55.13888 11.5012,11.52526 16.0159,18.02173 20.3484,29.28129 2.3441,6.09187 2.5894,8.04266 2.5449,20.24152 -0.058,15.99263 -1.3383,20.98531 -12.5297,48.8718 -19.7153,49.12621 -34.8351,72.59622 -57.5317,89.30445 -15.2419,11.22046 -37.8918,20.13062 -63.3317,24.91391 -11.8933,2.23609 -40.1518,3.30208 -51.4999,1.94259 z m 1645.9974,-24.65181 c -26.4721,-1.59879 -57.2377,-9.35076 -78.9999,-19.90552 -17.2551,-8.36866 -29.4245,-19.32512 -36.2351,-32.62347 -7.9667,-15.55544 -9.5623,-31.56677 -7.2598,-72.85191 3.4211,-61.34336 14.2455,-92.31044 41.8635,-119.76513 18.0971,-17.99023 44.3595,-34.16207 70.6313,-43.49333 37.8123,-13.43035 80.3113,-14.21744 116.1528,-2.15129 15.8338,5.33048 38.8714,18.76272 51.8469,30.22978 45.9801,40.63444 62.9571,101.755 42.9949,154.78969 -12.0366,31.97808 -42.2588,61.28696 -84.8615,82.29698 -21.8533,10.77715 -43.6311,17.50623 -69.6332,21.51551 -9.7585,1.5047 -35.8318,2.60299 -46.4999,1.95869 z"
       id="path97-2"
       inkscape:connector-curvature="0" />
    <path
       style="fill:#060000;stroke-width:0.99173933;fill-opacity:1"
       d="M 5579.2402 207 C 5572.9566 207 5569.9141 207.59116 5563.4766 210.0625 C 5552.9352 214.10931 5548.942 216.50476 5533.5 228.04688 C 5507.0376 247.82619 5476.1765 265.73919 5445 279.41406 C 5403.6391 297.55611 5371.8684 309.1889 5346.8086 315.36719 C 5326.0289 320.49028 5298.2826 326.90192 5283.5 329.99609 C 5249.1096 337.19443 5230.8641 344.48117 5207.5 360.34961 C 5195.9132 368.21916 5173.6343 390.41104 5164.6816 403 C 5155.2251 416.29737 5147.4974 432.48882 5143.7812 446.79492 C 5140.9573 457.66675 5140.7356 459.78035 5140.6836 476.5 C 5140.6213 496.35724 5142.1781 505.83174 5147.9375 520.66406 C 5160.8538 553.9277 5189.6646 573.53895 5233.5 578.9043 C 5234.4357 579.01883 5234.7492 579.06681 5235.6738 579.18164 L 5235.6738 668 L 4825.6504 668 C 4837.035 641.40736 4842.7488 622.93925 4846.623 601.5 C 4849.1597 587.46003 4849.2001 546.60498 4846.6895 533.5 C 4841.5547 506.69662 4835.4834 487.9029 4825.5293 468 C 4788.144 393.24955 4718.095 346.81539 4642.5 346.67383 C 4609.0396 346.61117 4576.7748 353.12894 4553.5918 364.63477 C 4539.3599 371.69815 4531.2836 377.60423 4518.9746 389.94531 C 4498.6965 410.2764 4489.7188 424.78385 4450.248 501 C 4438.1942 524.2752 4420.0022 564.03738 4414.5625 579 C 4404.9779 605.36345 4400.302 620.646 4394.5176 644.5 C 4392.6461 652.21762 4390.9134 660.04127 4389.293 668 L 4154.4434 668 C 4140.7282 527.38306 4091.4119 410.82592 4010.0137 327.61914 C 3958.696 275.16127 3903.9595 243.41943 3847.5 233.37695 C 3840.497 232.13134 3829.3448 231.5082 3818.457 231.50781 C 3807.5692 231.50743 3796.9458 232.12984 3791 233.375 C 3760.7707 239.70557 3739.2345 251.05651 3718.9297 271.36133 C 3691.7277 298.56332 3676.722 337.39001 3676.9453 380 C 3677.0675 403.31956 3680.2323 420.12203 3688.7168 442.5 C 3696.3807 462.7136 3703.9861 477.10941 3729.9238 520.5 C 3758.0365 567.52914 3777.149 611.31656 3788.6309 655 C 3789.7863 659.39596 3790.8654 663.71368 3791.9102 668 L 3431.502 668 C 3407.575 650.06847 3377.3816 635.51429 3349.5 629.34766 C 3344.5631 628.25576 3333.0419 627.70758 3319.8281 627.67969 L 3319.8281 515.40039 C 3328.2373 512.42547 3336.4297 508.95172 3344.6328 504.90625 C 3387.2356 483.89619 3417.4575 454.58754 3429.4941 422.60938 C 3449.4564 369.57443 3432.4801 308.45495 3386.5 267.82031 C 3373.5244 256.35325 3350.4861 242.92033 3334.6523 237.58984 C 3317.8516 231.93382 3299.5892 229.1015 3281.0312 229.07227 C 3259.999 229.03913 3238.5878 232.60537 3218.5 239.74023 C 3192.2282 249.07153 3165.9662 265.24412 3147.8691 283.23438 C 3120.2511 310.68921 3109.427 341.65646 3106.0059 403 C 3103.7034 444.28533 3105.2989 460.29605 3113.2656 475.85156 C 3120.0763 489.14993 3132.2449 500.10779 3149.5 508.47656 C 3171.2622 519.0313 3202.0279 526.78205 3228.5 528.38086 C 3228.9074 528.40546 3229.3776 528.42376 3229.8281 528.44336 L 3229.8281 636.83008 C 3201.7158 643.21051 3177.2333 653.01279 3152.0469 668 L 1639 668 L 1639 550.08594 C 1662.3971 545.1171 1683.0966 536.65728 1697.332 526.17773 C 1720.0286 509.46945 1735.148 485.99751 1754.8633 436.87109 C 1766.0547 408.9845 1767.3346 403.9927 1767.3926 388 C 1767.4371 375.80108 1767.1918 373.84963 1764.8477 367.75781 C 1760.5152 356.49818 1756.0012 350.0018 1744.5 338.47656 C 1716.3071 310.22484 1678.7944 291.75728 1632.5 283.33789 C 1625.4149 282.04934 1612.2451 281.4019 1599.0566 281.39648 C 1585.8682 281.39107 1572.6611 282.02785 1565.5 283.31055 C 1534.3567 288.88892 1508.6059 298.85303 1490.9434 312.16211 C 1474.2944 324.7075 1462.2266 340.71409 1452.9902 362.5 C 1451.5406 365.9193 1449.2067 374.15742 1447.3242 382.5 C 1444.6154 394.50454 1444.8418 422.06138 1447.7559 435.18359 C 1454.3229 464.75481 1466.8341 487.84481 1487.4922 508.51562 C 1504.7559 525.78996 1525.3478 538.27053 1549 545.83984 L 1549 668 L 1160.9688 668 C 1161.1481 664.89456 1161.3272 661.7809 1161.5059 658.5 C 1168.0276 538.728 1151.2131 455.61699 1112.5215 416.37891 C 1090.2091 393.75146 1041.9968 375.00252 988 367.95508 C 929.74095 360.35134 879.27901 369.55038 847.5 393.56641 C 835.42832 402.68922 824.81653 415.52335 812.80664 435.5293 C 786.26074 479.74922 759.14615 554.00715 732.48438 655.5 C 732.29426 656.22369 730.10765 664.99964 729.35156 668 L 440.73438 668 C 426.01674 662.38793 409.80001 657.61729 395.75195 654.95312 C 383.95285 652.71548 363.09986 653.83632 346.5 657.60156 C 336.62017 659.84254 326.21232 663.38085 315.60352 668 L 0 668 L 0 868 L 170.82812 868 C 169.06309 888.93771 168.92684 944.1 170.75391 964.5 C 171.44353 972.2 172.47139 983.9 173.03906 990.5 C 173.60673 997.1 175.18082 1014.875 176.53516 1030 C 179.27048 1060.5474 180.65461 1080.0371 181.47266 1099.5 C 182.71222 1128.9913 186.54612 1158.896 193.07422 1190 C 194.17084 1195.225 195.72886 1202.6498 196.53711 1206.5 C 198.28604 1214.8308 199.41376 1219.7688 204.98633 1243.5 C 207.31106 1253.4 209.5982 1263.3 210.06836 1265.5 C 210.53853 1267.7 211.62788 1272.65 212.49023 1276.5 C 213.35259 1280.35 215.8614 1292.725 218.06445 1304 C 229.23388 1361.1641 243.56052 1406.6023 283.01953 1510 C 289.87502 1527.964 300.379 1557.0739 307.01367 1576.5 C 319.67101 1613.5603 330.30366 1641.1808 340.90039 1664 L 0 1664 L 0 1864 L 3986.0547 1864 C 3989.0743 1864.0719 3992.115 1864.0702 3995.1719 1864 L 6000 1864 L 6000 1664 L 5709.3398 1664 C 5732.7216 1636.12 5752.6308 1605.7705 5769.0039 1573 C 5788.6579 1533.6628 5792.4688 1511.4212 5783.0176 1491.2246 C 5773.8358 1471.6033 5744.793 1454.6348 5701.5 1443.5977 C 5662.853 1433.7451 5620.1559 1433.5575 5580 1443.0645 C 5567.4985 1446.0243 5561.8727 1447.8874 5536.7969 1457.373 C 5504.6535 1469.5321 5500.8226 1470.4575 5482.5 1470.4785 C 5465.8295 1470.4973 5461.5651 1469.5574 5450.3477 1463.3926 C 5442.3377 1458.9905 5435.8244 1451.6232 5431.0645 1441.584 C 5423.4926 1425.6136 5420.6824 1407.6977 5421.2324 1378.8848 C 5421.5932 1359.9861 5421.8957 1356.8107 5423.8281 1351.5723 C 5428.8193 1338.0426 5444.0725 1318.0676 5458.0312 1306.7812 C 5466.7118 1299.7628 5482.9515 1292.6973 5510.5 1283.9531 C 5523.5343 1279.8159 5542.8822 1272.9428 5548.5 1270.4551 C 5550.15 1269.7245 5556.675 1267.0528 5563 1264.5176 C 5569.325 1261.9823 5575.4 1259.5025 5576.5 1259.0078 C 5577.6 1258.5131 5580.525 1257.238 5583 1256.1719 C 5688.9549 1210.534 5729.8608 1187.4348 5762.0098 1155.0879 C 5778.6339 1138.3616 5789.1446 1123.694 5800.0234 1102.0469 C 5811.8426 1078.5284 5818.5013 1057.0583 5824.2246 1024 C 5826.1066 1013.1292 5826.3955 1007.59 5826.4395 981.5 C 5826.4931 949.67163 5825.3867 938.48167 5819.9629 916 C 5815.9456 899.34854 5810.5465 883.307 5803.8926 868 L 6000 868 L 6000 668 L 5591.5449 668 L 5591.5449 380.44922 C 5614.6253 336.62837 5624.0718 304.3302 5623.9648 270.52539 C 5623.8697 240.45296 5613.6281 219.07834 5595.4121 210.93555 C 5592.7107 209.72796 5589.7187 208.34762 5588.7637 207.86914 C 5587.8086 207.39066 5583.5227 207 5579.2402 207 z M 5501.5449 484.67383 L 5501.5449 668 L 5325.6738 668 L 5325.6738 573.89844 C 5338.9699 571.01745 5352.4579 567.14313 5369.5 561.49023 C 5396.7869 552.43911 5412.8845 545.31178 5433.5 533.15234 C 5453.7556 521.20518 5468.4324 510.98795 5491 493.12695 C 5494.6711 490.22148 5498.1601 487.41847 5501.5449 484.67383 z M 573.35547 868 L 681.44531 868 C 675.41095 897.52173 669.03954 924.74598 662.99805 946.69531 C 653.27623 982.01559 639.72561 1007.575 619.39453 1028.9395 C 606.90822 1042.0605 600.14801 1044.7013 593.65234 1038.998 C 589.03497 1034.9439 585.66005 1027.576 582.66406 1015 C 577.34254 992.66235 575.39246 965.26632 573.97656 893 C 573.79052 883.5045 573.59034 875.32855 573.35547 868 z M 1140.2344 868 L 1360.6016 868 C 1351.7076 894.89672 1342.8754 926.97979 1334.0273 964.5 C 1332.3412 971.65 1330.3065 980.2 1329.5059 983.5 C 1323.2232 1009.399 1309.9729 1076.3143 1305.3574 1105.4531 C 1299.4489 1142.7547 1297.496 1156.1004 1294.4453 1180 C 1290.2211 1213.0937 1287.4731 1240.1179 1284.0742 1282 C 1279.6005 1337.1263 1277.638 1395.5495 1278.3281 1453 C 1279.1218 1519.0608 1280.8598 1542.1194 1288.2031 1584 C 1293.2596 1612.8386 1302.0765 1640.3495 1313.5859 1664 L 789.61133 1664 C 812.96834 1636.2662 837.54646 1603.2204 864.61328 1563.5 C 877.61565 1544.4191 881.23112 1538.9801 893.19336 1520.5 C 899.80485 1510.2861 901.1173 1508.1461 920.48633 1476 C 954.46759 1419.6025 992.07285 1346.6897 1017.7051 1287.5 C 1050.2522 1212.3427 1075.1894 1142.8806 1096.5078 1068 C 1102.8273 1045.8027 1113.4219 1004.5304 1117.4297 986.5 C 1118.2855 982.65 1119.8702 975.675 1120.9512 971 C 1127.4521 942.88432 1134.3297 905.67559 1140.2344 868 z M 1741.7812 868 L 1919.3047 868 C 1916.9385 881.22546 1915.8963 895.74063 1915.875 913.08203 C 1915.8472 935.80262 1916.5358 945.16063 1920.0684 970 C 1924.7148 1002.671 1933.1038 1040.2854 1944.7109 1080.5 C 1947.7271 1090.95 1950.7754 1101.525 1951.4844 1104 C 1957.9917 1126.7176 1976.3152 1181.4436 1994.0078 1231 C 2005.348 1262.7632 2009.9802 1277.2017 2020.4805 1313.5 C 2023.9808 1325.6 2028.5043 1341.125 2030.5312 1348 C 2032.5584 1354.875 2035.9339 1366.35 2038.0332 1373.5 C 2056.0784 1434.9602 2078.6907 1499.8815 2097.2441 1543.5 C 2116.2681 1588.2248 2137.4379 1628.1965 2161.1055 1664 L 1767.8086 1664 C 1767.8441 1649.6877 1767.4432 1634.7354 1766.5488 1622 C 1765.7184 1610.175 1764.5625 1592.4 1763.9785 1582.5 C 1763.3945 1572.6 1762.4862 1557.75 1761.9609 1549.5 C 1761.4356 1541.25 1760.3326 1523.475 1759.5098 1510 C 1758.6869 1496.525 1757.5559 1478.3 1756.9961 1469.5 C 1754.9842 1437.8758 1754.029 1422.3345 1753.4922 1412.5 C 1753.192 1407 1752.7423 1400.475 1752.4941 1398 C 1752.2459 1395.525 1751.7972 1388.55 1751.4961 1382.5 C 1751.1949 1376.45 1750.7365 1369.025 1750.4785 1366 C 1749.97 1360.0355 1749.553 1353.5672 1747.9941 1327.5 C 1746.8273 1307.989 1745.1971 1281.7193 1744.5195 1271.5 C 1744.2642 1267.65 1743.5863 1256.175 1743.0117 1246 C 1742.4372 1235.825 1741.7685 1225.025 1741.5254 1222 C 1741.2823 1218.975 1740.6009 1208.85 1740.0117 1199.5 C 1739.4225 1190.15 1738.521 1176.65 1738.0078 1169.5 C 1734.1565 1115.8362 1734.3699 1099.8392 1739.5273 1055.4863 C 1743.2984 1023.0558 1747.7319 981.70436 1748.4785 972 C 1751.0565 938.49361 1748.7597 903.38846 1741.7812 868 z M 2323.9238 868 L 2424.9297 868 C 2418.4674 884.38497 2413.0064 903.89903 2403.1387 943 C 2392.7301 984.24465 2383.1939 1015.1664 2379.8535 1018.5 C 2377.783 1020.5663 2371.0384 1009.7034 2365.0781 994.69922 C 2361.3889 985.41225 2357.2032 972.89646 2352.6367 957.5 C 2339.7186 913.94548 2336.3861 903.03547 2332.3164 891 C 2329.3325 882.17566 2326.6209 874.70206 2323.9238 868 z M 2814.9473 868 L 3018.3848 868 C 3007.6063 918.83983 3000.8993 979.60906 2998.9258 1046.7832 C 2997.7999 1085.105 2998.8396 1154.7491 3000.9824 1184.5 C 3001.4974 1191.65 3002.1858 1202 3002.5117 1207.5 C 3003.2472 1219.9131 3004.7579 1240.8373 3006.0137 1256 C 3007.8183 1277.788 3009.9763 1302.5243 3010.9434 1312.5 C 3011.4766 1318 3012.6291 1329.925 3013.5039 1339 C 3016.2305 1367.2838 3020.1428 1406.3133 3022.9766 1433.5 C 3023.5498 1439 3025.373 1458.8 3027.0273 1477.5 C 3033.0341 1545.3972 3034.0963 1556.8047 3036.043 1574.3398 C 3039.8107 1608.2786 3044.522 1638.0063 3050.2988 1664 L 2629.8867 1664 C 2636.667 1653.8018 2644.4238 1642.2651 2652.4453 1630.5 C 2699.1148 1562.0502 2732.0427 1478.3414 2758.4551 1361 C 2760.2572 1352.9938 2761.418 1347.9093 2765.4238 1330.5 C 2766.8159 1324.45 2769.736 1311.4 2771.9121 1301.5 C 2781.0639 1259.866 2784.5328 1244.9773 2791.5723 1217.0957 C 2803.3899 1170.2898 2806.358 1156.466 2812.418 1120 C 2820.774 1069.7185 2823.9653 1032.0628 2823.9863 983.5 C 2824.0048 941.10505 2821.2463 904.74661 2814.9473 868 z M 3498.4434 868 L 3807.0391 868 C 3805.8361 885.20086 3803.8972 902.21207 3800.9688 922.5 C 3796.0003 956.92021 3790.2591 984.79189 3780.5742 1021.5 C 3777.2199 1034.2135 3775.0073 1041.9882 3765.4844 1074.5 C 3744.0902 1147.5411 3733.6305 1189.5883 3725.0645 1237 C 3723.9218 1243.325 3722.5591 1250.75 3722.0371 1253.5 C 3716.3728 1283.3406 3710.1223 1333.5642 3706.418 1379 C 3704.4851 1402.7081 3703.1636 1472.1752 3704.2109 1495 C 3707.1381 1558.7941 3718.227 1615.0539 3737.5449 1664 L 3390.3672 1664 C 3392.399 1656.411 3394.5859 1647.6324 3398.4336 1631.9219 C 3421.5697 1537.4544 3439.5158 1440.7434 3455.4824 1324.5 C 3457.4466 1310.2 3459.4885 1295.575 3460.0195 1292 C 3460.966 1285.6279 3461.5977 1280.669 3464.541 1256.5 C 3467.9365 1228.6176 3469.232 1216.9784 3472.002 1189.5 C 3475.3532 1156.2558 3477.6136 1131.4659 3478.4766 1118.5 C 3478.806 1113.55 3479.4935 1104.325 3480.002 1098 C 3482.2486 1070.0571 3484.1312 1036.076 3486.0156 989.5 C 3487.3057 957.61245 3489.5433 934.96659 3496.4902 883.5 C 3497.2011 878.23383 3497.8483 873.06867 3498.4434 868 z M 4153.7734 868 L 4371.125 868 C 4370.8887 875.45585 4370.6477 882.40078 4370.4707 886 C 4370.1866 891.775 4369.3015 930.25 4368.5039 971.5 C 4367.7063 1012.75 4366.8186 1051 4366.5332 1056.5 C 4366.2479 1062 4365.775 1078.425 4365.4824 1093 C 4364.7037 1131.7919 4363.1627 1200.5358 4361.4004 1275 C 4358.8294 1383.6324 4358.4745 1463.8475 4360.4316 1494 C 4362.5948 1527.3294 4366.8357 1562.1067 4371.1016 1581.5 C 4378.7991 1616.4943 4386.1493 1640.4578 4396.5586 1664 L 4191.1445 1664 C 4190.3915 1644.9505 4187.8602 1631.604 4180.9922 1606 C 4179.1714 1599.212 4173.0855 1580.3983 4169.9941 1572 C 4168.2732 1567.325 4166.5071 1562.375 4166.0684 1561 C 4165.3358 1558.7039 4156.847 1537.7372 4141.7773 1501 C 4126.379 1463.4618 4116.4928 1433.1265 4111.6309 1408.5 C 4104.0066 1369.8807 4103.0672 1310.2825 4109.0293 1243.5 C 4113.1691 1197.1296 4118.3385 1151.095 4124.4141 1106.5 C 4125.8817 1095.7285 4126.5518 1090.905 4133.5078 1041 C 4135.3861 1027.525 4138.5103 1004.125 4140.4512 989 C 4142.392 973.875 4144.4348 958.125 4144.9902 954 C 4146.0157 946.38212 4146.8373 938.96841 4149.541 913 C 4151.5718 893.49453 4152.8287 880.11348 4153.7734 868 z M 4755.0312 868 L 5093.0918 868 C 5090.3881 872.0878 5087.7825 876.22912 5085.2891 880.42969 C 5071.4735 903.70424 5060.5802 927.948 5050.9648 956.82031 C 5027.8594 1026.1991 5019.193 1106.4776 5021.959 1225.5 C 5022.5598 1251.35 5023.051 1287.0441 5023.041 1304.8203 C 5023.0266 1349.0015 5026.4045 1395.7364 5033.6055 1451 C 5036.4542 1472.8617 5039.3151 1487.3386 5048.5273 1526.5 C 5049.3036 1529.8 5051.5322 1539.475 5053.4805 1548 C 5059.9978 1576.5171 5068.905 1605.4678 5077.0742 1624.6875 C 5081.9124 1636.0704 5087.2712 1646.8785 5096.6387 1664 L 4824.2578 1664 C 4838.9676 1629.8806 4849.6468 1591.3782 4853.502 1557.5 C 4858.1706 1516.474 4852.8673 1490.1931 4828.9883 1436 C 4826.1588 1429.5784 4818.0786 1409.7864 4815.5156 1403 C 4814.7886 1401.075 4813.1904 1397.0265 4811.9629 1394.002 C 4805.5618 1378.2294 4790.3454 1333.322 4783.5 1310 C 4780.0657 1298.2996 4775.9357 1283.7067 4775.0918 1280.2871 C 4774.5777 1278.2042 4772.7691 1271.1 4771.0723 1264.5 C 4767.5362 1250.7463 4759.9963 1216.7837 4757.5293 1203.5 C 4752.2191 1174.9057 4750.051 1161.1197 4747.0742 1137 C 4735.4181 1042.558 4738.1106 952.46118 4755.0312 868 z M 5391.127 914.13672 C 5392.0788 914.13058 5393.0384 914.13702 5394.0078 914.1543 C 5411.0692 914.45842 5430.8799 918.39179 5454.5 926.08203 C 5478.3244 933.83879 5491.1851 941.11933 5503.9961 954.10742 C 5521.7503 972.10713 5527.8662 992.01931 5521.5781 1011.3496 C 5520.0919 1015.9183 5517.6161 1021.5588 5516.0762 1023.8848 C 5512.8024 1028.8299 5504.353 1037.7822 5498.5625 1042.4414 C 5484.5126 1053.7463 5458.7973 1063.8765 5436.5 1066.8887 C 5424.6361 1068.4915 5413.8369 1068.8611 5406 1067.9336 C 5365.9409 1063.1925 5339.6468 1042.3874 5328.3574 1006.5 C 5325.714 998.09721 5325.5215 996.37194 5325.5215 980.5 C 5325.5185 967.08817 5325.9021 962.12805 5327.3398 957 C 5333.798 933.96415 5348.2196 920.81986 5372.3477 915.97656 C 5378.2263 914.7965 5384.4642 914.17966 5391.127 914.13672 z "
       id="rect4653" />
  </g>
  <circle
     id="Ellipse_1_kopi_11"
     data-name="Ellipse 1 kopi 11"
     class="cls-2"
     cx="583.75085"
     cy="1267.574"
     r="50"
     style="fill:#cf2e2e" />
  <circle
     id="Ellipse_1_kopi_12"
     data-name="Ellipse 1 kopi 12"
     class="cls-2"
     cx="425.0361"
     cy="1411.8917"
     r="50"
     style="fill:#cf2e2e" />
  <circle
     id="Ellipse_1_kopi_13"
     data-name="Ellipse 1 kopi 13"
     class="cls-2"
     cx="815"
     cy="1246"
     r="50" />
  <circle
     id="Ellipse_1_kopi_2"
     data-name="Ellipse 1 kopi 2"
     class="cls-2"
     cx="965"
     cy="514"
     r="50" />
  <circle
     id="Ellipse_1_kopi_3"
     data-name="Ellipse 1 kopi 3"
     class="cls-2"
     cx="385.75089"
     cy="1128.0721"
     r="50"
     style="fill:#cf2e2e" />
  <circle
     id="Ellipse_1_kopi_8"
     data-name="Ellipse 1 kopi 8"
     class="cls-2"
     cx="915"
     cy="1010"
     r="50" />
  <ellipse
     id="Ellipse_1_kopi_10"
     data-name="Ellipse 1 kopi 10"
     class="cls-2"
     cx="965"
     cy="762"
     rx="50"
     ry="49" />
  <circle
     id="Ellipse_1_kopi"
     data-name="Ellipse 1 kopi"
     class="cls-2"
     cx="367"
     cy="861"
     r="50" />
  <circle
     id="Ellipse_1_kopi_14"
     data-name="Ellipse 1 kopi 14"
     class="cls-2"
     cx="715"
     cy="1473"
     r="50" />
  <circle
     id="Ellipse_1_kopi_15"
     data-name="Ellipse 1 kopi 15"
     class="cls-2"
     cx="565"
     cy="1642"
     r="50" />
  <circle
     id="Ellipse_1_kopi_7"
     data-name="Ellipse 1 kopi 7"
     class="cls-2"
     cx="1544"
     cy="1573"
     r="50" />
  <circle
     id="Ellipse_1_kopi_6"
     data-name="Ellipse 1 kopi 6"
     class="cls-2"
     cx="1494"
     cy="1336"
     r="50" />
  <circle
     class="cls-2"
     cx="1594"
     cy="414"
     r="50"
     id="circle20" />
  <circle
     id="Ellipse_1_kopi_5"
     data-name="Ellipse 1 kopi 5"
     class="cls-2"
     cx="1494"
     cy="1086"
     r="50" />
  <circle
     id="Ellipse_1_kopi_4"
     data-name="Ellipse 1 kopi 4"
     class="cls-2"
     cx="1544"
     cy="862"
     r="50" />
  <circle
     id="Ellipse_1_kopi_7-2"
     data-name="Ellipse 1 kopi 7"
     class="cls-2"
     cx="2386"
     cy="1623"
     r="50" />
  <circle
     id="Ellipse_1_kopi_6-2"
     data-name="Ellipse 1 kopi 6"
     class="cls-2"
     cx="2223"
     cy="1423"
     r="50" />
  <circle
     class="cls-2"
     cx="2139"
     cy="1149"
     r="50"
     id="circle26" />
  <circle
     id="Ellipse_1_kopi_9"
     data-name="Ellipse 1 kopi 9"
     class="cls-2"
     cx="2559"
     cy="1423"
     r="50" />
  <circle
     id="Ellipse_1_kopi_16"
     data-name="Ellipse 1 kopi 16"
     class="cls-2"
     cx="2633"
     cy="1149"
     r="50" />
  <circle
     id="Ellipse_1_kopi_5-2"
     data-name="Ellipse 1 kopi 5"
     class="cls-2"
     cx="2633"
     cy="910"
     r="50" />
  <circle
     id="Ellipse_1_kopi_4-2"
     data-name="Ellipse 1 kopi 4"
     class="cls-2"
     cx="2113"
     cy="910"
     r="50" />
  <circle
     id="Ellipse_1_kopi_17"
     data-name="Ellipse 1 kopi 17"
     class="cls-2"
     cx="2386"
     cy="1214"
     r="50" />
  <circle
     id="Ellipse_1_kopi_7-3"
     data-name="Ellipse 1 kopi 7"
     class="cls-2"
     cx="3227"
     cy="1542"
     r="50" />
  <circle
     id="Ellipse_1_kopi_6-3"
     data-name="Ellipse 1 kopi 6"
     class="cls-2"
     cx="3227"
     cy="1296"
     r="50" />
  <circle
     class="cls-2"
     cx="3277"
     cy="383"
     r="50"
     id="circle35" />
  <circle
     id="Ellipse_1_kopi_5-3"
     data-name="Ellipse 1 kopi 5"
     class="cls-2"
     cx="3227"
     cy="1049"
     r="50" />
  <circle
     id="Ellipse_1_kopi_4-3"
     data-name="Ellipse 1 kopi 4"
     class="cls-2"
     cx="3277"
     cy="812"
     r="50" />
  <circle
     id="Ellipse_1_kopi_7-4"
     data-name="Ellipse 1 kopi 7"
     class="cls-2"
     cx="4615"
     cy="1623"
     r="50" />
  <circle
     id="Ellipse_1_kopi_6-4"
     data-name="Ellipse 1 kopi 6"
     class="cls-2"
     cx="4565"
     cy="1373"
     r="50" />
  <circle
     id="Ellipse_1_kopi_5-4"
     data-name="Ellipse 1 kopi 5"
     class="cls-2"
     cx="4565"
     cy="1086"
     r="50" />
  <circle
     id="Ellipse_1_kopi_4-4"
     data-name="Ellipse 1 kopi 4"
     class="cls-2"
     cx="4565"
     cy="825"
     r="50" />
  <circle
     class="cls-2"
     cx="4615"
     cy="564"
     r="50"
     id="circle43" />
  <circle
     id="Ellipse_1_kopi_7-5"
     data-name="Ellipse 1 kopi 7"
     class="cls-2"
     cx="5209"
     cy="1486"
     r="50" />
  <circle
     id="Ellipse_1_kopi_6-5"
     data-name="Ellipse 1 kopi 6"
     class="cls-2"
     cx="5359"
     cy="1673"
     r="50" />
  <circle
     id="Ellipse_1_kopi_5-5"
     data-name="Ellipse 1 kopi 5"
     class="cls-2"
     cx="5594"
     cy="1573"
     r="50" />
  <circle
     id="Ellipse_1_kopi_19"
     data-name="Ellipse 1 kopi 19"
     class="cls-2"
     cx="5459"
     cy="1186"
     r="50" />
  <circle
     id="Ellipse_1_kopi_20"
     data-name="Ellipse 1 kopi 20"
     class="cls-2"
     cx="5209"
     cy="915"
     r="50" />
  <circle
     id="Ellipse_1_kopi_22"
     data-name="Ellipse 1 kopi 22"
     class="cls-2"
     cx="5694"
     cy="999"
     r="50" />
  <circle
     id="Ellipse_1_kopi_23"
     data-name="Ellipse 1 kopi 23"
     class="cls-2"
     cx="5509"
     cy="810"
     r="50" />
  <circle
     id="Ellipse_1_kopi_21"
     data-name="Ellipse 1 kopi 21"
     class="cls-2"
     cx="5159"
     cy="1199"
     r="50" />
  <circle
     id="Ellipse_1_kopi_4-5"
     data-name="Ellipse 1 kopi 4"
     class="cls-2"
     cx="5485"
     cy="364"
     r="50" />
  <circle
     class="cls-2"
     cx="5309"
     cy="457"
     r="50"
     id="circle54" />
  <circle
     id="Ellipse_1_kopi_18"
     data-name="Ellipse 1 kopi 18"
     class="cls-2"
     cx="3971"
     cy="1673"
     r="50" />
  <circle
     id="Ellipse_1_kopi_7-6"
     data-name="Ellipse 1 kopi 7"
     class="cls-2"
     cx="3921"
     cy="1442"
     r="50" />
  <circle
     id="Ellipse_1_kopi_6-6"
     data-name="Ellipse 1 kopi 6"
     class="cls-2"
     cx="3921"
     cy="1149"
     r="50" />
  <circle
     id="Ellipse_1_kopi_5-6"
     data-name="Ellipse 1 kopi 5"
     class="cls-2"
     cx="3971"
     cy="865"
     r="50" />
  <circle
     id="Ellipse_1_kopi_4-6"
     data-name="Ellipse 1 kopi 4"
     class="cls-2"
     cx="3971"
     cy="614"
     r="50" />
  <circle
     class="cls-2"
     cx="3871"
     cy="407"
     r="50"
     id="circle61" />
  <g
     inkscape:groupmode="layer"
     id="layer2"
     inkscape:label="Layer 2" />
</svg>
