<?xml version="1.0" encoding="UTF-8" standalone="no"?>
<svg
   xmlns:dc="http://purl.org/dc/elements/1.1/"
   xmlns:cc="http://creativecommons.org/ns#"
   xmlns:rdf="http://www.w3.org/1999/02/22-rdf-syntax-ns#"
   xmlns:svg="http://www.w3.org/2000/svg"
   xmlns="http://www.w3.org/2000/svg"
   xmlns:sodipodi="http://sodipodi.sourceforge.net/DTD/sodipodi-0.dtd"
   xmlns:inkscape="http://www.inkscape.org/namespaces/inkscape"
   id="v"
   width="6086"
   height="2098"
   viewBox="0 0 6086 2098"
   version="1.1"
   sodipodi:docname="UKEnavn_logo_sjablong.svg"
   inkscape:version="0.92.4 (5da689c313, 2019-01-14)">
  <metadata
     id="metadata68">
    <rdf:RDF>
      <cc:Work
         rdf:about="">
        <dc:format>image/svg+xml</dc:format>
        <dc:type
           rdf:resource="http://purl.org/dc/dcmitype/StillImage" />
        <dc:title></dc:title>
      </cc:Work>
    </rdf:RDF>
  </metadata>
  <sodipodi:namedview
     pagecolor="#ffffff"
     bordercolor="#666666"
     borderopacity="1"
     objecttolerance="10"
     gridtolerance="10"
     guidetolerance="10"
     inkscape:pageopacity="0"
     inkscape:pageshadow="2"
     inkscape:window-width="1920"
     inkscape:window-height="1138"
     id="namedview66"
     showgrid="false"
     inkscape:zoom="0.1767767"
     inkscape:cx="3248.1889"
     inkscape:cy="1482.1333"
     inkscape:window-x="-8"
     inkscape:window-y="-8"
     inkscape:window-maximized="1"
     inkscape:current-layer="g2335"
     showguides="true" />
  <defs
     id="defs4">
    <style
       id="style2">
      .cls-1 {
        fill: #949494;
        stroke: #000;
        stroke-width: 1px;
      }

      .cls-2 {
        fill: #cf2e2e;
      }
    </style>
  </defs>
  <g
     inkscape:groupmode="layer"
     id="layer1"
     inkscape:label="Layer 1"
     style="display:none">
    <path
       style="fill:#0000ff;stroke-width:0.99999803"
       d="m 3963.4944,1861.9776 c -16.883,-2.6418 -24.2207,-4.3904 -39.1184,-9.3218 -43.7852,-14.4939 -84.3036,-41.4541 -118.5741,-78.8972 -62.1278,-67.8792 -95.6628,-160.3463 -101.0959,-278.7546 -1.0473,-22.8248 0.2747,-92.2916 2.2076,-115.9996 3.7043,-45.4356 9.9549,-95.659 15.6192,-125.4995 0.522,-2.75 1.8841,-10.175 3.0268,-16.4999 8.566,-47.4115 19.0244,-89.4586 40.4185,-162.4994 9.5229,-32.5117 11.7366,-40.2863 15.0909,-52.9998 9.6849,-36.70795 15.4268,-64.57954 20.3952,-98.99961 5.7569,-39.88284 7.7008,-67.09613 7.7146,-107.99957 0.02,-59.51547 -5.6714,-104.78539 -20.0527,-159.49937 -11.4819,-43.68333 -30.5944,-87.47056 -58.707,-134.49947 -25.9377,-43.39043 -33.5429,-57.78618 -41.2067,-77.9997 -8.4845,-22.37791 -11.6491,-39.18034 -11.7713,-62.49975 -0.2233,-42.60983 14.7813,-81.43698 41.9833,-108.63887 20.3048,-20.30472 41.841,-31.65598 72.0703,-37.98655 11.8916,-2.49029 42.4939,-2.48919 56.4999,0 56.4594,10.04246 111.1965,41.78463 162.5141,94.24222 90.3967,92.40494 141.2348,225.93532 147.6749,387.87978 1.2373,31.11358 0.4568,107.25078 -1.178,114.91035 -0.2452,1.14909 -0.9275,10.18916 -1.516,20.08912 -1.0481,17.62863 -2.4261,33.42117 -5.4536,62.49975 -2.7037,25.9683 -3.5269,33.38207 -4.5524,40.99984 -0.5554,4.12498 -2.5977,19.87492 -4.5385,34.99986 -1.9409,15.12507 -5.0655,38.52497 -6.9437,51.99987 -6.956,49.9048 -7.6256,54.7283 -9.0932,65.4998 -6.0756,44.5948 -11.2453,90.6292 -15.3851,136.9994 -5.9621,66.7823 -5.0221,126.3802 2.6022,164.9994 4.8619,24.6264 14.7485,54.9616 30.1467,92.4996 15.0697,36.7371 23.5578,57.7037 24.2904,59.9998 0.4387,1.375 2.2056,6.325 3.9265,10.9999 3.0914,8.3983 9.177,27.2119 10.9978,33.9999 8.5725,31.9581 10.394,44.7983 10.4263,73.4997 0.028,24.5058 -0.7705,31.9882 -5.0669,47.4998 -13.3954,48.3618 -46.6252,87.5309 -95.4426,112.5016 -40.0802,20.5014 -87.3893,28.8135 -127.9091,22.473 z m 1331.4979,-8.5747 c -39.6665,-4.0134 -78.1917,-24.197 -113.093,-59.2501 -22.899,-22.9985 -41.2486,-48.6615 -58.3816,-81.6497 -4.5704,-8.8 -13.5863,-25.452 -20.0353,-37.0046 -13.558,-24.2875 -20.0698,-37.0541 -25.9156,-50.8077 -8.1692,-19.2196 -17.076,-48.1701 -23.5933,-76.6871 -1.9483,-8.5249 -4.1775,-18.1999 -4.9538,-21.4999 -9.2122,-39.1612 -12.0735,-53.6381 -14.9222,-75.4997 -7.201,-55.2634 -10.5784,-101.9981 -10.564,-146.1791 0.01,-17.7761 -0.4809,-53.4701 -1.0817,-79.32 -2.766,-119.0219 5.9007,-199.3007 29.0061,-268.67924 9.6154,-28.87219 20.5084,-53.11519 34.324,-76.3897 46.085,-77.63779 128.5307,-136.32956 230.8989,-164.37305 60.0787,-16.45844 116.0103,-22.75871 193.3112,-21.77512 45.9654,0.5849 62.1257,2.23619 96.4998,9.86056 105.7074,23.44631 188.2161,105.14379 213.9617,211.85777 5.4238,22.48151 6.5303,33.67147 6.4767,65.49974 -0.044,26.08994 -0.3325,31.62904 -2.2145,42.49984 -5.7233,33.0582 -12.3807,54.529 -24.1999,78.0474 -10.8788,21.647 -21.39,36.313 -38.0141,53.0392 -32.149,32.3468 -73.0551,55.4457 -179.0098,101.0834 -2.475,1.0661 -5.4,2.343 -6.5,2.8377 -1.1,0.4947 -7.175,2.9737 -13.5,5.509 -6.325,2.5351 -12.85,5.2073 -14.5,5.9379 -5.6178,2.4877 -24.9656,9.3599 -37.9999,13.4971 -27.5485,8.7441 -43.7876,15.8095 -52.4681,22.828 -13.9589,11.2861 -29.2128,31.2616 -34.204,44.7912 -1.9324,5.2384 -2.2342,8.4148 -2.595,27.3134 -0.55,28.8128 2.2592,46.7283 9.8311,62.6987 4.7599,10.0391 11.274,17.4058 19.284,21.8079 11.2174,6.1648 15.4816,7.1045 32.152,7.0857 18.3226,-0.021 22.154,-0.9454 54.2973,-13.1045 25.0758,-9.4856 30.7011,-11.3487 43.2026,-14.3084 40.1558,-9.507 82.8528,-9.3198 121.4998,0.5328 43.2929,11.037 72.3361,28.0053 81.5179,47.6266 9.4511,20.1965 5.6393,42.4377 -14.0146,81.7747 -48.126,96.3231 -126.7718,171.754 -234.5031,224.9172 -18.0985,8.9312 -61.8163,27.8284 -79.4998,34.364 -26.9702,9.9679 -49.4691,14.7823 -89.9999,19.2581 -13.628,1.505 -61.5207,2.7685 -70.4999,1.86 z m 141.9998,-786.5088 c 22.2973,-3.0122 48.0126,-13.1414 62.0625,-24.4463 5.7905,-4.6591 14.2393,-13.6113 17.5131,-18.5564 1.5399,-2.326 4.0158,-7.9672 5.502,-12.5358 6.2881,-19.3303 0.1721,-39.2418 -17.5821,-57.24143 -12.811,-12.98805 -25.6712,-20.27012 -49.4955,-28.02679 -34.3565,-11.18576 -60.6537,-14.42024 -82.1532,-10.10466 -24.1281,4.84328 -38.5486,17.98753 -45.0068,41.02334 -1.4377,5.12798 -1.8215,10.08806 -1.8185,23.49991 0,15.87183 0.1918,17.59713 2.8352,25.99993 11.2894,35.8872 37.5843,56.6926 77.6433,61.4336 7.8369,0.9275 18.6361,0.5574 30.5,-1.0454 z M 1571.9982,1825.482 c -13.6314,-1.3337 -24.2768,-2.8485 -31,-4.4112 -2.2,-0.5114 -7.3749,-1.6618 -11.4999,-2.5565 -31.5352,-6.8397 -70.5193,-22.7505 -103.5854,-42.277 -33.3173,-19.6746 -67.2707,-48.1159 -87.6903,-73.4545 -23.3427,-28.9656 -41.3438,-72.1424 -49.521,-118.7792 -7.3433,-41.8804 -9.0814,-64.9389 -9.8751,-130.9995 -0.6901,-57.4503 1.2733,-115.8732 5.7469,-170.9993 3.3989,-41.8819 6.1465,-68.906 10.3707,-101.9996 3.0507,-23.8995 5.0042,-37.2447 10.9127,-74.5461 4.6155,-29.1387 17.8657,-96.0542 24.1484,-121.95315 0.8006,-3.29998 2.8351,-11.84995 4.5212,-18.99992 15.7357,-66.72754 31.4203,-116.26354 47.4943,-149.99941 34.7099,-72.84911 92.1028,-124.12011 154.4775,-137.99986 4.6461,-1.03389 14.1591,-1.86289 25,-2.17879 15.3148,-0.4462 18.8111,-0.2402 28,1.64929 22.0502,4.53419 46.3907,15.03604 67.6305,29.17939 13.1409,8.75056 31.6774,26.74089 39.2608,38.10405 10.0999,15.13404 20.9531,39.12815 30.6431,67.74593 18.3733,54.26139 25.9042,109.51677 21.9431,160.99937 -0.7466,9.70426 -5.1803,51.056 -8.9514,83.4864 -5.1574,44.3527 -5.3705,60.3492 -1.5192,114.0128 0.5132,7.15 1.415,20.65 2.0042,29.9999 0.5892,9.35 1.2702,19.4749 1.5133,22.4999 0.2431,3.025 0.9122,13.825 1.4867,23.9999 0.5746,10.175 1.2535,21.6499 1.5088,25.4999 0.6776,10.2193 2.3073,36.4889 3.4741,55.9998 1.5589,26.0671 1.9764,32.5354 2.4849,38.4999 0.258,3.0249 0.7153,10.4499 1.0165,16.4999 0.3011,6.05 0.7505,13.0249 0.9987,15.4999 0.2482,2.475 0.6969,9 0.9971,14.5 0.5368,9.8344 1.4922,25.3757 3.5041,56.9998 0.5598,8.7999 1.6911,27.0248 2.514,40.4998 0.8228,13.4749 1.9258,31.2499 2.4511,39.4998 0.5253,8.25 1.4329,23.0999 2.0169,32.9999 0.584,9.9 1.7412,27.6749 2.5716,39.4999 2.1504,30.6216 1.4859,74.1168 -1.3828,90.4996 -3.7239,21.2672 -8.6661,37.4106 -15.9196,51.9998 -13.0066,26.1605 -35.5472,42.4181 -72.7747,52.4894 -17.1868,4.6496 -29.4408,6.5279 -55.4719,8.5027 -22.7585,1.7265 -31.7434,1.7241 -49.4999,-0.013 z m 1620.9974,-0.076 c -39.3331,-5.3538 -71.1536,-21.0251 -92.1909,-45.403 -32.6348,-37.8168 -52.7953,-102.3329 -64.2661,-205.6587 -1.9467,-17.535 -3.0088,-28.9431 -9.0156,-96.8401 -1.6543,-18.6999 -3.477,-38.4998 -4.0502,-43.9998 -2.8338,-27.1866 -6.7462,-66.2159 -9.4728,-94.4996 -0.8748,-9.075 -2.0268,-21 -2.56,-26.4999 -0.9671,-9.9757 -3.1255,-34.7119 -4.9301,-56.4998 -1.2558,-15.1626 -2.7668,-36.0868 -3.5023,-48.4998 -0.3259,-5.5 -1.0138,-15.85 -1.5288,-22.9999 -2.1428,-29.7508 -3.1832,-99.3947 -2.0573,-137.7164 3.4226,-116.49514 21.0585,-213.79335 49.5342,-273.28202 16.5056,-34.48236 31.413,-53.05819 61.069,-76.0975 56.0277,-43.52713 99.0496,-61.04026 166.8179,-67.90733 23.3356,-2.36459 62.7667,-2.44349 73.1528,-0.1464 39.8272,8.80856 84.3899,34.71936 108.633,63.16405 24.2683,28.47419 39.6053,58.85837 43.4035,85.98716 2.9352,20.96482 1.0766,59.63857 -5.0461,104.99959 -6.9469,51.4664 -9.1847,74.11211 -10.4748,105.99958 -1.8844,46.57587 -3.7681,80.55677 -6.0147,108.49957 -0.5085,6.325 -1.1942,15.55 -1.5236,20.4999 -0.863,12.9659 -3.1238,37.7557 -6.475,70.9998 -2.77,27.4782 -4.0662,39.1174 -7.4617,66.9997 -2.9433,24.1689 -3.5748,29.1278 -4.5213,35.4999 -0.531,3.5749 -2.5725,18.1999 -4.5367,32.4998 -15.9666,116.243 -33.9137,212.9537 -57.0498,307.4208 -7.0235,28.6776 -8.5326,34.3949 -13.6145,51.5778 -9.9227,33.5506 -21.9537,60.5263 -35.6795,79.9997 -7.7684,11.0214 -25.8028,28.8323 -36.1697,35.7216 -27.8312,18.4951 -60.9734,27.9683 -96.7701,27.6602 -7.5343,-0.065 -18.1988,-0.7304 -23.6988,-1.4789 z m 1401.9978,-0.4207 c -45.4847,-3.0106 -91.1855,-24.9045 -130.3732,-62.458 -24.4106,-23.3927 -47.5663,-56.1096 -63.6084,-89.8732 -12.585,-26.4878 -20.7768,-51.8705 -29.417,-91.1503 -4.2659,-19.3932 -8.5067,-54.1704 -10.6699,-87.4996 -1.9571,-30.1524 -1.6023,-110.3672 0.9687,-218.9992 1.7623,-74.4639 3.3047,-143.2075 4.0834,-181.9993 0.2926,-14.5749 0.7655,-30.9998 1.0508,-36.4998 0.2854,-5.5 1.1714,-43.7499 1.969,-84.9997 0.7976,-41.24984 1.6827,-79.72468 1.9668,-85.49966 0.284,-5.77498 0.7597,-19.94992 1.057,-31.49988 2.3359,-90.74374 9.138,-152.8766 22.9898,-209.99917 5.7844,-23.85391 10.4616,-39.13645 20.0462,-65.49974 5.4397,-14.96265 23.6306,-54.72459 35.6844,-77.9997 39.4707,-76.2159 48.4492,-90.72394 68.7272,-111.05496 12.309,-12.34105 20.3856,-18.24593 34.6175,-25.3093 23.183,-11.50576 55.4473,-18.02383 88.9077,-17.96123 75.5948,0.1416 145.644,46.57542 183.0293,121.32562 9.954,19.90282 16.0255,38.69645 21.1603,65.49974 2.5106,13.10485 2.4707,53.95979 -0.066,67.99974 -4.7748,26.42289 -12.3416,48.32951 -29.8781,86.49966 -25.2593,54.97978 -34.3944,77.96539 -45.1076,113.49955 -31.0825,103.09689 -39.335,215.81323 -24.5632,335.49873 2.9768,24.1196 5.1441,37.9055 10.4543,66.4997 2.467,13.2836 10.0075,47.2461 13.5435,60.9998 1.6968,6.5999 3.5057,13.7041 4.0198,15.787 0.8439,3.4196 4.9729,18.0124 8.4072,29.7128 6.8454,23.3219 22.0613,68.228 28.4624,84.0005 1.2275,3.0245 2.8267,7.0741 3.5537,8.9991 2.563,6.7864 10.6438,26.5783 13.4733,32.9999 23.8789,54.1929 29.1811,80.4737 24.5125,121.4995 -4.7513,41.7528 -19.8666,90.5315 -40.1193,129.4696 -37.2038,71.528 -97.4905,120.1254 -166.8574,134.5045 -16.8577,3.4944 -34.3763,4.6754 -52.0243,3.5073 z m -4074.99346,-19.067 c -68.32239,-6.1452 -120.27161,-40.4342 -159.14765,-105.0451 -18.02707,-29.9602 -33.09215,-65.0871 -53.33902,-124.3694 -6.63469,-19.426 -17.13737,-48.5358 -23.99286,-66.4997 -39.45894,-103.3973 -53.78651,-148.8353 -64.956,-205.9992 -2.20299,-11.275 -4.71109,-23.6499 -5.57339,-27.4999 -0.8624,-3.85 -1.95259,-8.8 -2.42279,-10.9999 -0.4702,-2.2 -2.7569,-12.1 -5.0816,-22 -5.57259,-23.7311 -6.70019,-28.669 -8.44908,-36.9998 -0.8083,-3.8502 -2.3668,-11.2752 -3.4634,-16.5001 -6.52809,-31.1039 -10.36158,-61.0085 -11.60108,-90.4997 -0.8181,-19.4628 -2.2029,-38.9524 -4.93819,-69.4997 -1.3543,-15.125 -2.9269,-32.8999 -3.4946,-39.4999 -0.56759,-6.59995 -1.59629,-18.2999 -2.28599,-25.99987 -1.959,-21.87301 -1.6638,-83.74677 0.4795,-100.50561 8.02638,-62.76095 24.30616,-101.96839 55.55421,-133.79447 35.26044,-35.91266 81.43567,-63.91455 119.71221,-72.59651 16.59977,-3.76529 37.45254,-4.88698 49.25162,-2.64929 22.15127,4.20088 49.71002,13.63224 68.2482,23.3565 46.85382,24.57721 81.01707,64.91065 97.99184,115.69005 9.35309,27.97929 10.83218,40.19764 11.98428,98.99961 1.4159,72.26602 3.3669,99.66189 8.68839,121.99949 2.99599,12.576 6.36959,19.9449 10.98688,23.9989 6.49569,5.7033 13.25748,3.061 25.74375,-10.0599 20.33105,-21.3644 33.8815,-46.92284 43.6033,-82.243 7.08718,-25.7483 14.63114,-58.72507 21.54868,-94.19533 7.58524,-38.89405 13.22525,-63.63415 19.60535,-85.99966 4.20379,-14.73654 6.14785,-22.25141 16.42691,-63.49975 5.825,-23.37491 11.18199,-44.74983 11.9044,-47.49982 26.66174,-101.4925 53.77711,-175.7495 80.32297,-219.96923 12.00987,-20.00592 22.62094,-32.84087 34.6926,-41.96363 31.77896,-24.01601 82.24082,-33.21427 140.49978,-25.6105 53.99664,7.04737 102.20914,25.79609 124.52154,48.42341 38.6916,39.23794 55.506,122.34841 48.9843,242.11994 -1.7897,32.86807 -3.4648,54.91729 -8.0908,106.49958 -5.3836,60.02967 -19.6625,150.63831 -32.4632,205.99919 -1.081,4.67498 -2.6656,11.64996 -3.5214,15.49994 -4.0078,18.03036 -14.6033,59.30246 -20.9228,81.49966 -21.3183,74.8803 -46.2562,144.3422 -78.8032,219.4992 -25.63216,59.1894 -63.23652,132.1019 -97.21772,188.4992 -19.369,32.146 -20.68153,34.286 -27.29301,44.4999 -11.96222,18.48 -15.57723,23.919 -28.57958,42.9998 -72.35017,106.1731 -126.93095,164.6828 -187.88517,201.4098 -51.29842,30.9091 -107.24696,45.5003 -157.22818,41.0046 z m 1831.26256,0.052 c -51.4082,-4.3127 -89.2207,-23.0555 -127.206,-63.0528 -50.5249,-53.2009 -91.9206,-118.5523 -126.3154,-199.4135 -18.5534,-43.6184 -41.1653,-108.5394 -59.2104,-169.9994 -2.0993,-7.1499 -5.4754,-18.6249 -7.5024,-25.4999 -2.027,-6.8749 -6.5493,-22.3999 -10.0496,-34.4998 -10.5003,-36.2982 -15.1335,-50.7366 -26.4737,-82.4997 -17.6925,-49.5562 -36.0167,-104.282 -42.524,-126.9995 -0.709,-2.475 -3.7568,-13.05 -6.773,-23.4999 -11.6071,-40.2145 -19.9951,-77.8287 -24.6415,-110.49959 -3.5326,-24.8393 -4.2223,-34.19787 -4.1945,-56.91838 0.048,-39.01615 5.2238,-63.75745 19.1594,-91.58104 7.194,-14.36324 15.0762,-25.5908 28.4939,-40.58664 43.6158,-48.74611 92.3716,-73.89121 143.4177,-73.96561 15.5163,-0.023 25.1522,1.1112 40.0543,4.71298 58.6192,14.16825 114.019,55.32679 154.5748,114.83925 13.703,20.10792 20.6789,34.74487 30.7404,64.49975 4.0697,12.03535 7.4037,22.94531 20.3218,66.49974 4.5665,15.39634 8.7523,27.91139 12.4415,37.19834 5.9603,15.0042 12.7034,25.8677 14.7739,23.8014 3.3404,-3.3336 12.8775,-34.25525 23.2861,-75.49969 14.6049,-57.87187 19.5477,-72.86731 32.3881,-98.25591 17.7787,-35.15306 50.2757,-79.89659 71.4728,-98.40701 8.4421,-7.37207 22.6134,-17.82683 32.9172,-24.28431 34.5181,-21.63301 66.314,-29.05638 118.9122,-27.76249 39.9372,0.9824 62.7727,6.61608 84.0095,20.72572 8.3114,5.52208 22.4421,18.98553 28.8469,27.48479 12.5225,16.61744 24.8992,44.92043 32.1409,73.49971 14.2743,56.33238 20.1855,105.44939 20.1584,167.49934 -0.021,48.56265 -3.2125,86.21815 -11.5685,136.49945 -6.06,36.4659 -9.028,50.2903 -20.8455,97.096 -7.0395,27.8815 -10.5072,42.7695 -19.659,84.4033 -2.1761,9.9 -5.0956,22.9499 -6.4877,28.9999 -4.0058,17.4092 -5.1677,22.4937 -6.9698,30.4999 -26.4123,117.3409 -59.3397,201.0494 -106.0091,269.4989 -17.2792,25.3432 -33.8098,50.2641 -40.4098,60.9205 -4.0607,6.5564 -10.7643,16.0063 -14.8969,20.9999 -10.041,12.1331 -41.4261,43.4129 -52.6388,52.4623 -13.7558,11.1017 -36.5222,21.5639 -64.3622,29.5771 -19.4107,5.5869 -30.2246,7.2721 -70.1376,10.9303 -11.6857,1.071 -49.0104,1.4344 -59.2344,0.5766 z M 5245.4924,580.37404 c -1.375,-0.1986 -6.55,-0.8569 -11.5,-1.46269 -43.8353,-5.36538 -72.646,-24.97571 -85.5622,-58.23917 -5.7594,-14.83235 -7.3155,-24.30711 -7.2532,-44.16423 0.052,-16.71964 0.2727,-18.83253 3.0967,-29.70428 3.7161,-14.30605 11.443,-30.49818 20.8995,-43.79543 8.9527,-12.58895 31.2325,-34.78077 42.8193,-42.65023 23.364,-15.86844 41.6095,-23.15551 75.9998,-30.35378 14.7826,-3.09419 42.528,-9.50517 63.3076,-14.62825 25.0598,-6.17827 56.8314,-17.81153 98.1922,-35.95356 31.1764,-13.67484 62.0375,-31.58687 88.4998,-51.36609 15.442,-11.54206 19.4358,-13.93815 29.9772,-17.98493 6.4375,-2.47139 9.48,-3.06239 15.7636,-3.06239 4.2825,0 8.5677,0.3915 9.5228,0.8699 0.955,0.47849 3.9467,1.85799 6.648,3.06558 18.216,8.14277 28.4583,29.51819 28.5534,59.59047 0.1142,36.09106 -10.658,70.46072 -37.2886,118.97333 -20.8032,37.89665 -42.9949,61.93236 -95.6763,103.62669 -22.5676,17.86093 -37.2443,28.07699 -57.4999,40.02415 -20.6155,12.15935 -36.713,19.28712 -63.9999,28.33818 -31.2038,10.35036 -50.4994,14.76635 -78.4999,17.96543 -11.9363,1.3637 -39.1373,1.9026 -45.9999,0.9113 z M 1582.9982,553.04095 c -38.0971,-4.56398 -70.0333,-19.52863 -95.0078,-44.51843 -20.658,-20.67072 -33.1699,-43.76062 -39.7369,-73.33171 -2.9141,-13.12215 -3.1392,-40.67804 -0.4304,-52.68249 1.8825,-8.34257 4.2164,-16.58064 5.666,-19.99992 9.2364,-21.78582 21.3044,-37.79155 37.9534,-50.3369 17.6625,-13.30895 43.4124,-23.27401 74.5557,-28.85239 14.3223,-2.56539 52.8297,-2.54959 66.9999,0.028 46.2943,8.41937 83.807,26.88729 111.9998,55.13888 11.5012,11.52526 16.0159,18.02173 20.3484,29.28129 2.3441,6.09187 2.5894,8.04266 2.5449,20.24152 -0.058,15.99263 -1.3383,20.98531 -12.5297,48.8718 -19.7153,49.12621 -34.8351,72.59622 -57.5317,89.30445 -15.2419,11.22046 -37.8918,20.13062 -63.3317,24.91391 -11.8933,2.23609 -40.1518,3.30208 -51.4999,1.94259 z m 1645.9974,-24.65181 c -26.4721,-1.59879 -57.2377,-9.35076 -78.9999,-19.90552 -17.2551,-8.36866 -29.4245,-19.32512 -36.2351,-32.62347 -7.9667,-15.55544 -9.5623,-31.56677 -7.2598,-72.85191 3.4211,-61.34336 14.2455,-92.31044 41.8635,-119.76513 18.0971,-17.99023 44.3595,-34.16207 70.6313,-43.49333 37.8123,-13.43035 80.3113,-14.21744 116.1528,-2.15129 15.8338,5.33048 38.8714,18.76272 51.8469,30.22978 45.9801,40.63444 62.9571,101.755 42.9949,154.78969 -12.0366,31.97808 -42.2588,61.28696 -84.8615,82.29698 -21.8533,10.77715 -43.6311,17.50623 -69.6332,21.51551 -9.7585,1.5047 -35.8318,2.60299 -46.4999,1.95869 z"
       id="path97-2"
       inkscape:connector-curvature="0" />
  </g>
  <g
     inkscape:groupmode="layer"
     id="layer2"
     inkscape:label="Layer 2"
     style="display:inline">
    <g
       id="g2335">
      <path
         style="fill:#000000"
         d="m 5601.8679,76.891481 c -6.2836,0 -9.3261,0.59116 -15.7636,3.0625 -10.5414,4.04681 -14.5346,6.44421 -29.9766,17.98632 -26.4624,19.779319 -57.3235,37.690369 -88.5,51.365239 -41.3609,18.14205 -73.1336,29.77679 -98.1934,35.95508 -20.7797,5.12309 -48.524,11.53278 -63.3066,14.62695 -34.3904,7.19834 -52.6359,14.48508 -76,30.35352 -11.5868,7.86955 -33.8676,30.06143 -42.8203,42.65039 -9.4565,13.29737 -17.1824,29.49077 -20.8985,43.79687 -2.824,10.87183 -3.0456,12.98348 -3.0976,29.70313 -0.062,19.85724 1.4945,29.33369 7.2539,44.16601 12.9163,33.26364 41.7271,52.87293 85.5625,58.23828 4.95,0.60587 10.125,1.26427 11.5,1.46289 6.8626,0.9913 34.0637,0.45161 46,-0.91211 28.0005,-3.19907 47.2961,-7.61446 78.5,-17.96484 27.2869,-9.05112 43.3845,-16.17845 64,-28.33789 20.2556,-11.94716 34.9324,-22.16244 57.5,-40.02344 52.6815,-41.69445 74.8726,-65.7321 95.6758,-103.6289 26.6307,-48.51277 37.4032,-82.88149 37.289,-118.97266 -0.095,-30.07243 -10.3367,-51.449009 -28.5527,-59.591799 -2.7014,-1.20759 -5.6934,-2.58597 -6.6484,-3.06445 -0.9551,-0.47848 -5.241,-0.87109 -9.5235,-0.87109 z"
         id="path2860"
         inkscape:connector-curvature="0" />
      <path
         style="fill:#000000"
         d="m 3303.6589,98.965701 c -21.0323,-0.0331 -42.4434,3.533099 -62.5312,10.667959 -26.2718,9.3313 -52.5338,25.50194 -70.6309,43.49219 -27.618,27.45484 -38.4441,58.42209 -41.8652,119.76563 -2.3025,41.28533 -0.7069,57.298 7.2598,72.85351 6.8107,13.29837 18.9812,24.25428 36.2363,32.62305 21.7622,10.55474 52.5279,18.30744 79,19.90625 10.6681,0.64431 36.7415,-0.45428 46.5,-1.95899 26.0021,-4.00938 47.7795,-10.7384 69.6328,-21.51562 42.6028,-21.01006 72.8247,-50.31871 84.8613,-82.29688 19.9623,-53.03494 2.986,-114.15637 -42.9941,-154.79101 -12.9756,-11.46706 -36.0139,-24.89998 -51.8477,-30.23047 -16.8007,-5.65602 -35.0631,-8.486389 -53.6211,-8.515619 z"
         id="path2858"
         inkscape:connector-curvature="0" />
      <path
         style="fill:#000000"
         d="m 3841.0847,101.39929 c -10.8878,-3.9e-4 -21.5112,0.62203 -27.457,1.86719 -30.2293,6.33057 -51.7655,17.6815 -72.0703,37.98632 -27.202,27.20199 -42.2077,66.02869 -41.9844,108.63868 0.1222,23.31956 3.287,40.12203 11.7715,62.5 7.6639,20.2136 15.2693,34.60941 41.207,78 14.6275,24.47003 26.797,48.05807 36.7442,71.21484 h 376.375 c -21.876,-106.74815 -66.8489,-196.44488 -133.0293,-264.0957 -51.3177,-52.45787 -106.0542,-84.19971 -162.5137,-94.24219 -7.003,-1.24561 -18.1552,-1.86875 -29.043,-1.86914 z"
         id="path3369"
         inkscape:connector-curvature="0" />
      <path
         style="fill:#000000"
         d="m 3789.7214,462.60632 c 8.9686,21.00357 16.1155,41.6583 21.5372,62.28516 14.3813,54.71426 20.0727,99.98429 20.0527,159.5 -0.014,40.9036 -1.958,68.11707 -7.7149,108 -4.9684,34.42021 -10.7096,62.29189 -20.3945,99 -3.3543,12.71347 -5.5689,20.48818 -15.0918,53 -13.5323,46.20009 -22.6816,79.99112 -29.7519,110.59182 h 379.0879 c 2.8831,-26.5331 6.0829,-52.8078 9.5957,-78.59182 1.4676,-10.7715 2.1377,-15.59494 9.0937,-65.5 1.8783,-13.475 5.0025,-36.875 6.9434,-52 1.9408,-15.125 3.9817,-30.875 4.5371,-35 1.0255,-7.61788 1.849,-15.03159 4.5527,-41 3.0275,-29.07872 4.407,-44.87132 5.4551,-62.5 0.5885,-9.9 1.2704,-18.93883 1.5156,-20.08789 1.6348,-7.65967 2.4149,-83.79847 1.1778,-114.91211 -1.7106,-43.01238 -6.5538,-84.01981 -14.4376,-122.78516 z"
         id="path2856"
         inkscape:connector-curvature="0" />
      <path
         style="fill:#000000"
         d="m 1621.6843,151.28796 c -13.1884,-0.005 -26.3955,0.63136 -33.5566,1.91406 -31.1433,5.57837 -56.8941,15.54444 -74.5566,28.85352 -16.649,12.54539 -28.7168,28.55003 -37.9532,50.33594 -1.4496,3.4193 -3.7835,11.65742 -5.666,20 -2.7088,12.00454 -2.4844,39.56138 0.4297,52.68359 6.567,29.57122 19.0802,52.66121 39.7383,73.33203 24.9745,24.98994 56.9107,39.95546 95.0078,44.51953 11.3481,1.35951 39.6067,0.29283 51.5,-1.94336 25.4399,-4.78326 48.0901,-13.6936 63.332,-24.91406 22.6966,-16.70828 37.816,-40.17827 57.5313,-89.30469 11.1914,-27.88659 12.4713,-32.88034 12.5293,-48.87304 0.044,-12.19892 -0.2008,-14.14842 -2.5449,-20.24024 -4.3325,-11.25963 -8.8465,-17.75601 -20.3477,-29.28125 -28.1929,-28.25172 -65.7056,-46.72123 -112,-55.14062 -7.0851,-1.28856 -20.2549,-1.936 -33.4434,-1.94141 z"
         id="path2854"
         inkscape:connector-curvature="0" />
      <path
         style="fill:#000000"
         d="m 4665.1277,216.56726 c -33.4604,-0.0627 -65.7252,6.4551 -88.9082,17.96094 -14.2319,7.06336 -22.3082,12.96751 -34.6172,25.30859 -20.2781,20.33109 -29.2577,34.84049 -68.7285,111.05664 -12.0538,23.2752 -30.2439,63.03738 -35.6836,78 -1.6591,4.56365 -3.1291,8.71139 -4.5254,12.71289 h 437.7012 c 1.3512,-17.96888 1.0143,-47.44518 -1.0488,-58.21289 -5.1348,-26.80338 -11.2061,-45.5971 -21.1602,-65.5 -37.3853,-74.75045 -107.4343,-121.18461 -183.0293,-121.32617 z"
         id="path3373"
         inkscape:connector-curvature="0" />
      <path
         style="fill:#000000"
         d="m 4432.3172,462.60632 c -6.4623,18.60041 -10.4749,32.40918 -15.1739,51.78711 -13.8519,57.12281 -20.6524,119.25592 -22.9883,210 -0.2973,11.55 -0.7746,25.725 -1.0586,31.5 -0.2841,5.775 -1.1692,44.25 -1.9668,85.5 -0.7974,41.25 -1.6833,79.5 -1.9687,85 -0.2853,5.5 -0.7582,21.925 -1.0508,36.5 -0.4433,22.08454 -1.1678,55.06087 -2.0058,92.08987 h 390.7148 c -3.0555,-17.3968 -4.8576,-29.7811 -7.1172,-48.0899 -14.7718,-119.68586 -6.5181,-232.40265 24.5645,-335.49997 10.7132,-35.53429 19.8481,-58.52001 45.1074,-113.5 17.5366,-38.17031 25.1021,-60.07695 29.8769,-86.5 0.4123,-2.28183 0.7511,-5.32294 1.0313,-8.78711 z"
         id="path2852"
         inkscape:connector-curvature="0" />
      <path
         style="fill:#000000"
         d="m 973.62772,235.2489 c -42.4429,-0.27172 -78.6727,9.44646 -103.5,28.20898 -12.0717,9.12281 -22.6835,21.9589 -34.6934,41.96485 -20.6201,34.34883 -41.5825,86.90062 -62.4101,156.18359 h 412.23438 c -2.1388,-84.1688 -19.0828,-143.86926 -50.1094,-175.33398 -22.3123,-22.62745 -70.5247,-41.37639 -124.5215,-48.42383 -12.74418,-1.66332 -25.11598,-2.52353 -36.99998,-2.59961 z"
         id="path3377"
         inkscape:connector-curvature="0" />
      <path
         style="fill:#000000"
         d="m 772.72342,462.60632 c -5.8851,19.62344 -11.7591,40.50757 -17.6113,62.78516 -0.7224,2.75 -6.07931,24.125 -11.90432,47.5 -10.27909,41.2485 -12.22394,48.76347 -16.42774,63.5 -6.38011,22.36564 -12.02022,47.10587 -19.60547,86 -6.91755,35.47042 -14.46164,68.44881 -21.54883,94.19726 -9.72182,35.32028 -23.27243,60.87769 -43.60351,82.24219 -12.48631,13.12097 -19.24847,15.76383 -25.74414,10.06055 -4.61737,-4.0541 -7.99034,-11.42402 -10.98633,-24 -5.32152,-22.33765 -7.2716,-49.73368 -8.6875,-122 -1.1521,-58.80214 -2.6313,-71.02056 -11.98438,-99 -16.97481,-50.7796 -51.13827,-91.11215 -97.99218,-115.68946 -18.53819,-9.72424 -46.09673,-19.15651 -68.24805,-23.35742 -11.7991,-2.23765 -32.65209,-1.11485 -49.25195,2.65039 -38.27652,8.68202 -84.45242,36.68288 -119.71289,72.59571 -31.24807,31.82618 -47.52821,71.03373 -55.55469,133.79492 -2.14328,16.75889 -2.43752,78.63275 -0.47852,100.50586 0.68962,7.7 1.71749,19.4 2.28516,26 0.56767,6.6 2.1398,24.375 3.49414,39.5 2.73532,30.54735 4.1214,50.03711 4.93945,69.5 1.17419,27.9358 4.67895,56.24602 10.59375,85.59182 h 866.54098 c 14.0668,-38.6131 26.5091,-77.08008 37.9004,-117.09182 6.3195,-22.19729 16.9141,-63.46963 20.9219,-81.5 0.8558,-3.85 2.4406,-10.825 3.5215,-15.5 12.8007,-55.36102 27.0792,-145.97007 32.4629,-206 4.626,-51.58242 6.3021,-73.63174 8.0918,-106.5 1.2711,-23.346 1.6436,-45.27848 1.1523,-65.78516 z"
         id="path2850"
         inkscape:connector-curvature="0" />
      <path
         style="fill:#000000"
         d="m 3340.407,497.5653 c -14.073,0.0282 -29.7638,0.63995 -41.4316,1.82227 -67.7684,6.86709 -110.7906,24.37898 -166.8184,67.90625 -29.656,23.03939 -44.5646,41.61718 -61.0703,76.09961 -28.4757,59.4889 -46.1106,156.78568 -49.5332,273.28125 -1.1259,38.32179 -0.086,107.96792 2.0566,137.71872 0.013,0.1741 0.028,0.4122 0.041,0.5899 h 471.4141 c 3.0936,-30.9015 5.2169,-54.2376 6.0391,-66.58987 0.3294,-4.95 1.0149,-14.175 1.5234,-20.5 2.2466,-27.94286 4.1312,-61.92404 6.0156,-108.5 1.2901,-31.88755 3.5277,-54.53341 10.4746,-106 6.1228,-45.36115 7.9821,-84.03502 5.0469,-105 -3.7983,-27.12885 -19.136,-57.51401 -43.4043,-85.98828 -24.2432,-28.44483 -68.8055,-54.35538 -108.6328,-63.16406 -5.1931,-1.14856 -17.6477,-1.70397 -31.7207,-1.67579 z"
         id="path2848"
         inkscape:connector-curvature="0" />
      <path
         style="fill:#000000"
         d="m 1593.1707,544.01648 c -2.625,0.0139 -5.7143,0.0857 -9.543,0.19726 -10.8409,0.31585 -20.3539,1.14387 -25,2.17774 -62.3748,13.87983 -119.7685,65.15067 -154.4785,138 -16.074,33.73601 -31.7584,83.27219 -47.4942,150 -1.6861,7.15 -3.7208,15.7 -4.5214,19 -6.2827,25.89899 -19.533,92.81626 -24.1485,121.95508 -5.9085,37.30164 -7.8614,50.64524 -10.9121,74.54494 -0.221,1.7311 -0.4235,3.3909 -0.6367,5.0918 H 1761.7 c -0.3969,-5.9663 -0.7849,-11.6969 -1.0645,-15.5918 -3.8513,-53.6638 -3.6398,-69.65887 1.5176,-114.01174 3.7711,-32.43051 8.2046,-73.78392 8.9512,-83.48828 3.9611,-51.48277 -3.5681,-106.73836 -21.9414,-161 -9.6901,-28.61788 -20.5447,-52.61194 -30.6446,-67.7461 -7.5834,-11.3632 -26.1187,-29.35292 -39.2597,-38.10351 -21.2398,-14.14348 -45.5806,-24.64545 -67.6309,-29.17969 -6.8917,-1.41715 -10.582,-1.88745 -18.457,-1.8457 z"
         id="path2846"
         inkscape:connector-curvature="0" />
      <path
         style="fill:#000000"
         d="m 2671.8328,564.04187 c -46.9593,-0.17133 -76.9283,7.62136 -109.2891,27.90234 -10.3038,6.45751 -24.4739,16.91305 -32.916,24.28516 -21.1971,18.51053 -53.694,63.25308 -71.4727,98.40625 -12.8404,25.38876 -17.7837,40.38574 -32.3886,98.25781 -10.4086,41.24465 -19.9467,72.16635 -23.2871,75.5 -2.0705,2.06625 -8.8132,-8.7985 -14.7735,-23.80273 -3.6892,-9.28697 -7.8749,-21.80081 -12.4414,-37.19727 -12.9181,-43.55452 -16.2525,-54.46453 -20.3222,-66.5 -10.0616,-29.75496 -17.0373,-44.39192 -30.7403,-64.5 -40.5559,-59.51268 -95.9549,-100.67153 -154.5742,-114.83984 -14.9021,-3.60184 -24.5384,-4.7355 -40.0547,-4.71289 -51.0462,0.0744 -99.8021,25.2185 -143.418,73.96484 -13.4177,14.99592 -21.3001,26.2246 -28.4941,40.58789 -13.9356,27.82369 -19.1102,52.56382 -19.1582,91.58008 -0.028,22.72059 0.6608,32.08055 4.1934,56.91992 4.6464,32.67103 13.0354,70.28538 24.6425,110.5 3.0162,10.45 6.0625,21.025 6.7715,23.5 4.5115,15.75013 14.7418,46.95837 26.4649,81.08987 h 821.5351 c 5.7207,-23.9318 8.5299,-38.5904 12.9336,-65.08987 8.356,-50.28154 11.5474,-87.93717 11.5684,-136.5 0.027,-62.05016 -5.8839,-111.16737 -20.1582,-167.5 -7.2418,-28.57933 -19.6182,-56.88248 -32.1407,-73.5 -6.4048,-8.49931 -20.5343,-21.96421 -28.8457,-27.48633 -21.2369,-14.10972 -44.0724,-19.7422 -84.0097,-20.72461 -3.2874,-0.0809 -6.4944,-0.1292 -9.625,-0.14062 z"
         id="path2844"
         inkscape:connector-curvature="0" />
      <path
         style="fill:#000000"
         d="m 5517.8777,564.07507 c -70.0589,-0.0581 -122.7386,6.44318 -179.0625,21.87305 -102.3683,28.04366 -184.8133,86.73491 -230.8984,164.37304 -13.8156,23.27455 -24.7089,47.51832 -34.3243,76.39063 -20.3882,61.22007 -29.5274,130.94664 -29.4961,228.27151 h 704.0196 c 14.4407,-9.754 25.9635,-19.381 36.5215,-30.0039 16.6241,-16.7264 27.1348,-31.39202 38.0136,-53.03909 11.8192,-23.51857 18.4779,-44.9905 24.2012,-78.04883 1.882,-10.87084 2.1689,-16.40999 2.2129,-42.5 0.054,-31.82837 -1.0528,-43.01833 -6.4766,-65.5 -25.7456,-106.71441 -108.2534,-188.41104 -213.9609,-211.85743 -34.3742,-7.62434 -50.5345,-9.2764 -96.5,-9.86132 -4.8313,-0.0615 -9.5794,-0.0938 -14.25,-0.0977 z"
         id="path2842"
         inkscape:connector-curvature="0" />
      <path
         style="fill:#000000"
         d="m 5416.6355,784.04773 c 17.0614,0.30412 36.8721,4.23554 60.4922,11.92578 23.8244,7.75676 36.6851,15.03925 49.4961,28.02734 17.7542,17.99971 23.8701,37.90995 17.582,57.24024 -1.4862,4.56871 -3.962,10.21107 -5.5019,12.53711 -3.2738,4.94516 -11.7232,13.89745 -17.5137,18.55664 -14.0499,11.30489 -39.7652,21.43307 -62.0625,24.44531 -11.8639,1.60275 -22.6631,1.97439 -30.5,1.04687 -40.0591,-4.74109 -66.3551,-25.54811 -77.6445,-61.43554 -2.6434,-8.40279 -2.834,-10.12806 -2.834,-26 0,-13.41183 0.3806,-18.37195 1.8183,-23.5 6.4582,-23.03585 20.8778,-36.18014 45.0059,-41.02344 6.7186,-1.34865 13.9069,-1.95855 21.6621,-1.82031 z"
         id="path2840"
         inkscape:connector-curvature="0" />
      <circle
         id="Ellipse_1_kopi_11-7"
         data-name="Ellipse 1 kopi 11"
         class="cls-2"
         cx="607.39008"
         cy="1134.6854"
         r="50"
         style="fill:#cf2e2e" />
      <circle
         id="Ellipse_1_kopi_12-0"
         data-name="Ellipse 1 kopi 12"
         class="cls-2"
         cx="448.6752"
         cy="1279.0029"
         r="50"
         style="fill:#cf2e2e" />
      <circle
         id="Ellipse_1_kopi_13-4"
         data-name="Ellipse 1 kopi 13"
         class="cls-2"
         cx="838.6391"
         cy="1113.1115"
         r="50"
         style="fill:#cf2e2e" />
      <circle
         id="Ellipse_1_kopi_14-6"
         data-name="Ellipse 1 kopi 14"
         class="cls-2"
         cx="738.6391"
         cy="1340.1112"
         r="50"
         style="fill:#cf2e2e" />
      <circle
         id="Ellipse_1_kopi_15-5"
         data-name="Ellipse 1 kopi 15"
         class="cls-2"
         cx="588.6391"
         cy="1509.1112"
         r="50"
         style="fill:#cf2e2e" />
      <circle
         id="Ellipse_1_kopi_7-44"
         data-name="Ellipse 1 kopi 7"
         class="cls-2"
         cx="1567.6395"
         cy="1440.1112"
         r="50"
         style="fill:#cf2e2e" />
      <circle
         id="Ellipse_1_kopi_6-20"
         data-name="Ellipse 1 kopi 6"
         class="cls-2"
         cx="1517.6395"
         cy="1203.1115"
         r="50"
         style="fill:#cf2e2e" />
      <circle
         id="Ellipse_1_kopi_7-2-2"
         data-name="Ellipse 1 kopi 7"
         class="cls-2"
         cx="2409.6394"
         cy="1490.1112"
         r="50"
         style="fill:#cf2e2e" />
      <circle
         id="Ellipse_1_kopi_6-2-3"
         data-name="Ellipse 1 kopi 6"
         class="cls-2"
         cx="2246.6394"
         cy="1290.1112"
         r="50"
         style="fill:#cf2e2e" />
      <circle
         id="Ellipse_1_kopi_9-8"
         data-name="Ellipse 1 kopi 9"
         class="cls-2"
         cx="2582.6394"
         cy="1290.1112"
         r="50"
         style="fill:#cf2e2e" />
      <circle
         id="Ellipse_1_kopi_7-3-3"
         data-name="Ellipse 1 kopi 7"
         class="cls-2"
         cx="3250.6394"
         cy="1409.1112"
         r="50"
         style="fill:#cf2e2e" />
      <circle
         id="Ellipse_1_kopi_6-3-2"
         data-name="Ellipse 1 kopi 6"
         class="cls-2"
         cx="3250.6394"
         cy="1163.1115"
         r="50"
         style="fill:#cf2e2e" />
      <circle
         id="Ellipse_1_kopi_7-4-7"
         data-name="Ellipse 1 kopi 7"
         class="cls-2"
         cx="4638.6382"
         cy="1490.1112"
         r="50"
         style="fill:#cf2e2e" />
      <circle
         id="Ellipse_1_kopi_6-4-0"
         data-name="Ellipse 1 kopi 6"
         class="cls-2"
         cx="4588.6382"
         cy="1240.1115"
         r="50"
         style="fill:#cf2e2e" />
      <circle
         id="Ellipse_1_kopi_7-5-2"
         data-name="Ellipse 1 kopi 7"
         class="cls-2"
         cx="5232.6382"
         cy="1353.1112"
         r="50"
         style="fill:#cf2e2e" />
      <circle
         id="Ellipse_1_kopi_6-5-0"
         data-name="Ellipse 1 kopi 6"
         class="cls-2"
         cx="5382.6382"
         cy="1540.1112"
         r="50"
         style="fill:#cf2e2e" />
      <circle
         id="Ellipse_1_kopi_5-5-1"
         data-name="Ellipse 1 kopi 5"
         class="cls-2"
         cx="5617.6382"
         cy="1440.1112"
         r="50"
         style="fill:#cf2e2e" />
      <circle
         id="Ellipse_1_kopi_18-1"
         data-name="Ellipse 1 kopi 18"
         class="cls-2"
         cx="3994.6384"
         cy="1540.1112"
         r="50"
         style="fill:#cf2e2e" />
      <circle
         id="Ellipse_1_kopi_7-6-6"
         data-name="Ellipse 1 kopi 7"
         class="cls-2"
         cx="3944.6384"
         cy="1309.1112"
         r="50"
         style="fill:#cf2e2e" />
      <path
         style="display:inline;fill:#000000"
         d="m 216.27812,1054.9833 c 0.1464,0.7096 0.2864,1.4162 0.4356,2.127 1.0966,5.225 2.6546,12.6517 3.4629,16.5019 1.7039,8.1167 2.7082,12.5295 8.4296,37.0001 3.9435,16.8662 5.8959,25.4206 7.9825,35 0.4792,2.2 2.7274,13.45 4.9961,25 11.3959,58.0177 25.5425,102.912 65.0742,206.5 6.8555,17.964 17.3594,47.0739 23.9941,66.5 20.247,59.2825 35.3109,94.4087 53.3379,124.3691 38.8761,64.6111 90.826,98.8996 159.1484,105.0449 49.9813,4.4957 105.9301,-10.0947 157.2286,-41.0039 60.9543,-36.7271 115.5344,-95.2386 187.8847,-201.4121 13.0024,-19.0809 16.6179,-24.5199 28.5801,-43 6.6115,-10.2139 7.9239,-12.3539 27.2929,-44.5 33.9813,-56.3975 71.58658,-129.3103 97.21878,-188.5 14.7383,-34.0336 27.9024,-66.897 39.8906,-99.627 z"
         id="path2802"
         inkscape:connector-curvature="0" />
      <path
         style="display:inline;fill:#000000"
         d="m 1317.1023,1054.9833 c -3.6758,29.6406 -6.2647,55.6322 -9.3887,94.127 -4.4737,55.1263 -6.4362,113.5495 -5.7461,171 0.7937,66.0608 2.5317,89.1194 9.875,131 8.1772,46.637 26.1788,89.8156 49.5215,118.7812 20.4197,25.3388 54.3721,53.7804 87.6895,73.4551 33.0661,19.5265 72.0507,35.4357 103.5859,42.2754 4.125,0.8947 9.3,2.0453 11.5,2.5567 6.7232,1.5627 17.3686,3.0784 31,4.4121 17.7565,1.7372 26.7415,1.7383 49.5,0.012 26.0311,-1.9748 38.2858,-3.8524 55.4727,-8.502 37.2275,-10.0713 59.7668,-26.3296 72.7734,-52.4902 7.2535,-14.5892 12.196,-30.7327 15.9199,-52 2.8687,-16.3829 3.5332,-59.8782 1.3828,-90.5 -0.8304,-11.825 -1.9882,-29.6 -2.5722,-39.5 -0.584,-9.9 -1.4904,-24.75 -2.0157,-33 -0.5253,-8.25 -1.6283,-26.025 -2.4511,-39.5 -0.8229,-13.475 -1.9539,-31.7 -2.5137,-40.5 -2.0119,-31.6242 -2.9691,-47.1655 -3.5059,-57 -0.3002,-5.5 -0.7479,-12.025 -0.9961,-14.5 -0.2482,-2.475 -0.6969,-9.45 -0.998,-15.5 -0.3012,-6.05 -0.7596,-13.475 -1.0176,-16.5 -0.5085,-5.9645 -0.9255,-12.4328 -2.4844,-38.5 -1.1668,-19.511 -2.797,-45.7807 -3.4746,-56 -0.2553,-3.85 -0.9332,-15.325 -1.5078,-25.5 -0.5745,-10.175 -1.2452,-20.975 -1.4883,-24 -0.2431,-3.025 -0.9225,-13.15 -1.5117,-22.5 -0.2164,-3.435 -0.4917,-7.5924 -0.7578,-11.627 z"
         id="path2800"
         inkscape:connector-curvature="0" />
      <path
         style="display:inline;fill:#000000"
         d="m 2002.5417,1054.9833 c 4.9002,14.2334 10.0132,28.8656 15.1055,43.129 11.3402,31.7632 15.9724,46.2017 26.4727,82.5 3.5003,12.0999 8.0237,27.625 10.0507,34.5 2.027,6.875 5.4027,18.3499 7.502,25.5 18.0452,61.4602 40.6575,126.3815 59.2109,170 34.3949,80.8616 75.7896,146.2129 126.3145,199.414 37.9854,39.9975 75.7988,58.7401 127.207,63.0527 10.2241,0.8579 47.5487,0.4949 59.2344,-0.5761 39.9131,-3.6582 50.726,-5.3448 70.1367,-10.9317 27.8401,-8.0132 50.6075,-18.4743 64.3633,-29.5761 11.2128,-9.0494 42.5977,-40.3297 52.6387,-52.4629 4.1326,-4.9936 10.8358,-14.4436 14.8965,-21 6.6001,-10.6564 23.1309,-35.5767 40.4101,-60.9199 46.6695,-68.4499 79.5974,-152.1586 106.0098,-269.5 1.8021,-8.0062 2.9629,-13.0907 6.9687,-30.5 1.3921,-6.05 4.3122,-19.1001 6.4883,-29 9.1518,-41.634 12.6187,-56.5227 19.6582,-84.4043 2.8934,-11.46 5.2443,-20.9026 7.252,-29.2247 z"
         id="path2798"
         inkscape:connector-curvature="0" />
      <path
         style="display:inline;fill:#000000"
         d="m 3024.8542,1054.9833 c 0.4759,6.7878 1.0163,14.894 1.2969,19.6289 0.7355,12.4131 2.2462,33.3373 3.502,48.5001 1.8046,21.788 3.9626,46.5243 4.9297,56.5 0.5332,5.5 1.6857,17.425 2.5605,26.5 2.7266,28.2838 6.6389,67.3133 9.4727,94.5 0.5732,5.5 2.3964,25.3 4.0507,44 6.0068,67.8972 7.069,79.3047 9.0157,96.8398 11.4708,103.3262 31.6308,167.8432 64.2656,205.6602 21.0374,24.378 52.8582,40.0485 92.1914,45.4023 5.5,0.7486 16.1649,1.4135 23.6992,1.4785 35.7968,0.3081 68.9382,-9.165 96.7695,-27.6601 10.3669,-6.8894 28.4016,-24.6994 36.17,-35.7207 13.7258,-19.4735 25.757,-46.4493 35.6797,-80 5.0819,-17.183 6.5897,-22.9005 13.6132,-51.5782 23.1361,-94.4675 41.0842,-191.1784 57.0508,-307.4218 1.9642,-14.3 4.0061,-28.925 4.5371,-32.5 0.9465,-6.3721 1.5782,-11.331 4.5215,-35.5 3.3955,-27.8824 4.691,-39.5217 7.4609,-67.0001 0.059,-0.5811 0.1042,-1.0529 0.1622,-1.6289 z"
         id="path2796"
         inkscape:connector-curvature="0" />
      <path
         style="display:inline;fill:#000000"
         d="m 3758.7351,1054.9833 c -3.823,16.7416 -7.0488,32.6194 -10.0312,49.127 -1.1427,6.325 -2.5054,13.75 -3.0274,16.5 -5.6643,29.8406 -11.9148,80.0642 -15.6191,125.5 -1.9329,23.7081 -3.2544,93.1752 -2.2071,116 5.4331,118.4088 38.9678,210.8765 101.0957,278.7559 34.2706,37.4433 74.789,64.4044 118.5743,78.8984 14.8977,4.9314 22.2361,6.6805 39.1191,9.3223 40.5198,6.3405 87.8279,-1.9731 127.9082,-22.4746 48.8175,-24.9708 82.048,-64.14 95.4434,-112.502 4.2964,-15.5117 5.0944,-22.9941 5.0664,-47.5 -0.032,-28.7015 -1.8533,-41.5418 -10.4258,-73.5 -1.8208,-6.788 -7.9067,-25.6017 -10.9981,-34 -1.7209,-4.675 -3.487,-9.625 -3.9257,-11 -0.7326,-2.2961 -9.2214,-23.2628 -24.2911,-60 -15.3983,-37.5382 -25.2845,-67.8735 -30.1464,-92.5 -7.6243,-38.6193 -8.5637,-98.2175 -2.6016,-165 1.6626,-18.6225 3.4976,-37.1843 5.4844,-55.627 z"
         id="path2794"
         inkscape:connector-curvature="0" />
      <path
         style="display:inline;fill:#000000"
         d="m 4387.0515,1054.9833 c -0.6194,27.3244 -1.2762,56.05 -2.0117,87.129 -2.571,108.6324 -2.9259,188.8475 -0.9688,219 2.1632,33.3294 6.4041,68.1067 10.67,87.5 8.6402,39.2799 16.8309,64.6624 29.416,91.1503 16.0421,33.7638 39.1986,66.4803 63.6093,89.8731 39.1878,37.5536 84.8883,59.4484 130.3731,62.459 17.7247,1.1733 35.0942,0 52.0254,-3.5078 69.367,-14.3791 129.6536,-62.9776 166.8574,-134.5059 20.2528,-38.9382 35.3679,-87.7157 40.1191,-129.4687 4.6686,-41.026 -0.6346,-67.3069 -24.5136,-121.5 -2.8295,-6.4216 -10.9097,-26.2136 -13.4727,-33 -0.727,-1.925 -2.3272,-5.9755 -3.5547,-9 -6.4011,-15.7726 -21.6155,-60.678 -28.4609,-84 -3.4343,-11.7004 -7.5643,-26.2933 -8.4082,-29.7129 -0.5141,-2.0829 -2.3227,-9.1871 -4.0195,-15.7871 -3.5361,-13.7537 -11.076,-47.7164 -13.543,-61.0001 -1.0739,-5.7825 -1.9923,-10.8496 -2.8418,-15.6289 z"
         id="path2792"
         inkscape:connector-curvature="0" />
      <path
         style="display:inline;fill:#000000"
         d="m 5045.114,1054.9833 c 0.025,12.1134 0.1822,24.6253 0.4844,37.627 0.6008,25.85 1.092,61.5441 1.082,79.3203 -0.014,44.1812 3.3635,90.9161 10.5645,146.1797 2.8487,21.8617 5.7096,36.3386 14.9218,75.5 0.7763,3.3 3.0049,12.975 4.9532,21.5 6.5173,28.5171 15.4245,57.4678 23.5937,76.6875 5.8458,13.7536 12.358,26.521 25.916,50.8086 6.449,11.5526 15.4648,28.2039 20.0352,37.0039 17.133,32.9883 35.4818,58.6518 58.3808,81.6504 34.9014,35.0533 73.4272,55.2365 113.0938,59.25 8.9792,0.9085 56.872,-0.3544 70.5,-1.8594 40.5309,-4.4759 63.0298,-9.2899 90,-19.2578 17.6836,-6.5357 61.4014,-25.4339 79.5,-34.3652 107.7314,-53.1634 186.3778,-128.5946 234.5039,-224.918 19.654,-39.3372 23.4649,-61.5768 14.0137,-81.7734 -9.1818,-19.6213 -38.2246,-36.5899 -81.5176,-47.627 -38.647,-9.8526 -81.3441,-10.0402 -121.5,-0.5332 -12.5015,2.9598 -18.1273,4.823 -43.2031,14.3086 -32.1434,12.1591 -35.9743,13.0825 -54.2969,13.1035 -16.6705,0.019 -20.9349,-0.9211 -32.1523,-7.0859 -8.01,-4.4021 -14.5233,-11.7675 -19.2832,-21.8067 -7.5719,-15.9704 -10.3821,-33.8863 -9.8321,-62.6992 0.3608,-18.8987 0.6633,-22.076 2.5957,-27.3144 4.9912,-13.5297 20.2442,-33.5048 34.2031,-44.791 8.6805,-7.0185 24.9203,-14.084 52.4688,-22.8282 13.0343,-4.1372 32.3822,-11.0084 38,-13.4961 1.65,-0.7306 8.175,-3.4042 14.5,-5.9394 6.325,-2.5353 12.4,-5.0131 13.5,-5.5078 1.1,-0.4947 4.025,-1.7718 6.5,-2.8379 67.8577,-29.2283 109.0134,-49.2099 138.2969,-68.2989 z"
         id="path2337-1"
         inkscape:connector-curvature="0" />
    </g>
  </g>
  <g
     inkscape:groupmode="layer"
     id="layer4"
     inkscape:label="Paerehull"
     style="display:inline">
    <circle
       style="fill:#cf2e2e;stroke-width:1"
       r="1.25"
       cy="1137.4663"
       cx="606.3783"
       class="cls-2"
       data-name="Ellipse 1 kopi 11"
       id="circle2962" />
    <circle
       style="fill:#cf2e2e;stroke-width:1"
       r="1.25"
       cy="1281.7841"
       cx="447.66354"
       class="cls-2"
       data-name="Ellipse 1 kopi 12"
       id="circle2964" />
    <circle
       style="fill:#cf2e2e;stroke-width:1"
       r="1.25"
       cy="1115.8923"
       cx="837.6275"
       class="cls-2"
       data-name="Ellipse 1 kopi 13"
       id="circle2966" />
    <circle
       style="fill:#cf2e2e;stroke-width:1"
       r="1.25"
       cy="383.89233"
       cx="987.6275"
       class="cls-2"
       data-name="Ellipse 1 kopi 2"
       id="circle2968" />
    <circle
       style="fill:#cf2e2e;stroke-width:1"
       r="1.25"
       cy="997.96448"
       cx="408.37833"
       class="cls-2"
       data-name="Ellipse 1 kopi 3"
       id="circle2970" />
    <circle
       style="fill:#cf2e2e;stroke-width:1"
       r="1.25"
       cy="879.89233"
       cx="937.6275"
       class="cls-2"
       data-name="Ellipse 1 kopi 8"
       id="circle2972" />
    <ellipse
       style="fill:#cf2e2e;stroke-width:1"
       ry="1.225"
       rx="1.25"
       cy="631.89233"
       cx="987.6275"
       class="cls-2"
       data-name="Ellipse 1 kopi 10"
       id="ellipse2974" />
    <circle
       style="fill:#cf2e2e;stroke-width:1"
       r="1.25"
       cy="730.89233"
       cx="389.62741"
       class="cls-2"
       data-name="Ellipse 1 kopi"
       id="circle2976" />
    <circle
       style="fill:#cf2e2e;stroke-width:1"
       r="1.25"
       cy="1342.8923"
       cx="737.62744"
       class="cls-2"
       data-name="Ellipse 1 kopi 14"
       id="circle2978" />
    <circle
       style="fill:#cf2e2e;stroke-width:1"
       r="1.25"
       cy="1511.8923"
       cx="587.62744"
       class="cls-2"
       data-name="Ellipse 1 kopi 15"
       id="circle2980" />
    <circle
       style="fill:#cf2e2e;stroke-width:1"
       r="1.25"
       cy="1442.8923"
       cx="1566.6274"
       class="cls-2"
       data-name="Ellipse 1 kopi 7"
       id="circle2982" />
    <circle
       style="fill:#cf2e2e;stroke-width:1"
       r="1.25"
       cy="1205.8923"
       cx="1516.6274"
       class="cls-2"
       data-name="Ellipse 1 kopi 6"
       id="circle2984" />
    <circle
       style="fill:#cf2e2e;stroke-width:1"
       id="circle2986"
       r="1.25"
       cy="283.89233"
       cx="1616.6274"
       class="cls-2" />
    <circle
       style="fill:#cf2e2e;stroke-width:1"
       r="1.25"
       cy="955.89233"
       cx="1516.6274"
       class="cls-2"
       data-name="Ellipse 1 kopi 5"
       id="circle2988" />
    <circle
       style="fill:#cf2e2e;stroke-width:1"
       r="1.25"
       cy="731.89233"
       cx="1566.6274"
       class="cls-2"
       data-name="Ellipse 1 kopi 4"
       id="circle2990" />
    <circle
       style="fill:#cf2e2e;stroke-width:1"
       r="1.25"
       cy="1492.8923"
       cx="2408.6274"
       class="cls-2"
       data-name="Ellipse 1 kopi 7"
       id="circle2992" />
    <circle
       style="fill:#cf2e2e;stroke-width:1"
       r="1.25"
       cy="1292.8923"
       cx="2245.6274"
       class="cls-2"
       data-name="Ellipse 1 kopi 6"
       id="circle2994" />
    <circle
       style="fill:#cf2e2e;stroke-width:1"
       id="circle2996"
       r="1.25"
       cy="1018.8923"
       cx="2161.6274"
       class="cls-2" />
    <circle
       style="fill:#cf2e2e;stroke-width:1"
       r="1.25"
       cy="1292.8923"
       cx="2581.6274"
       class="cls-2"
       data-name="Ellipse 1 kopi 9"
       id="circle2998" />
    <circle
       style="fill:#cf2e2e;stroke-width:1"
       r="1.25"
       cy="1018.8923"
       cx="2655.6274"
       class="cls-2"
       data-name="Ellipse 1 kopi 16"
       id="circle3000" />
    <circle
       style="fill:#cf2e2e;stroke-width:1"
       r="1.25"
       cy="779.89233"
       cx="2655.6274"
       class="cls-2"
       data-name="Ellipse 1 kopi 5"
       id="circle3002" />
    <circle
       style="fill:#cf2e2e;stroke-width:1"
       r="1.25"
       cy="779.89233"
       cx="2135.6274"
       class="cls-2"
       data-name="Ellipse 1 kopi 4"
       id="circle3004" />
    <circle
       r="1.25"
       style="fill:#cf2e2e;stroke-width:1"
       cy="1083.8923"
       cx="2408.6274"
       class="cls-2"
       data-name="Ellipse 1 kopi 17"
       id="circle3006" />
    <circle
       style="fill:#cf2e2e;stroke-width:1"
       r="1.25"
       cy="1411.8923"
       cx="3249.6274"
       class="cls-2"
       data-name="Ellipse 1 kopi 7"
       id="circle3008" />
    <circle
       style="fill:#cf2e2e;stroke-width:1"
       r="1.25"
       cy="1165.8923"
       cx="3249.6274"
       class="cls-2"
       data-name="Ellipse 1 kopi 6"
       id="circle3010" />
    <circle
       style="fill:#cf2e2e;stroke-width:1"
       id="circle3012"
       r="1.25"
       cy="252.89233"
       cx="3299.6274"
       class="cls-2" />
    <circle
       style="fill:#cf2e2e;stroke-width:1"
       r="1.25"
       cy="918.89233"
       cx="3249.6274"
       class="cls-2"
       data-name="Ellipse 1 kopi 5"
       id="circle3014" />
    <circle
       style="fill:#cf2e2e;stroke-width:1"
       r="1.25"
       cy="681.89233"
       cx="3299.6274"
       class="cls-2"
       data-name="Ellipse 1 kopi 4"
       id="circle3016" />
    <circle
       style="fill:#cf2e2e;stroke-width:1"
       r="1.25"
       cy="1492.8923"
       cx="4637.6274"
       class="cls-2"
       data-name="Ellipse 1 kopi 7"
       id="circle3018" />
    <circle
       style="fill:#cf2e2e;stroke-width:1"
       r="1.25"
       cy="1242.8923"
       cx="4587.6274"
       class="cls-2"
       data-name="Ellipse 1 kopi 6"
       id="circle3020" />
    <circle
       style="fill:#cf2e2e;stroke-width:1"
       r="1.25"
       cy="955.89233"
       cx="4587.6274"
       class="cls-2"
       data-name="Ellipse 1 kopi 5"
       id="circle3022" />
    <circle
       style="fill:#cf2e2e;stroke-width:1"
       r="1.25"
       cy="694.89233"
       cx="4587.6274"
       class="cls-2"
       data-name="Ellipse 1 kopi 4"
       id="circle3024" />
    <circle
       style="fill:#cf2e2e;stroke-width:1"
       id="circle3026"
       r="1.25"
       cy="433.89233"
       cx="4637.6274"
       class="cls-2" />
    <circle
       style="fill:#cf2e2e;stroke-width:1"
       r="1.25"
       cy="1355.8923"
       cx="5231.6274"
       class="cls-2"
       data-name="Ellipse 1 kopi 7"
       id="circle3028" />
    <circle
       style="fill:#cf2e2e;stroke-width:1"
       r="1.25"
       cy="1542.8923"
       cx="5381.6274"
       class="cls-2"
       data-name="Ellipse 1 kopi 6"
       id="circle3030" />
    <circle
       style="fill:#cf2e2e;stroke-width:1"
       r="1.25"
       cy="1442.8923"
       cx="5616.6274"
       class="cls-2"
       data-name="Ellipse 1 kopi 5"
       id="circle3032" />
    <circle
       style="fill:#cf2e2e;stroke-width:1"
       r="1.25"
       cy="1055.8923"
       cx="5481.6274"
       class="cls-2"
       data-name="Ellipse 1 kopi 19"
       id="circle3034" />
    <circle
       style="fill:#cf2e2e;stroke-width:1"
       r="1.25"
       cy="784.89233"
       cx="5231.6274"
       class="cls-2"
       data-name="Ellipse 1 kopi 20"
       id="circle3036" />
    <circle
       style="fill:#cf2e2e;stroke-width:1"
       r="1.25"
       cy="868.89233"
       cx="5716.6274"
       class="cls-2"
       data-name="Ellipse 1 kopi 22"
       id="circle3038" />
    <circle
       style="fill:#cf2e2e;stroke-width:1"
       r="1.25"
       cy="679.89233"
       cx="5531.6274"
       class="cls-2"
       data-name="Ellipse 1 kopi 23"
       id="circle3040" />
    <circle
       style="fill:#cf2e2e;stroke-width:1"
       r="1.25"
       cy="1068.8923"
       cx="5181.6274"
       class="cls-2"
       data-name="Ellipse 1 kopi 21"
       id="circle3042" />
    <circle
       style="fill:#cf2e2e;stroke-width:1"
       r="1.25"
       cy="233.89233"
       cx="5507.6274"
       class="cls-2"
       data-name="Ellipse 1 kopi 4"
       id="circle3044" />
    <circle
       style="fill:#cf2e2e;stroke-width:1"
       id="circle3046"
       r="1.25"
       cy="326.89233"
       cx="5331.6274"
       class="cls-2" />
    <circle
       style="fill:#cf2e2e;stroke-width:1"
       r="1.25"
       cy="1542.8923"
       cx="3993.6272"
       class="cls-2"
       data-name="Ellipse 1 kopi 18"
       id="circle3048" />
    <circle
       style="fill:#cf2e2e;stroke-width:1"
       r="1.25"
       cy="1311.8923"
       cx="3943.6272"
       class="cls-2"
       data-name="Ellipse 1 kopi 7"
       id="circle3050" />
    <circle
       style="fill:#cf2e2e;stroke-width:1"
       r="1.25"
       cy="1018.8923"
       cx="3943.6272"
       class="cls-2"
       data-name="Ellipse 1 kopi 6"
       id="circle3052" />
    <circle
       style="fill:#cf2e2e;stroke-width:1"
       r="1.25"
       cy="734.89233"
       cx="3993.6272"
       class="cls-2"
       data-name="Ellipse 1 kopi 5"
       id="circle3054" />
    <circle
       style="fill:#cf2e2e;stroke-width:1"
       r="1.25"
       cy="483.89236"
       cx="3993.6272"
       class="cls-2"
       data-name="Ellipse 1 kopi 4"
       id="circle3056" />
    <circle
       style="fill:#cf2e2e;stroke-width:1"
       id="circle3058"
       r="1.25"
       cy="276.89233"
       cx="3893.6272"
       class="cls-2" />
  </g>
  <g
     inkscape:groupmode="layer"
     id="layer5"
     inkscape:label="Paereomriss"
     style="display:inline">
    <circle
       id="Ellipse_1_kopi_11"
       data-name="Ellipse 1 kopi 11"
       class="cls-2"
       cx="606.3783"
       cy="1137.4663"
       r="25"
       style="fill:#cf2e2e;stroke-width:1" />
    <circle
       id="Ellipse_1_kopi_12"
       data-name="Ellipse 1 kopi 12"
       class="cls-2"
       cx="447.66354"
       cy="1281.7841"
       r="25"
       style="fill:#cf2e2e;stroke-width:1" />
    <circle
       id="Ellipse_1_kopi_13"
       data-name="Ellipse 1 kopi 13"
       class="cls-2"
       cx="837.6275"
       cy="1115.8923"
       r="25"
       style="fill:#cf2e2e;stroke-width:1" />
    <circle
       id="Ellipse_1_kopi_2"
       data-name="Ellipse 1 kopi 2"
       class="cls-2"
       cx="987.6275"
       cy="383.89233"
       r="25"
       style="fill:#cf2e2e;stroke-width:1" />
    <circle
       id="Ellipse_1_kopi_3"
       data-name="Ellipse 1 kopi 3"
       class="cls-2"
       cx="408.37833"
       cy="997.96448"
       r="25"
       style="fill:#cf2e2e;stroke-width:1" />
    <circle
       id="Ellipse_1_kopi_8"
       data-name="Ellipse 1 kopi 8"
       class="cls-2"
       cx="937.6275"
       cy="879.89233"
       r="25"
       style="fill:#cf2e2e;stroke-width:1" />
    <ellipse
       id="Ellipse_1_kopi_10"
       data-name="Ellipse 1 kopi 10"
       class="cls-2"
       cx="987.6275"
       cy="631.89233"
       rx="25"
       ry="24.5"
       style="fill:#cf2e2e;stroke-width:1" />
    <circle
       id="Ellipse_1_kopi"
       data-name="Ellipse 1 kopi"
       class="cls-2"
       cx="389.62741"
       cy="730.89233"
       r="25"
       style="fill:#cf2e2e;stroke-width:1" />
    <circle
       id="Ellipse_1_kopi_14"
       data-name="Ellipse 1 kopi 14"
       class="cls-2"
       cx="737.62744"
       cy="1342.8923"
       r="25"
       style="fill:#cf2e2e;stroke-width:1" />
    <circle
       id="Ellipse_1_kopi_15"
       data-name="Ellipse 1 kopi 15"
       class="cls-2"
       cx="587.62744"
       cy="1511.8923"
       r="25"
       style="fill:#cf2e2e;stroke-width:1" />
    <circle
       id="Ellipse_1_kopi_7"
       data-name="Ellipse 1 kopi 7"
       class="cls-2"
       cx="1566.6274"
       cy="1442.8923"
       r="25"
       style="fill:#cf2e2e;stroke-width:1" />
    <circle
       id="Ellipse_1_kopi_6"
       data-name="Ellipse 1 kopi 6"
       class="cls-2"
       cx="1516.6274"
       cy="1205.8923"
       r="25"
       style="fill:#cf2e2e;stroke-width:1" />
    <circle
       class="cls-2"
       cx="1616.6274"
       cy="283.89233"
       r="25"
       id="circle20"
       style="fill:#cf2e2e;stroke-width:1" />
    <circle
       id="Ellipse_1_kopi_5"
       data-name="Ellipse 1 kopi 5"
       class="cls-2"
       cx="1516.6274"
       cy="955.89233"
       r="25"
       style="fill:#cf2e2e;stroke-width:1" />
    <circle
       id="Ellipse_1_kopi_4"
       data-name="Ellipse 1 kopi 4"
       class="cls-2"
       cx="1566.6274"
       cy="731.89233"
       r="25"
       style="fill:#cf2e2e;stroke-width:1" />
    <circle
       id="Ellipse_1_kopi_7-2"
       data-name="Ellipse 1 kopi 7"
       class="cls-2"
       cx="2408.6274"
       cy="1492.8923"
       r="25"
       style="fill:#cf2e2e;stroke-width:1" />
    <circle
       id="Ellipse_1_kopi_6-2"
       data-name="Ellipse 1 kopi 6"
       class="cls-2"
       cx="2245.6274"
       cy="1292.8923"
       r="25"
       style="fill:#cf2e2e;stroke-width:1" />
    <circle
       class="cls-2"
       cx="2161.6274"
       cy="1018.8923"
       r="25"
       id="circle26"
       style="fill:#cf2e2e;stroke-width:1" />
    <circle
       id="Ellipse_1_kopi_9"
       data-name="Ellipse 1 kopi 9"
       class="cls-2"
       cx="2581.6274"
       cy="1292.8923"
       r="25"
       style="fill:#cf2e2e;stroke-width:1" />
    <circle
       id="Ellipse_1_kopi_16"
       data-name="Ellipse 1 kopi 16"
       class="cls-2"
       cx="2655.6274"
       cy="1018.8923"
       r="25"
       style="fill:#cf2e2e;stroke-width:1" />
    <circle
       id="Ellipse_1_kopi_5-2"
       data-name="Ellipse 1 kopi 5"
       class="cls-2"
       cx="2655.6274"
       cy="779.89233"
       r="25"
       style="fill:#cf2e2e;stroke-width:1" />
    <circle
       id="Ellipse_1_kopi_4-2"
       data-name="Ellipse 1 kopi 4"
       class="cls-2"
       cx="2135.6274"
       cy="779.89233"
       r="25"
       style="fill:#cf2e2e;stroke-width:1" />
    <circle
       id="Ellipse_1_kopi_17"
       data-name="Ellipse 1 kopi 17"
       class="cls-2"
       cx="2408.6274"
       cy="1083.8923"
       style="fill:#cf2e2e;stroke-width:1"
       r="25" />
    <circle
       id="Ellipse_1_kopi_7-3"
       data-name="Ellipse 1 kopi 7"
       class="cls-2"
       cx="3249.6274"
       cy="1411.8923"
       r="25"
       style="fill:#cf2e2e;stroke-width:1" />
    <circle
       id="Ellipse_1_kopi_6-3"
       data-name="Ellipse 1 kopi 6"
       class="cls-2"
       cx="3249.6274"
       cy="1165.8923"
       r="25"
       style="fill:#cf2e2e;stroke-width:1" />
    <circle
       class="cls-2"
       cx="3299.6274"
       cy="252.89233"
       r="25"
       id="circle35"
       style="fill:#cf2e2e;stroke-width:1" />
    <circle
       id="Ellipse_1_kopi_5-3"
       data-name="Ellipse 1 kopi 5"
       class="cls-2"
       cx="3249.6274"
       cy="918.89233"
       r="25"
       style="fill:#cf2e2e;stroke-width:1" />
    <circle
       id="Ellipse_1_kopi_4-3"
       data-name="Ellipse 1 kopi 4"
       class="cls-2"
       cx="3299.6274"
       cy="681.89233"
       r="25"
       style="fill:#cf2e2e;stroke-width:1" />
    <circle
       id="Ellipse_1_kopi_7-4"
       data-name="Ellipse 1 kopi 7"
       class="cls-2"
       cx="4637.6274"
       cy="1492.8923"
       r="25"
       style="fill:#cf2e2e;stroke-width:1" />
    <circle
       id="Ellipse_1_kopi_6-4"
       data-name="Ellipse 1 kopi 6"
       class="cls-2"
       cx="4587.6274"
       cy="1242.8923"
       r="25"
       style="fill:#cf2e2e;stroke-width:1" />
    <circle
       id="Ellipse_1_kopi_5-4"
       data-name="Ellipse 1 kopi 5"
       class="cls-2"
       cx="4587.6274"
       cy="955.89233"
       r="25"
       style="fill:#cf2e2e;stroke-width:1" />
    <circle
       id="Ellipse_1_kopi_4-4"
       data-name="Ellipse 1 kopi 4"
       class="cls-2"
       cx="4587.6274"
       cy="694.89233"
       r="25"
       style="fill:#cf2e2e;stroke-width:1" />
    <circle
       class="cls-2"
       cx="4637.6274"
       cy="433.89233"
       r="25"
       id="circle43"
       style="fill:#cf2e2e;stroke-width:1" />
    <circle
       id="Ellipse_1_kopi_7-5"
       data-name="Ellipse 1 kopi 7"
       class="cls-2"
       cx="5231.6274"
       cy="1355.8923"
       r="25"
       style="fill:#cf2e2e;stroke-width:1" />
    <circle
       id="Ellipse_1_kopi_6-5"
       data-name="Ellipse 1 kopi 6"
       class="cls-2"
       cx="5381.6274"
       cy="1542.8923"
       r="25"
       style="fill:#cf2e2e;stroke-width:1" />
    <circle
       id="Ellipse_1_kopi_5-5"
       data-name="Ellipse 1 kopi 5"
       class="cls-2"
       cx="5616.6274"
       cy="1442.8923"
       r="25"
       style="fill:#cf2e2e;stroke-width:1" />
    <circle
       id="Ellipse_1_kopi_19"
       data-name="Ellipse 1 kopi 19"
       class="cls-2"
       cx="5481.6274"
       cy="1055.8923"
       r="25"
       style="fill:#cf2e2e;stroke-width:1" />
    <circle
       id="Ellipse_1_kopi_20"
       data-name="Ellipse 1 kopi 20"
       class="cls-2"
       cx="5231.6274"
       cy="784.89233"
       r="25"
       style="fill:#cf2e2e;stroke-width:1" />
    <circle
       id="Ellipse_1_kopi_22"
       data-name="Ellipse 1 kopi 22"
       class="cls-2"
       cx="5716.6274"
       cy="868.89233"
       r="25"
       style="fill:#cf2e2e;stroke-width:1" />
    <circle
       id="Ellipse_1_kopi_23"
       data-name="Ellipse 1 kopi 23"
       class="cls-2"
       cx="5531.6274"
       cy="679.89233"
       r="25"
       style="fill:#cf2e2e;stroke-width:1" />
    <circle
       id="Ellipse_1_kopi_21"
       data-name="Ellipse 1 kopi 21"
       class="cls-2"
       cx="5181.6274"
       cy="1068.8923"
       r="25"
       style="fill:#cf2e2e;stroke-width:1" />
    <circle
       id="Ellipse_1_kopi_4-5"
       data-name="Ellipse 1 kopi 4"
       class="cls-2"
       cx="5507.6274"
       cy="233.89233"
       r="25"
       style="fill:#cf2e2e;stroke-width:1" />
    <circle
       class="cls-2"
       cx="5331.6274"
       cy="326.89233"
       r="25"
       id="circle54"
       style="fill:#cf2e2e;stroke-width:1" />
    <circle
       id="Ellipse_1_kopi_18"
       data-name="Ellipse 1 kopi 18"
       class="cls-2"
       cx="3993.6272"
       cy="1542.8923"
       r="25"
       style="fill:#cf2e2e;stroke-width:1" />
    <circle
       id="Ellipse_1_kopi_7-6"
       data-name="Ellipse 1 kopi 7"
       class="cls-2"
       cx="3943.6272"
       cy="1311.8923"
       r="25"
       style="fill:#cf2e2e;stroke-width:1" />
    <circle
       id="Ellipse_1_kopi_6-6"
       data-name="Ellipse 1 kopi 6"
       class="cls-2"
       cx="3943.6272"
       cy="1018.8923"
       r="25"
       style="fill:#cf2e2e;stroke-width:1" />
    <circle
       id="Ellipse_1_kopi_5-6"
       data-name="Ellipse 1 kopi 5"
       class="cls-2"
       cx="3993.6272"
       cy="734.89233"
       r="25"
       style="fill:#cf2e2e;stroke-width:1" />
    <circle
       id="Ellipse_1_kopi_4-6"
       data-name="Ellipse 1 kopi 4"
       class="cls-2"
       cx="3993.6272"
       cy="483.89236"
       r="25"
       style="fill:#cf2e2e;stroke-width:1" />
    <circle
       class="cls-2"
       cx="3893.6272"
       cy="276.89233"
       r="25"
       id="circle61"
       style="fill:#cf2e2e;stroke-width:1" />
  </g>
</svg>
