<?xml version="1.0" encoding="UTF-8" standalone="no"?>
<!-- Created with Inkscape (http://www.inkscape.org/) -->

<svg
   xmlns:dc="http://purl.org/dc/elements/1.1/"
   xmlns:cc="http://creativecommons.org/ns#"
   xmlns:rdf="http://www.w3.org/1999/02/22-rdf-syntax-ns#"
   xmlns:svg="http://www.w3.org/2000/svg"
   xmlns="http://www.w3.org/2000/svg"
   xmlns:sodipodi="http://sodipodi.sourceforge.net/DTD/sodipodi-0.dtd"
   xmlns:inkscape="http://www.inkscape.org/namespaces/inkscape"
   width="1000mm"
   height="300mm"
   viewBox="0 0 1000 300"
   version="1.1"
   id="svg8"
   sodipodi:docname="technical-drawing.svg"
   inkscape:version="0.92.4 5da689c313, 2019-01-14">
  <defs
     id="defs2" />
  <sodipodi:namedview
     id="base"
     pagecolor="#ffffff"
     bordercolor="#666666"
     borderopacity="1.0"
     inkscape:pageopacity="0.0"
     inkscape:pageshadow="2"
     inkscape:zoom="4.4704"
     inkscape:cx="1757.7029"
     inkscape:cy="233.05935"
     inkscape:document-units="mm"
     inkscape:current-layer="svg8"
     showgrid="false"
     inkscape:window-width="3190"
     inkscape:window-height="1729"
     inkscape:window-x="0"
     inkscape:window-y="28"
     inkscape:window-maximized="0" />
  <metadata
     id="metadata5">
    <rdf:RDF>
      <cc:Work
         rdf:about="">
        <dc:format>image/svg+xml</dc:format>
        <dc:type
           rdf:resource="http://purl.org/dc/dcmitype/StillImage" />
        <dc:title />
      </cc:Work>
    </rdf:RDF>
  </metadata>
  <g
     style="display:inline"
     inkscape:label="group_text"
     id="group_text"
     transform="matrix(0.68833725,0,0,0.68833725,375.2188,82.285695)">
    <g
       style="display:none"
       id="g4350" />
    <path
       inkscape:connector-curvature="0"
       id="path4316"
       d="m 601.26566,212.56956 a 19.654762,19.22954 0 0 1 -19.65476,19.22954 19.654762,19.22954 0 0 1 -19.65476,-19.22954 19.654762,19.22954 0 0 1 19.65476,-19.22954 19.654762,19.22954 0 0 1 19.65476,19.22954 z"
       style="display:inline;stroke-width:0.26458332" />
    <path
       inkscape:connector-curvature="0"
       id="path4270"
       d="m 446.97188,193.22217 -0.002,-116.830238 15.30288,0.0167 0.0336,117.102918 c 0.20106,13.72381 14.73684,22.63557 28.80794,22.69897 14.0711,0.0634 28.41533,-8.60619 28.58616,-22.45918 l -0.0209,-117.35106 15.40466,0.01426 -0.0728,117.07222 c -0.76971,22.74848 -26.40225,38.23366 -44.3946,38.19571 -17.99235,-0.0379 -43.57514,-16.54383 -43.64494,-38.4603 z"
       style="display:inline;fill:#000000;stroke-width:0.26458332" />
    <path
       inkscape:connector-curvature="0"
       id="path4268"
       d="m -290.56692,6.3014109 -26.79097,19.8216951 -8.91714,-12.182887 75.78644,-56.144962 -0.12623,269.293523 -19.78526,0.0678 -20.07813,0.0695 z"
       style="display:inline;fill:#000000;stroke-width:0.26458332" />
    <path
       inkscape:connector-curvature="0"
       id="path4266"
       d="m -240.96602,227.23777 0.009,-276.468806 29.79523,-22.088206 9.24124,11.991611 -23.55838,17.454689 -0.26458,268.961782 z"
       style="display:inline;fill:#000000;stroke-width:0.26458332" />
    <path
       inkscape:connector-curvature="0"
       id="path4264"
       d="m -220.18611,227.22587 33.83319,-100.33263 16.76735,50.25627 16.69125,50.06945 -16.05236,0.002 -9.21616,-27.64896 -16.69679,-0.1396 -9.30694,27.79408 -7.96808,-0.005 z"
       style="display:inline;fill:#000000;stroke-width:0.26458332" />
    <path
       inkscape:connector-curvature="0"
       id="path4262"
       d="m -182.17819,114.93621 13.33612,-40.299837 51.32727,152.585547 -26.82489,-8.1e-4 z"
       style="display:inline;fill:#000000;stroke-width:0.26458332" />
    <path
       inkscape:connector-curvature="0"
       id="path4260"
       d="M -38.28663,173.94189 V -14.105554 C -23.789108,-37.312775 -10.406121,-51.200836 7.8787352,-67.938028 -0.46597463,-19.483602 -4.8481252,33.706492 -5.0484518,79.980511 -4.3593287,136.99336 -2.0747701,180.33615 7.8919143,227.93317 -9.8765927,212.44046 -27.528472,192.22496 -38.28663,173.94194 Z"
       style="display:inline;fill:#000000;stroke-width:0.26458332" />
    <path
       inkscape:connector-curvature="0"
       id="path4258"
       transform="matrix(0.69864667,0,0,0.69864667,-268.70843,650.13772)"
       d="m 415.91992,-1027.3965 c -13.53355,64.64598 -20.31399,140.61516 -20.70898,210.9297 -0.0605,69.94114 7.59297,135.40778 20.57617,211.58594 72.46349,-46.32938 111.23757,-127.5258 111.55078,-210.85352 0.31321,-83.32771 -27.98895,-144.81247 -111.41797,-211.66212 z m 15.04883,36.34767 c 60.16163,61.78092 75.92469,112.95351 74.71094,174.84961 -1.21375,61.8961 -15.64099,113.44744 -74.75196,174.88281 -8.09747,-55.34231 -14.47762,-115.71585 -14.34961,-175.02734 1.09262,-57.90348 4.39238,-113.54204 14.39063,-174.70508 z"
       style="display:inline;fill:#000000;stroke-width:0.37870833" />
    <path
       inkscape:connector-curvature="0"
       id="path4254"
       d="m 123.37378,135.4107 -14.58525,-0.0334 0.0668,-15.32913 14.51844,0.0167 0.0326,-43.66218 24.32553,0.0059 -0.0165,0.635 v 43.02124 h 7.9375 l -0.0146,-43.638522 48.2354,-0.01772 -0.0835,15.362537 -32.79139,-0.0167 v 28.310415 l 14.5431,0.0354 -0.0354,15.28678 -14.50767,0.0236 v 76.72511 l 32.67604,0.1363 V 227.0887 H 155.7853 l -0.1338,-91.67812 h -7.93453 l -0.1338,91.67812 -24.19675,0.1376 z"
       style="display:inline;fill:#000000;stroke-width:0.26458332" />
    <path
       inkscape:connector-curvature="0"
       id="path4252"
       d="m 470.37589,189.51799 -0.17887,-113.11538 22.40279,0.1383 c -0.0968,43.93691 0.1322,131.81221 0.1322,131.81221 -12.5204,-0.11048 -22.18194,-8.14042 -22.35612,-18.83513 z"
       style="display:inline;fill:#000000;stroke-width:0.26458332" />
    <path
       inkscape:connector-curvature="0"
       id="path4250"
       d="m 550.35102,-65.946787 20.03628,0.141873 6.45506,252.020444 -15.23605,-0.008 -11.25529,-252.154367 z"
       style="display:inline;fill:#000000;stroke-width:0.26458332" />
    <path
       inkscape:connector-curvature="0"
       id="path4248"
       d="m 578.43399,-65.937187 33.74339,0.03544 -12.03209,252.108297 -15.22014,0.016 -6.49116,-252.159732 z"
       style="display:inline;fill:#000000;stroke-width:0.26458332" />
    <path
       inkscape:connector-curvature="0"
       id="path4246"
       d="m -110.91483,136.33681 h 36.77708 v 29.36875 l -36.90805,0.1359 z"
       style="display:inline;fill:#000000;stroke-width:0.26458332" />
    <path
       inkscape:connector-curvature="0"
       id="path4244"
       d="m 218.4914,136.33681 h 36.77708 v 29.36875 l -36.86045,0.1192 z"
       style="display:inline;fill:#000000;stroke-width:0.26458332" />
    <path
       inkscape:connector-curvature="0"
       id="path4242"
       d="m -110.91473,113.05348 h 36.77708 v 14.81667 l -36.88551,0.12765 z"
       style="display:inline;fill:#000000;stroke-width:0.26458332" />
    <path
       inkscape:connector-curvature="0"
       id="path3737"
       d="m 218.4915,113.05348 h 36.77708 v 14.81667 l -36.87716,0.14435 z"
       style="display:inline;fill:#000000;stroke-width:0.26458332" />
    <path
       inkscape:connector-curvature="0"
       id="path4276"
       d="M 292.44252,173.97679 V -14.07067 c 14.49753,-23.20722 27.88052,-37.09528 46.16537,-53.83247 -8.34472,48.45443 -12.72685,101.64453 -12.92719,147.91854 0.68913,57.01285 2.97368,100.35564 12.94037,147.95268 -17.76852,-15.49273 -35.42038,-35.70822 -46.17855,-53.99124 z"
       style="display:inline;fill:#000000;stroke-width:0.26458332" />
    <path
       inkscape:connector-curvature="0"
       id="path4274"
       transform="matrix(0.69864667,0,0,0.69864667,-268.70843,650.13772)"
       d="m 889.30664,-1027.3477 c -13.53355,64.64601 -20.31594,140.61714 -20.71094,210.93168 -0.0606,69.94114 7.59299,135.40779 20.57618,211.58594 72.46349,-46.32935 111.23952,-127.52774 111.55272,-210.85547 0.3132,-83.32771 -27.98892,-144.81246 -111.41796,-211.66215 z M 904.35547,-991 c 60.16164,61.78091 75.9247,112.95545 74.71094,174.85156 -1.21376,61.8961 -15.64294,113.44547 -74.75391,174.88086 -8.09747,-55.34232 -14.47757,-115.71586 -14.34961,-175.02734 1.09261,-57.90348 4.39433,-113.54205 14.39258,-174.70508 z"
       style="display:inline;fill:#000000;stroke-width:0.37870833" />
  </g>
  <g
     inkscape:label="group_background"
     style="display:inline"
     id="group_background"
     transform="matrix(1.726348,0,0,-1.726348,688.12216,48.099994)">
    <g
       inkscape:label="gggg"
       style="display:inline;opacity:1"
       id="nvmme"
       transform="translate(-110.1,13.14)">
      <g
         id="g6411"
         transform="translate(95.7,-22.14)">
        <g
           id="g6415"
           transform="translate(100.08,-25.8)">
          <g
             id="g6419"
             transform="translate(-107.22,-67.92)">
            <g
               transform="translate(-159.9,2.94)"
               id="g6431">
              <g
                 id="g6435"
                 transform="translate(-124.44,64.98)">
                <g
                   id="g6439"
                   transform="translate(106.44,-64.98)">
                  <g
                     id="g6443"
                     transform="translate(4.68,-17.46)">
                    <g
                       id="g6447"
                       transform="translate(194.7,94.56)">
                      <g
                         id="g6451"
                         transform="translate(-29.82,-88.74)">
                        <g
                           id="g6455"
                           transform="translate(-160.44)">
                          <g
                             id="g6459">
                            <g
                               id="g6463"
                               transform="translate(260.82,8.7)">
                              <g
                                 id="g6467">
                                <g
                                   id="g6471"
                                   transform="translate(-69.84,82.86)">
                                <g
                                   id="g6475"
                                   transform="translate(-0.72,-2.82)">
                                <g
                                   id="g6479"
                                   transform="translate(-25.32,-94.56)">
                                <g
                                   id="g6483"
                                   transform="translate(1.5,5.82)">
                                <g
                                   id="g6487"
                                   transform="translate(13.02,104.7)">
                                <g
                                   id="g6491"
                                   transform="translate(-172.8,-96)">
                                <g
                                   id="g6495"
                                   transform="translate(169.26,93.72)">
                                <g
                                   id="g6499"
                                   transform="translate(-213,13.44)">
                                <g
                                   id="g6503"
                                   transform="translate(234.6)">
                                <g
                                   id="g6507"
                                   transform="translate(-117.3,8.7)">
                                <g
                                   id="g6511"
                                   transform="translate(73.56,-115.86)">
                                <path
                                   inkscape:connector-curvature="0"
                                   id="path7447"
                                   transform="matrix(0.58976727,0,0,-0.58976727,-368.76839,457.42241)"
                                   d="m 500.55078,554.12109 -198.89258,39.77735 4.67969,17.29492 -174.88281,24.62109 2.64648,9.86719 L 8.3574219,665.31641 44.574219,800.21875 H 956.62891 l 36.11523,-134.90234 -125.64258,-19.63477 2.54297,-9.86719 -174.88086,-24.62109 4.67969,-17.29492 z m 0,9.97071 186.6836,37.33593 -50.66407,188.92188 H 364.53125 l -50.5625,-188.92188 z m 0,15.05664 -168.26953,33.67383 43.54297,162.77539 h 249.45312 l 43.54297,-162.77539 z m 0.0273,5.07031 162.24024,32.46875 -41.30469,153.92578 H 379.58785 L 338.38473,616.6875 Z m -191.69726,36.53906 3.86719,14.34375 -150.36524,21.16211 31.94531,119.33399 h 156.0625 l 3.9668,14.75195 H 183.03512 L 143.86715,643.95312 Z m 383.33789,0 165.11719,23.19531 -39.26953,146.39649 H 646.7441 l 3.9668,-14.75195 H 806.7734 L 838.71871,656.26367 688.35348,635.10156 Z m -378.14844,19.125 34.9961,130.73047 H 198.09176 L 168.5898,660.43359 Z m 373.0625,0 145.37891,20.55078 -29.50195,110.17969 H 652.03316 Z m -550.48828,15.36328 3.86524,14.34375 -101.226567,15.76954 24.111328,90.23828 H 168.89449 l 3.9668,14.75195 H 52.103476 L 20.767578,673.35352 136.64453,655.24609 Z m 727.8125,0 115.97852,18.10743 -31.4375,116.99609 H 828.23824 l 3.96875,-14.75195 h 105.5 l 24.21289,-90.23828 -101.22656,-15.76954 z m -722.72656,19.125 25.8418,96.24219 H 67.160116 L 45.388632,689.42773 Z m 717.64062,0 96.3418,15.05664 -21.77148,81.18555 H 833.52926 Z"
                                   style="fill:#000000;stroke:#000000;stroke-width:0.20347008;stroke-linecap:round;stroke-linejoin:round;stroke-miterlimit:10;stroke-dasharray:none;stroke-opacity:1" />
                                </g>
                                </g>
                                </g>
                                </g>
                                </g>
                                </g>
                                </g>
                                </g>
                                </g>
                                </g>
                                </g>
                              </g>
                            </g>
                          </g>
                        </g>
                      </g>
                    </g>
                  </g>
                </g>
              </g>
            </g>
          </g>
        </g>
      </g>
    </g>
  </g>
  <g
     id="group_bulbs"
     transform="translate(-6.2666667,-15.499622)"
     inkscape:label="group_bulbs">
    <circle
       r="4"
       style="display:inline;fill:#ff0000;fill-opacity:1;stroke-width:1"
       id="bulb-0"
       cx="192.02765"
       cy="236.50426" />
    <circle
       r="4"
       style="display:inline;fill:#ff0000;fill-opacity:1;stroke-width:1"
       id="bulb-1"
       cx="202.02765"
       cy="206.50426" />
    <circle
       r="4"
       style="display:inline;fill:#ff0000;fill-opacity:1;stroke-width:1"
       id="bulb-2"
       cx="192.02765"
       cy="176.50426" />
    <circle
       r="4"
       style="display:inline;fill:#ff0000;fill-opacity:1;stroke-width:1"
       id="bulb-3"
       cx="202.02765"
       cy="146.50426" />
    <circle
       r="4"
       style="display:inline;fill:#ff0000;fill-opacity:1;stroke-width:1"
       id="bulb-4"
       cx="192.02765"
       cy="116.50426" />
    <circle
       r="4"
       style="display:inline;fill:#ff0000;fill-opacity:1;stroke-width:1"
       id="bulb-5"
       cx="202.02765"
       cy="86.504257" />
    <circle
       r="4"
       style="display:inline;fill:#ff0000;fill-opacity:1;stroke-width:1"
       id="bulb-6"
       cx="172.02765"
       cy="102.91676" />
    <circle
       r="4"
       style="display:inline;fill:#ff0000;fill-opacity:1;stroke-width:1"
       id="bulb-7"
       cx="220.96933"
       cy="216.50426" />
    <circle
       r="4"
       style="display:inline;fill:#ff0000;fill-opacity:1;stroke-width:1"
       id="bulb-8"
       cx="220.96933"
       cy="178.50426" />
    <circle
       r="4"
       style="display:inline;fill:#ff0000;fill-opacity:1;stroke-width:1"
       id="bulb-9"
       cx="220.96933"
       cy="140.50426" />
    <circle
       r="4"
       style="display:inline;fill:#ff0000;fill-opacity:1;stroke-width:1"
       id="bulb-10"
       cx="221.49849"
       cy="102.50426" />
    <circle
       r="4"
       style="display:inline;fill:#ff0000;fill-opacity:1;stroke-width:1"
       id="bulb-11"
       cx="227.02765"
       cy="62.504261" />
    <circle
       r="4"
       style="display:inline;fill:#ff0000;fill-opacity:1;stroke-width:1"
       id="bulb-15"
       cx="241.08597"
       cy="237.50426" />
    <circle
       r="4"
       style="display:inline;fill:#ff0000;fill-opacity:1;stroke-width:1"
       id="bulb-16"
       cx="265.38177"
       cy="237.50426" />
    <circle
       r="4"
       style="display:inline;fill:#ff0000;fill-opacity:1;stroke-width:1"
       id="bulb-17"
       cx="254.02765"
       cy="224.50426" />
    <circle
       r="4"
       style="display:inline;fill:#ff0000;fill-opacity:1;stroke-width:1"
       id="bulb-18"
       cx="254.02765"
       cy="204.50426" />
    <circle
       r="4"
       style="display:inline;fill:#ff0000;fill-opacity:1;stroke-width:1"
       id="bulb-19"
       cx="287.02765"
       cy="237.50426" />
    <circle
       r="4"
       style="display:inline;fill:#ff0000;fill-opacity:1;stroke-width:1"
       id="bulb-20"
       cx="277.02765"
       cy="209.50426" />
    <circle
       r="4"
       style="display:inline;fill:#ff0000;fill-opacity:1;stroke-width:1"
       id="bulb-21"
       cx="267.02765"
       cy="181.50426" />
    <circle
       r="4"
       style="display:inline;fill:#ff0000;fill-opacity:1;stroke-width:1"
       id="bulb-25"
       cx="318.02765"
       cy="202.50426" />
    <circle
       r="4"
       style="display:inline;fill:#ff0000;fill-opacity:1;stroke-width:1"
       id="bulb-26"
       cx="318.02765"
       cy="181.50426" />
    <circle
       r="4"
       style="display:inline;fill:#ff0000;fill-opacity:1;stroke-width:1"
       id="bulb-30"
       cx="370.02765"
       cy="87.504257" />
    <circle
       r="4"
       style="display:inline;fill:#ff0000;fill-opacity:1;stroke-width:1"
       id="bulb-31"
       cx="366.02765"
       cy="131.50426" />
    <circle
       r="4"
       style="display:inline;fill:#ff0000;fill-opacity:1;stroke-width:1"
       id="bulb-32"
       cx="366.02765"
       cy="175.50426" />
    <circle
       r="4"
       style="display:inline;fill:#ff0000;fill-opacity:1;stroke-width:1"
       id="bulb-33"
       cx="370.02765"
       cy="219.50426" />
    <circle
       r="4"
       style="display:inline;fill:#ff0000;fill-opacity:1;stroke-width:1"
       id="bulb-34"
       cx="395.02765"
       cy="97.504257" />
    <circle
       r="4"
       style="display:inline;fill:#ff0000;fill-opacity:1;stroke-width:1"
       id="bulb-35"
       cx="392.02765"
       cy="134.50426" />
    <circle
       r="4"
       style="display:inline;fill:#ff0000;fill-opacity:1;stroke-width:1"
       id="bulb-36"
       cx="392.02765"
       cy="172.50426" />
    <circle
       r="4"
       style="display:inline;fill:#ff0000;fill-opacity:1;stroke-width:1"
       id="bulb-37"
       cx="395.02765"
       cy="209.50426" />
    <circle
       r="4"
       style="display:inline;fill:#ff0000;fill-opacity:1;stroke-width:1"
       id="bulb-38"
       cx="402.02765"
       cy="245.50426" />
    <circle
       r="4"
       style="display:inline;fill:#ff0000;fill-opacity:1;stroke-width:1"
       id="bulb-39"
       cx="429.02765"
       cy="213.50426" />
    <circle
       r="4"
       style="display:inline;fill:#ff0000;fill-opacity:1;stroke-width:1"
       id="bulb-40"
       cx="444.02765"
       cy="174.50426" />
    <circle
       r="4"
       style="display:inline;fill:#ff0000;fill-opacity:1;stroke-width:1"
       id="bulb-41"
       cx="444.02765"
       cy="132.50426" />
    <circle
       r="4"
       style="display:inline;fill:#ff0000;fill-opacity:1;stroke-width:1"
       id="bulb-42"
       cx="429.02765"
       cy="93.504257" />
    <circle
       r="4"
       style="display:inline;fill:#ff0000;fill-opacity:1;stroke-width:1"
       id="bulb-43"
       cx="402.02765"
       cy="61.504261" />
    <circle
       r="4"
       style="display:inline;fill:#ff0000;fill-opacity:1;stroke-width:1"
       id="bulb-45"
       cx="475.02765"
       cy="242.50426" />
    <circle
       r="4"
       style="display:inline;fill:#ff0000;fill-opacity:1;stroke-width:1"
       id="bulb-46"
       cx="475.02765"
       cy="214.50426" />
    <circle
       r="4"
       style="display:inline;fill:#ff0000;fill-opacity:1;stroke-width:1"
       id="bulb-47"
       cx="475.02765"
       cy="186.50426" />
    <circle
       r="4"
       style="display:inline;fill:#ff0000;fill-opacity:1;stroke-width:1"
       id="bulb-48"
       cx="475.02765"
       cy="164.50426" />
    <circle
       r="4"
       style="display:inline;fill:#ff0000;fill-opacity:1;stroke-width:1"
       id="bulb-49"
       cx="513.02765"
       cy="249.50426" />
    <circle
       r="4"
       style="display:inline;fill:#ff0000;fill-opacity:1;stroke-width:1"
       id="bulb-50"
       cx="494.02765"
       cy="249.50426" />
    <circle
       r="4"
       style="display:inline;fill:#ff0000;fill-opacity:1;stroke-width:1"
       id="bulb-51"
       cx="494.02765"
       cy="217.50426" />
    <circle
       r="4"
       style="display:inline;fill:#ff0000;fill-opacity:1;stroke-width:1"
       id="bulb-52"
       cx="494.02765"
       cy="186.50426" />
    <circle
       r="4"
       style="display:inline;fill:#ff0000;fill-opacity:1;stroke-width:1"
       id="bulb-53"
       cx="494.02765"
       cy="156.50426" />
    <circle
       r="4"
       style="display:inline;fill:#ff0000;fill-opacity:1;stroke-width:1"
       id="bulb-54"
       cx="513.02765"
       cy="156.50426" />
    <circle
       r="4"
       style="display:inline;fill:#ff0000;fill-opacity:1;stroke-width:1"
       id="bulb-55"
       cx="545.02765"
       cy="202.50426" />
    <circle
       r="4"
       style="display:inline;fill:#ff0000;fill-opacity:1;stroke-width:1"
       id="bulb-56"
       cx="545.02765"
       cy="181.50426" />
    <circle
       r="4"
       style="display:inline;fill:#ff0000;fill-opacity:1;stroke-width:1"
       id="bulb-60"
       cx="597.02765"
       cy="87.504257" />
    <circle
       r="4"
       style="display:inline;fill:#ff0000;fill-opacity:1;stroke-width:1"
       id="bulb-61"
       cx="593.02765"
       cy="131.50426" />
    <circle
       r="4"
       style="display:inline;fill:#ff0000;fill-opacity:1;stroke-width:1"
       id="bulb-62"
       cx="593.02765"
       cy="175.50426" />
    <circle
       r="4"
       style="display:inline;fill:#ff0000;fill-opacity:1;stroke-width:1"
       id="bulb-63"
       cx="597.02765"
       cy="219.50426" />
    <circle
       r="4"
       style="display:inline;fill:#ff0000;fill-opacity:1;stroke-width:1"
       id="bulb-64"
       cx="622.02765"
       cy="97.504257" />
    <circle
       r="4"
       style="display:inline;fill:#ff0000;fill-opacity:1;stroke-width:1"
       id="bulb-65"
       cx="619.02765"
       cy="134.50426" />
    <circle
       r="4"
       style="display:inline;fill:#ff0000;fill-opacity:1;stroke-width:1"
       id="bulb-66"
       cx="619.02765"
       cy="172.50426" />
    <circle
       r="4"
       style="display:inline;fill:#ff0000;fill-opacity:1;stroke-width:1"
       id="bulb-67"
       cx="622.02765"
       cy="209.50426" />
    <circle
       r="4"
       style="display:inline;fill:#ff0000;fill-opacity:1;stroke-width:1"
       id="bulb-68"
       cx="629.02765"
       cy="245.50426" />
    <circle
       r="4"
       style="display:inline;fill:#ff0000;fill-opacity:1;stroke-width:1"
       id="bulb-69"
       cx="656.02765"
       cy="213.50426" />
    <circle
       r="4"
       style="display:inline;fill:#ff0000;fill-opacity:1;stroke-width:1"
       id="bulb-70"
       cx="671.02765"
       cy="174.50426" />
    <circle
       r="4"
       style="display:inline;fill:#ff0000;fill-opacity:1;stroke-width:1"
       id="bulb-71"
       cx="671.02765"
       cy="132.50426" />
    <circle
       r="4"
       style="display:inline;fill:#ff0000;fill-opacity:1;stroke-width:1"
       id="bulb-72"
       cx="656.02765"
       cy="93.504257" />
    <circle
       r="4"
       style="display:inline;fill:#ff0000;fill-opacity:1;stroke-width:1"
       id="bulb-73"
       cx="629.02765"
       cy="61.504261" />
    <circle
       r="4"
       style="display:inline;fill:#ff0000;fill-opacity:1;stroke-width:1"
       id="bulb-75"
       cx="694.49847"
       cy="168.50426" />
    <circle
       r="4"
       style="display:inline;fill:#ff0000;fill-opacity:1;stroke-width:1"
       id="bulb-76"
       cx="694.49847"
       cy="205.50426" />
    <circle
       r="4"
       style="display:inline;fill:#ff0000;fill-opacity:1;stroke-width:1"
       id="bulb-77"
       cx="695.38177"
       cy="236.50426" />
    <circle
       r="4"
       style="display:inline;fill:#ff0000;fill-opacity:1;stroke-width:1"
       id="bulb-78"
       cx="720.02765"
       cy="251.67921" />
    <circle
       r="4"
       style="display:inline;fill:#ff0000;fill-opacity:1;stroke-width:1"
       id="bulb-79"
       cx="743.61517"
       cy="236.50426" />
    <circle
       r="4"
       style="display:inline;fill:#ff0000;fill-opacity:1;stroke-width:1"
       id="bulb-80"
       cx="745.02765"
       cy="205.50426" />
    <circle
       r="4"
       style="display:inline;fill:#ff0000;fill-opacity:1;stroke-width:1"
       id="bulb-81"
       cx="745.02765"
       cy="168.50426" />
    <circle
       r="4"
       style="display:inline;fill:#ff0000;fill-opacity:1;stroke-width:1"
       id="bulb-82"
       cx="712.02765"
       cy="221.50426" />
    <circle
       r="4"
       style="display:inline;fill:#ff0000;fill-opacity:1;stroke-width:1"
       id="bulb-83"
       cx="712.02765"
       cy="192.50426" />
    <circle
       r="4"
       style="display:inline;fill:#ff0000;fill-opacity:1;stroke-width:1"
       id="bulb-84"
       cx="712.02765"
       cy="163.50426" />
    <circle
       r="4"
       style="display:inline;fill:#ff0000;fill-opacity:1;stroke-width:1"
       id="bulb-85"
       cx="772.91095"
       cy="204.50426" />
    <circle
       r="4"
       style="display:inline;fill:#ff0000;fill-opacity:1;stroke-width:1"
       id="bulb-86"
       cx="771.91095"
       cy="171.50426" />
    <circle
       r="4"
       style="display:inline;fill:#ff0000;fill-opacity:1;stroke-width:1"
       id="bulb-87"
       cx="770.9693"
       cy="138.50426" />
    <circle
       r="4"
       style="display:inline;fill:#ff0000;fill-opacity:1;stroke-width:1"
       id="bulb-88"
       cx="769.9693"
       cy="105.50426" />
    <circle
       r="4"
       style="display:inline;fill:#ff0000;fill-opacity:1;stroke-width:1"
       id="bulb-89"
       cx="768.9693"
       cy="72.504257" />
    <circle
       r="4"
       style="display:inline;fill:#ff0000;fill-opacity:1;stroke-width:1"
       id="bulb-90"
       cx="790.02765"
       cy="204.50426" />
    <circle
       r="4"
       style="display:inline;fill:#ff0000;fill-opacity:1;stroke-width:1"
       id="bulb-91"
       cx="790.02765"
       cy="171.50426" />
    <circle
       r="4"
       style="display:inline;fill:#ff0000;fill-opacity:1;stroke-width:1"
       id="bulb-92"
       cx="791.02765"
       cy="138.50426" />
    <circle
       r="4"
       style="display:inline;fill:#ff0000;fill-opacity:1;stroke-width:1"
       id="bulb-93"
       cx="791.02765"
       cy="105.50426" />
    <circle
       r="4"
       style="display:inline;fill:#ff0000;fill-opacity:1;stroke-width:1"
       id="bulb-94"
       cx="791.02765"
       cy="72.504257" />
    <circle
       r="4"
       style="display:inline;fill:#ff0000;fill-opacity:1;stroke-width:1"
       id="bulb-95"
       cx="781.9693"
       cy="244.73753" />
    <circle
       r="4"
       style="display:inline;fill:#ff0000;fill-opacity:1;stroke-width:1"
       id="bulb-101"
       cx="465.60339"
       cy="-164.51089" />
    <circle
       r="4"
       style="display:inline;fill:#ff0000;fill-opacity:1;stroke-width:1"
       id="bulb-102"
       cx="485.60339"
       cy="-144.51089" />
    <circle
       r="4"
       style="display:inline;fill:#ff0000;fill-opacity:1;stroke-width:1"
       id="bulb-103"
       cx="485.60339"
       cy="-104.51089" />
    <circle
       r="4"
       style="display:inline;fill:#ff0000;fill-opacity:1;stroke-width:1"
       id="bulb-104"
       cx="465.60339"
       cy="-84.510895" />
    <circle
       r="4"
       style="display:inline;fill:#ff0000;fill-opacity:1;stroke-width:1"
       id="bulb-105"
       cx="445.60339"
       cy="-104.51089" />
    <circle
       r="4"
       style="display:inline;fill:#ff0000;fill-opacity:1;stroke-width:1"
       id="bulb-106"
       cx="445.60339"
       cy="-144.51089" />
    <circle
       r="4"
       style="display:inline;fill:#ff0000;fill-opacity:1;stroke-width:1"
       id="bulb-107"
       cx="465.60339"
       cy="-124.51089" />
    <circle
       r="4"
       style="display:inline;fill:#ff0000;fill-opacity:1;stroke-width:1"
       id="bulb-108"
       cx="545.60339"
       cy="-164.51089" />
    <circle
       r="4"
       style="display:inline;fill:#ff0000;fill-opacity:1;stroke-width:1"
       id="bulb-109"
       cx="565.60339"
       cy="-144.51089" />
    <circle
       r="4"
       style="display:inline;fill:#ff0000;fill-opacity:1;stroke-width:1"
       id="bulb-110"
       cx="565.60339"
       cy="-104.51089" />
    <circle
       r="4"
       style="display:inline;fill:#ff0000;fill-opacity:1;stroke-width:1"
       id="bulb-111"
       cx="545.60339"
       cy="-84.510895" />
    <circle
       r="4"
       style="display:inline;fill:#ff0000;fill-opacity:1;stroke-width:1"
       id="bulb-112"
       cx="525.60339"
       cy="-104.51089" />
    <circle
       r="4"
       style="display:inline;fill:#ff0000;fill-opacity:1;stroke-width:1"
       id="bulb-113"
       cx="525.60339"
       cy="-144.51089" />
    <circle
       r="4"
       style="display:inline;fill:#ff0000;fill-opacity:1;stroke-width:1"
       id="bulb-114"
       cx="545.60339"
       cy="-124.51089" />
  </g>
  <rect
     style="display:inline;fill:none;fill-opacity:1;stroke:#00fd00;stroke-width:0.94499314;stroke-miterlimit:4;stroke-dasharray:none;stroke-opacity:1"
     id="background_outline"
     width="1001.4799"
     height="249.90233"
     x="-2.7005394"
     y="0.25393423"
     inkscape:label="background_outline">
    <desc
       id="desc2465">textures/uka17-background.png</desc>
  </rect>
</svg>
